<mxfile host="app.diagrams.net" modified="2022-04-06T03:42:31.991Z" agent="5.0 (Windows NT 10.0; Win64; x64) AppleWebKit/537.36 (KHTML, like Gecko) Chrome/100.0.4896.60 Safari/537.36" etag="jwaGfk2EoKt0OAXl263m" version="16.5.6" type="github">
  <diagram id="H9TFpn97SoSzOIxd8mee" name="Page-1">
    <mxGraphModel dx="2272" dy="772" grid="0" gridSize="10" guides="1" tooltips="1" connect="1" arrows="1" fold="1" page="1" pageScale="1" pageWidth="850" pageHeight="1100" math="0" shadow="0">
      <root>
        <mxCell id="0" />
        <mxCell id="1" parent="0" />
        <mxCell id="HaPRxVeF14VXVeQSBbxY-12" value="Log outbound transaction" style="rounded=0;whiteSpace=wrap;html=1;shadow=0;glass=0;labelBackgroundColor=none;labelBorderColor=none;sketch=0;verticalAlign=top;fontStyle=1;fillColor=#dae8fc;strokeColor=#6c8ebf;" vertex="1" parent="1">
          <mxGeometry x="330" y="180" width="658" height="597" as="geometry" />
        </mxCell>
        <mxCell id="HaPRxVeF14VXVeQSBbxY-11" value="Log inbound transaction" style="rounded=0;whiteSpace=wrap;html=1;shadow=0;glass=0;labelBackgroundColor=#FFF2CC;labelBorderColor=none;sketch=0;verticalAlign=top;fontStyle=1;fillColor=#fff2cc;strokeColor=#d6b656;" vertex="1" parent="1">
          <mxGeometry x="-339" y="180" width="639" height="593" as="geometry" />
        </mxCell>
        <mxCell id="HaPRxVeF14VXVeQSBbxY-5" value="" style="edgeStyle=orthogonalEdgeStyle;rounded=0;orthogonalLoop=1;jettySize=auto;html=1;" edge="1" parent="1" source="HaPRxVeF14VXVeQSBbxY-1" target="HaPRxVeF14VXVeQSBbxY-4">
          <mxGeometry relative="1" as="geometry" />
        </mxCell>
        <mxCell id="HaPRxVeF14VXVeQSBbxY-1" value="config-service" style="rounded=0;whiteSpace=wrap;html=1;" vertex="1" parent="1">
          <mxGeometry x="130" y="210" width="270" height="60" as="geometry" />
        </mxCell>
        <mxCell id="HaPRxVeF14VXVeQSBbxY-3" style="edgeStyle=orthogonalEdgeStyle;rounded=0;orthogonalLoop=1;jettySize=auto;html=1;entryX=0;entryY=0.5;entryDx=0;entryDy=0;" edge="1" parent="1" source="HaPRxVeF14VXVeQSBbxY-2" target="HaPRxVeF14VXVeQSBbxY-1">
          <mxGeometry relative="1" as="geometry" />
        </mxCell>
        <mxCell id="HaPRxVeF14VXVeQSBbxY-2" value="Actor" style="shape=umlActor;verticalLabelPosition=bottom;verticalAlign=top;html=1;outlineConnect=0;" vertex="1" parent="1">
          <mxGeometry x="-130" y="210" width="30" height="60" as="geometry" />
        </mxCell>
        <mxCell id="HaPRxVeF14VXVeQSBbxY-4" value="eps" style="whiteSpace=wrap;html=1;rounded=0;" vertex="1" parent="1">
          <mxGeometry x="630" y="210" width="120" height="60" as="geometry" />
        </mxCell>
        <mxCell id="HaPRxVeF14VXVeQSBbxY-6" value="" style="endArrow=classic;html=1;rounded=0;dashed=1;exitX=0.25;exitY=1;exitDx=0;exitDy=0;entryX=1;entryY=1;entryDx=0;entryDy=0;entryPerimeter=0;" edge="1" parent="1" source="HaPRxVeF14VXVeQSBbxY-1" target="HaPRxVeF14VXVeQSBbxY-2">
          <mxGeometry width="50" height="50" relative="1" as="geometry">
            <mxPoint x="290" y="470" as="sourcePoint" />
            <mxPoint x="340" y="420" as="targetPoint" />
            <Array as="points">
              <mxPoint x="198" y="310" />
              <mxPoint x="-100" y="310" />
            </Array>
          </mxGeometry>
        </mxCell>
        <mxCell id="HaPRxVeF14VXVeQSBbxY-7" value="" style="endArrow=classic;html=1;rounded=0;dashed=1;exitX=0.5;exitY=1;exitDx=0;exitDy=0;entryX=0.796;entryY=1;entryDx=0;entryDy=0;entryPerimeter=0;" edge="1" parent="1" source="HaPRxVeF14VXVeQSBbxY-4" target="HaPRxVeF14VXVeQSBbxY-1">
          <mxGeometry width="50" height="50" relative="1" as="geometry">
            <mxPoint x="530" y="490" as="sourcePoint" />
            <mxPoint x="580" y="440" as="targetPoint" />
            <Array as="points">
              <mxPoint x="690" y="310" />
              <mxPoint x="340" y="310" />
            </Array>
          </mxGeometry>
        </mxCell>
        <mxCell id="HaPRxVeF14VXVeQSBbxY-13" value="" style="shape=image;verticalLabelPosition=bottom;labelBackgroundColor=default;verticalAlign=top;aspect=fixed;imageAspect=0;image=data:image/png,iVBORw0KGgoAAAANSUhEUgAAAvsAAAIcCAYAAABowGF0AAAAAXNSR0IArs4c6QAAAARnQU1BAACxjwv8YQUAAAAJcEhZcwAADsMAAA7DAcdvqGQAAMXgSURBVHhe7L0HgORIVub/Cmg43H8PjmpMMwOHJ5WL9wN0w2EXs3fQyp7hgMNDNzO4hcGTSjjc4JnpauzhmelUAzeYhcNWA83iOVgp8W5mMN3FsrdwwGH1f58iIjOkVGZGZqmqK1Xfr1uVkiIU8cIo88XTi9DOM888U4jHuXPn5M6dO3L27Nm1PwkhhBBCCCEnh5eyn1NCFfv6JyGEEEIIIeRkMafshyj2TZ+EEEIIIYSQkwUt+4QQQgghhHSUhT77165ds2dWc/ny5TmFPx/1pZ+IJFkmw8ieJIQQQgghhBwbc8r+mTNnSsV9NBrJ8573PHt2MV/1VV8lw+HQHjlSGeykEhdjie0ZQgghhBBCyPGy0Gd/HdaNTwghhBBCCDl6FvrsrwN99gkhhBBCCDl50LJPCCGEEEJIR1npsw+f/EW48IrPfp7K4NJAJnEmGWfmEkIIIYQQctdYuhpP6ATd+dV4OEGXEEIIIYSQuw199gkhhBBCCOko9NknhBBCCCGkoxypZX+S2x1CCCGEEELIscM36BJCCCGEENJRFq7G4yz8/icGAE6xr4cTQgghhBBCThYLffYXKfSLwgkhhBBCCCEni4U++4sU+kXhhBBCCCGEkJMFLfuEEEIIIYR0FFr2CSGEEEII6Si07BNCCCGEENJRaNlvm8lAZKQbIYQQQgghd5mOW/ZTVbx3dOuLHOTevg12HGi8PYTZ8Ik9T1oksC1aIZXBzo7s7PRllOfevg225OlA+mWYbv3BXLghVTH7S+OEpBOWVwir5ZmieSLeQKt+M1bl5erZ3wZ6dhNySXWQ3G9opyl+HWq8oytXm+1lWdYWLeSVDuz1tW0+v+Ns04C+2lo9h9wXoWVf/r1BCCHbRsct+73Z526km9svT1r0m3xvIHIhExkWInFc/gDNcVMV05sB3/q9saaj20kgVOZjIaQt2mKW18UoEv1f7vf8l7vlI7k0mEicFVIUhWTDSFJVBKo/7LmMNM7FLCvjFNlYeqqQVhSfkHSC8gohQB6H5tnXuKbsmxCaVyxjhE+3sZ6xQIZSYWraZmmVinV/JJPeUOKF8qoihjocW3mKTIYykvQo6rC19rIsawuEjSK57urveiy5KqKNbbqUSBIrr9vGWpmRuxVKWmjTClCOF8kaVs/tlD2kXCFxAr43CCFkC+m4ZV+/paFMQrkE/r5jMtLvc1XO3Te6KhyyOzkii/NpJqAtWsP+UOMHWz96+A3XfV/vSUepNvvs7c5RPJRhnEvuP9VJVZmMLpZpOHrRREae1heSTlBeIQTIY1DF5hJeX31dhhVlbw2C81pBPLbKVaJNkJj9mvIYaZxMla/hYk1f5UklLettFgeKbHpjTXlaatNwVrTFRPONPXmiWOJYy7qmxotBkJO3RBXp0SRWpdUeg7baNISQvFoqe1BeQWVf/b1BCCHbSPd99kul0n5dn9WvcLfvONBf8LP2XNo37iW+on+ggwGc29cfhX0b3uSC4uKVW+3JQOnHr+fxBKF0F9JrJ/qL5lyHKr9u3vlya7LO67GT1cXBsYu3jsx7Xjjkww8wCJXZHfthZbimXWdVW1icS0L/EEpI+UNd/sGPuual+/gBd0A5GlfMlapkTPRH3hMpn8xrd5Gmk3taX0g6IXFCCJEH5KNLkugAFhbpTQnNC2WZuX30ZXAUiiOIVRHUPjVypvw8VUUNiuENc+yxrP+01aaOVX11ZVtouXpahtnVuUxUSR9W8l+f/Ibej74irRxnmwbltUbZD9umoWXXU0u/NwghZBvpuGVfia1rDjifzfbrQLk90LArGh9KqWN3aNx7LuhXvnP1KTfdb4rX5MKDJwdXEk1ff1iQxhXNB65C5b6eh6LsgBINmSv5qOLsK/x4GuFkLeNctwGWYJkval5eOKymTkkPlRky4LdxH3J7aV3Qc3s1hT+0LVogHhdSWI0t0nK7/WZyHcuorBrvEPqxEpJOc5xR3ylXtQ1x1wEuMUlPxkvK21pec+4emcT5pUP40i9D8xr3tHjW5/pSKj3tP4dqriAO0TcC2gLlwlODS/2+YL7CQPPK9TvksOUyuv4mqaxqU38gADeY+vE6HE3ZD8N63xuEELIddN+yHwqUWliafWW4bXb1hwPuQqVF29+3wNJet5CXVnI9l3sWzNLVyI93SU9qeufX/Jk80DRTL589VeLrrJLZcUEHB75bDgYckHEDd6jyB1cVjcNYpoPJVVnpa/1dr1tz1yQknSVxhjV/6+mWaT2ugbFgzhQwKGmwivoKeFt5NRHHqpC7pz7RULLGyoBCucgPfAlw95nKiutz/TdPa/0noE2X5RXSFhgQXMpjybJMy6b5aLmi0SEnheYjzbXmwnMIKm1atp1tg7IN68drsEbZj/U7gRBCOkb3LfuhnId1XJVtKL1YLca5sxw3u6pwO+u4v13xFTH9wfOt6FcgOzQJX4tYhcbd061i+W94KnEotA5P8NyHcmLoJVWLVJlr0iGaHvNDgYtq/hyr0gEhcVYRIk9pjZwqX5ikaRSlhQOQBYSW/W4CBTSKL9qjMNps01WEtEU5IKjl3ettOj/A0OTCA46zTUPyaqvsQffFFvRnQgg5KmjZh5X6Dn4E9KfRV6CbrORlPKBKLFa6qfvmHxZnDa8r7XAx8l1iYI2/6cXB0wg0gZt74LNIZjzJgP+Ns8ZjgNPkZx/KvqaLNBx4SnGgA5cNfktX+UG3AdxBLqWxXIeF2FbBnNU1HkoySWcrvsBPPO3J0NP+QtIJyiuEAHlaI7Ds/cFIlShznGv/6Wuh4iNyz3L5AOQ9mCRyvaHsS/tPS23qWJpXAFBCod3Ors5lInFdBy6Z5bW84yx04TnONg3Ia7Oyz2JPCbkvQuIE457WHPIJDCGEHBfPPPNM4W/g9u3bjZ9JkpSfi8K3k0wLJkWR6yfItYxXTTmrjPW8xkNcbGONc8cGAT/M35BWHlePkVZ5rOen+9EsvX0vPjbk5YMFTsb1OJrOHCtkruSj+aPsbt8PWyUz5EH9jfXYXVOXeQ3GsehoS4oosW3SOuNCVZcyj/oW16sx07iRDY/iYlwRKSSdNfIKYak8HllSqBpz5HmNtT/M8ok0n1qkmhxm07RscIn25Wq42SrtX5FF80kWF2hl/zl0m84I6qsr2iLT8vt1uCipWV5LGhN5RQm+1Zppo01DCchr/bIviBCQV1CcEGx/PbrvJ0IIaZcdKPj6xTXlzJkzjZZ7fF67dk0uX77cGL7VwAqdYjIqDvSn50pmrOUkDDxpiLQbbWDFJ4SQbcI85dlw3gkhhNwF6LMP4D4zXdmGij4hhJBmyqkGyZCKPiFka6DPPjkcWBEI7v/lqj61dfwJIaRjYDUrrgpECNkmaNknh2P6RIRPRQghhBBCThq07BNCCCGEENJRaNknhBBCCCGko9CyTwghhBBCSEehZZ8QQgghhJCOQsv+NoM367b9Fl9CCCGEENIZOm7ZT1UZdktC5t6+DXYcaDwsIenCsZQksQTWYSv4r6HPl7ySPpdUBzn9ha+rD02HEEIIIaTbdNyy717pqp+7kV0WEvvlSYtqgHsDkQuZWT4yjlVX3BJreW+sMut2pITUYVvM8roYRaL/y/2et6R1rm3T749k0htKvHCp69XpEEIIIYScBjpu2VftDkoplFTg7zsmI9UDVWF2mqAqkbI7OSLL9TYSUIetYRVzKOj60YPOrvtOdQdRPJYsG8twsaavrE6HEEIIIeQ00H2f/VI5tWreWVX93L7jQBX7s/Zc2jduKr6if6CDgdJ1xW4T59bijm08uLtMXYGwaVo3a34jN2368LP3XYfwZGGap17j5HDp4NhPqyLTkqcQNzXMd09KNU9H6e+v55G3n58fx7GqDi3pAO4yO9I/hL9MqZiXf/QDGrvuQ2Ffl7bSIYQQQgjZap555pnC38Dt27cbP5MkKT8XhW8l+5FuWVHkcVFc1fLd0XNX9Rw+p2j4VQ2fguNanLGGV65RkCbSrjDWihRzfV4PU3w5SjTO2Mo4B9Ly5fLANfX0kfZYr3Hc0XwSL+07+nlVZcvN4bqMYym0SxVR0iRr+yRRVBxTVoQQQgghWwlX43HAwg+LNazYc0T6X8OddR2uP7tw9zGHpaUdFv+KZd9ayfMbNpJPLHIlg8nZHnuUbkR+Wpf0pMY/v45dWq8/0Gvq6cNdCbL6Ty52vbSnPvmbEY8LHSkUkg3XkZUQQgghhBwVHffZX4Pz1/WPdY/BqjOTmivKeVXC9zUc7Kvif0GVZJ/dxEzwrW9X9Lq1UEU5tpOFy+shlyrvTe41hBBCCCGELIGWfVjz78DxvqZkz1nSVbm/oPGwUo9v1QflcYNCDr/4PTtACCXVwcZNLx3kg+p18wqCUFkhT33AAnnqsrdIGz77x4u/RKc9RQghhBDSIWjZh9sMlGCnGMNFZ5GC3lMlGu46Uc2qDzBQOKthvhtPrgOGqWVf0y9dczQvWOqn8XBc444f3tdjTcMffExdfGpp+XJDnspEXk0nV7mxtCgoByKJxtHNXYeBBsY95YDjhGq/OtjCgAJbkueS9A8xwNDBmdaeRMl1oecRIYQQQrrIDibl2v2SM2fOLFTor127JpcvX24M32qgFKdQfHEABV0V5SOyfpOTA55EDNJYxsUYz0IIIYQQQjoHLfsAri1XrPvOkIr+aWEygVV/SEWfEEIIIZ2FPvvk1DLMuHIQIYQQQroNLfuEEEIIIYR0FFr2CSGEEEII6Si07BNCCCGEENJRaNknhBBCCCGko9CyTwghhBBCSEehZZ8QQlYw6uOdDPZgASFxyOnkOPvG1vTD8gWJg/LFhp3iLpWL3z9kGR237GvPd2+PPci9fRt86jnO+kllUL75ti+jPPf2bTDpHLn2pY3fbnyS0B/vRP+Nl72QoSlOPpJ+2c+xnQClZoU8W91eWv/TsvUHC75XUv16M2VcGKetdHxC+s9CcklHkCnwu/JQebWJft+r8lnWUVlP/K4/Uk5Mu5NjRdu9vL8CRnkdt+z3Zp+7kX1ZFvbLk+RY62eW18UoEv1f7vfcMveu09a2fkdMFVCkDqtE4Y2/c3XUoGzk6ajyQ9sfjFRlqJKXCoSL05eBHk+/MCpKYX0LV1qjYSZZEvYeg5D6aaMON2E0SiUeDu1RM41xoqFkRSHFSXlD8wp51mmvtmilTdFfR5FcL8um2/VYcr0vqv00l9FgIhezzMTJxtLTPl+J01Y6NUL6TxO5fif2+yOZ9IYSBzbLpnm1TToYyCQemzoq6ymTuVealOHb8/by4L56F8p1UtqdHDPoa4EjvI5b9vXbBYorFFng7xPlOOvHKvhQ9PWjB91f990QoOy0WaKnksoPRDzRH7y7oOCdROJxUVpu8DmtIygklzxlAwqCKu1Q3Ewc/ZHVUCgN01rUOJfy2Cp+umX6I5HW1BX3Q11pk+35YW4NrauNrPrk+Jhoz44vlt8rJVEscZxWu7QOgNPIi6P0ookqSd53S1vp+Byib0R6D2Y6mBiGavonrB/2erwhjgV+/5AAuu+zXyqwVqU8q1+abl+VyNJtZU8/96z7ykS/1ct93arf8LPzztXlZv3LXY9TPe/HwXElXkCcg5Hm5cWBfPgRqlBLB9c7+SY2SpDMyqL6qeGsyodRvEsFv/yDH0jNS/eX/oxpnOFQldl8Wiil9ni4tErP10866Fcex6f6hWj2VenVuqiUxbNkVx8khOdViYO8a2n3k1zypBrvEFU5AwpJzykkueY9kQRWtKmCEKnensm4l8jIli2fTMzm8tc0xlrPR4cqQ5UnDV4lh9RPQByX/kArYtVTDRDanze26q9B6aYxlVn7jtZPXarSymvLZMqFY2+Qp3U0cK4l2PDEJ11etsUsaS/LapnbvS+WtlccSy+94eWfy2QS6z1gDxX09zqRfv9UvlvaSsejsW/Ysrsyl322cmzjrcmyfriy/yhL23T6/an9ymvXub5h4+G0/ySy0m6V8i96KoInKF4+ev3sHkcSJqzen1y4w8Ur88m97wb8JjiRVt07oX01qFwt1bPHpt8/s/bxZfX6ostzVf2UrLjfAwj9Dg9qU6WV71XUhydLWa65MoWUPSROWF5+vyjL3PzVM88zzzxT+Bu4fft242eSJOXnovCt446WJ4mKIs/svnj7sY2kjHX/jt135HpuX+M6cHxVr5vG07Cxpr1uHJzz86rLAq5amR1IF+XwrwuReQ3GsRTaXYoo2ez6ILKkiCItryMbF3EUFfHYHitJHBfjmgiZljX25BrHUVERs0xH5fcSyrS+6mVBGdfNC/UsKnM2PZWV+dfTbspvE+oylmUTlbPcr9WfD+SslD/WuKZNVV3RMo3R8wxIx8WtpOnlFQjKXabvKlIrKtF8K2VQQupnVZyyj0ZoMy+Olb9+VVB/dm1rDxsJibOk3tBXpnVjQR+b1r9SlluP/VjZWMtVSTPz+qCi5V7cVovlCWmvEJmn9TKNdrj7YlV7mf6saUF27QNB/Qsy1iK2lU6JqwN7WCUr059dhXqufW95LAsrWZJXSP8JalPcS+V3hY234F4Gc99TjSzuhyivL08pi+bt10FTWzTni3zw3aDX18poCLt3QvvqsnK1Xc/L2j2Eab9COlpHJg8j/yzNgPpxckzjNd/vqwj/Dl/epiH1HHJftKYDBMRZnZf9jvAjNeg2i5hT9hcp8viEsr8ofCuBIg3lu0Qra6pUe/tuENC0Ta8F2gBQ3Kfhuq8dp0pAnFImF+42J5dSkdkDAwCn3AfLfMIov+TMj7pTQqsdux7ubXojTeO4fR/cbPUbvfZFVPmhCMmrRG9AvWln4fgCmf/yDf+hWI5TemayeF8Qi8oOauWvoN9AZbpN4cvSDCD0BzmkflbFaUoX4Et1k6pf+APrERJHJVjw448v6vm+AnzlbqWiB7Sdyi99v28sUDgWyxPSXmEya0rHd19o364oS0q9zhrzqd8TbaVjWdU3Kmk15O2zqg8sy2t1/wls04bvgsX33CHuiwXfOSFt0Zzv4v5eEnjvhPfVRfm1X89h3z+LcemWZVMZyn6M/P1Eg+on7H5fxeL+VO/Dy9o0rJ5X3heoh0qZva3SPiFlXxEnJK96uzgWfP/U6bjPfkvsJiJDrff6dsV/dKZNFWde2HU9l+p///Hbqjj6uafbBS/OcGzD1iRI5hOI57M/1iKkI/+xuqLheoNM40w3+J23TVBekTaR848vJMuuGx/5JY9dD4ve154s49nkveii9PK02Q1C+1gcG38ErCRSiRNFEg8TiRpcFLpBLgu8LBaTGj/Ypd5NIXGOBTz+Tb15Gtju9vyK47svSteaqOp+2OtV27zJ1QbXRd51baVTEtA3ouFQeolxURiNJnoPbthiJ6YfbiMn8d4JpIV2x2/CZJLLDb0t4+tDifV3YoSDaX8OrZ+jvt83+A5vg9Z0gIA4R6zbdN9n/7DsakXvaoNUlHYFPv97I3ugpDsiN7048IVHtZz1fgRWxTlAb9Z9N0kWy2GmXh4A8mgnqfjx3+xXl8sMlXkN2vDZX5dYv2Cux94NEQ1l2Evlkh77UsDvDr74JTZORUz49Y2qdVH+aE/9c/PSv68SJSQvBfXS1wtdHExF0Pt6/scfTL+tkB/87gaVtA9PJONxTxIo8zOHVJWxL4OJ/6OQS3JJlQwv87z8tr9oj+4SIfWzIg7aMa0UbCSjStkNq/pzOThSZcyNo5oIibOcuJxvUfd/RR9Le9r/bMIXVfYU7WUOS8yKS3bQpnUywcpWbmkrLX86GOFb4ggIk7nt+2JZe+FeRhqzkFzrI67q7fFQkknq+WmjDD0ZekvEtJUOCOsbsQyTiX7HVOtuXVbltbL/BLbpsaHfvbH23oEnD/y0k6p4q7/DQ1j33gnoq4tpt54P//2jlPNULml5tS/aCelJoqcvuvoIq5+17vcVhH6HL6al79UWdYCVcYJ0m4sST7Qu/HI16DYLqbvxgEWuOp3y2S/93HXgNHVtGdtjuMy4fc81Zt+Lj63uflOutlWPU3u0EhKnko/mn2s+bn/qg6/jP98dCH74vhuPY5XMa4DHa9pdAh9jbgAeRXmPrmZPpTItOs7NHtmN4VfrxW16ZFb6w7k4cHWZe9Tl0nVpjLXp7b5XxlV5lY8d43qcqh+gAY8Wa+msWZWuDaZb7VGvA36H1byq8pSPL+fKVeuHjY8VFz02bQaPhqfX2vT9MlT7Ukj9LI9jHgFXH5fO9w3D0v6Msi94DDwlII7fvypbrd2qfQyPd+f7T+lL7qUR+e5bSjUc/qrwqzX7roir5FmnvVbJXLZFi/fF0vZSjE+3S2fB43nn34o4tfpztJJOSP9x2PvMVneV2nei2yp1EJjXqv4DlrapL4vNr6lvVPqQt/nlC7svavexpj/vdrHqO7waPtuq32Mh945heV9t5X4PrOfQdg8Bck/TLfP3/fXD6if8fl9Omc7S7/CwNgVtfK+Cajp1ecLKHlo/q/Iqy++7A0FevcbsN+sDjh0o+BpxypkzZxot9/i8du2aXL58uTGc3GWwgg9chPC0gMyDEXKqd5zedaSbwHqS6vfeYZs4JJ228iLd4zj7xmnqh3A/lOsN6/WfQrra7vxePTrmlP1z5841Kvr4HI1GMhwOF4aTu8RkpHdJLrKpf/9pgMr+sfNSOzt2jxBCyHHxb0VFrdsaqOwfHbTsbytYQ9/56e/qnRGrok+r/jxY+7ifzPzgMAH4KCbzkrsK1mie+fRG5l0DtAASsrVU7ukoluT6mPd0h+F3+NFCyz4hhBBCCCEdhavxEEIIIYQQ0lG4zj4hhBBCCCEdhZZ9QgghhBBCOgot+4QQQgghhHQUWvYJIUcPlj7dGRzRW13JXYFtSk4b7PPHw0mr5w60e8ct+9o0ox2s6SRykHv7NhgcjOx5bAN7ktwdAtqrNVIZ7OAV/Hg1du7t22BCCCGEkA7Qcct+b/a5G9l16LFfnjTsDkWGBV9IdSIIaK/WmOV1MYpE/5f7Pa7rezTEYymKsfBdKR2CbUq2gHzUl35bVpyT0OdLKzOMUw1bf2QjnUyC2+Ko6xnv32mqv3JrsOAfsTyolzk5Bu0+R+i4Zd8qjFAcgb9PTiDH2V5WwYeirx896P6674YAhBBCyIkDimeW6M9VogpoMdtwzkYhAZQKvK23aV3enYFcNMxM/nh1sJOr5dcId99nv1QYrQp3Vm8Ft78uNwfmrbXOtSStj7p0tJrqeecSdFOPXfyJjRIUR9Od5oNN4yOez02Xhsp04MXfw7GNs4qJxnXX+DLVywU3pz0vHPEnVh4/jVIGjTfx5KmkFVAuENheeK02Rr+HsdiUCn75Rz+g+et+/csyTwcVC0B/gOPqyD/Vduj3XZy+xknNG3udBaY/kEEZ3peB1onZR1q1ul7J7FqX16BSfueapJtN29WTs1bgLYU49uXA1h+MZm8ZLlmVl2+N0LRzL76WN3VRKxaUBosJ0DiDvmfZ0OtH0wQUrx5Hg1m89esP5Jqcb0XRculxpR+tkgeExAnJK4iQdFpor5q1q+wjlWOTTjXegjZVVt87q2VeRb1/Gzy5rdChfXVZm4bcO8d+fwVyqO8xS5g8q8u1lLW+M1fkZftpP8klT7x21XjVaGF9o50+39Z3wgzIP3+9lsPlYets4b0S0F7LyuXqbyqDV1f174xVbRFaz0v7qteHDv17sUyeNvvqGqy6T1Xoark1H3wvCd6g62/g9u3bjZ9JkpSfi8K3m7EWMLb7NcZRUeSZPbDkGnes1ziu1uIgPNFzd+wxCIkz1nP+MUC8/Vr+pbw6AKynuQ53tD2Rv0v7jn5e1TRzc2jQc7485TUqj8OlARnKfVzv9r14weUKQwe9ePNzESWbXR9CpuWK4jFqYEo2TopIYtR+yTiOinhclSHTsuI6c4D4Nk65L9P92EsnhCTW+LXiIq/Yr4NsXMSR1ovNH/JJVL2urLvynH+dyhYl07IG5VWi+WmZJIqKpH5BBcRbVN6s8EVprBtXjy5/vSDRcrpqDkbLICjnNL+srKNqPwqQJyROUF4BBKTTXntl2n/8cqCeNW5T1DKter0YQu6dcJmXM5UP9VTeXzhrZKumtLrsq9o05N65O/fXYlr5HpuyXJ5W2hR1FfCdGZpXWf6V+YfWs+lX9VoBIfVc9tE2vhNsvaC/L/wdDPgtCKnDkHI11THug3r3CWsLsLieg/qq60MuL63wyu8Fwt0B9rVNDIvyXXDe5QN5bJscpq+W/aNeaR4hZcf3oR+nDFcZ55T9RYo8PqHsLwrffrSyGpV9PX/VdYQaULShwEKxbYrjwkFoHCjLTdvctYvkXYMmmfAEyVf2yzg1WerK/jQNXyZvf61ynRwWKzkOfJnOfsB9ptcu/CJZ/GXWiP0icV/ulW2avgM/ILOwunxNX8IAXyRTmet5uG0ur9ByLImHL0b9Iq7mVYtbqUfDonIsR7/08aM3zQc/ZLU6CpRnZZyQvIJYkU7L7VX5Qa7/iFZYnNbKe2ctmZfj+kEpt+Zb/lgi/Tm5V5Q9oE1X3jvl/t24vxbTyvfYlCXytNWmSGca38/P218jrzAFM7SeF8dbXc+gpe8Er46Wl2/Jb0FgHYaUq0mGpvsgrC3AonrW8/VyWCpyVvqQYdF92RR3ngXyVK7143j7gfVc0qDsz+QOKPuCsiC84z77W8huYicM17YrQxvhOElF9nS7kHmybDiR+USVa0uJEtH7WUdItS2r1WE+KT2oVPHBwdTrajU5LjWE5nVo8HgznfkslttR+k1G2oVneWXZdRmqDLNHriHyhMq8Kq9QAtJpsb2i4VB6iXE7GY0mEg+PqDVakjmOY5loJ7+h1RFfH0qsnX+Eg2gdl83D9kPv3lnI3bi/jpnjLNdW1mFb3wkz0GezIb7rG1j1W9DVfnjSOAH13H2f/UOjX/e7erfU7xL4q2Mln9LHHA1WiwO/et9/PjQO8sLd6YO89u7CLPsD/DLpD6abJIvlMNMN5DiCcrXhs7+Ki9r06aWqr22u5Ydfr8lWx+49VSxqDrTwb0x7Q1n0/buMWblqdRVpeprXpZp/HvLyV2AofStxrD8oWYYfAfgRw5ewKiP8/tLcO5ePZDRJpNTrAvNqBf0xmmAVJLcMksqUDka4UzZmYR0qCMN5V67yN1C3yCmGIfIEyrwyL49Dydx6e8UyTCaa3ub9eOW9s6bMy+pHtX3ppZe0/lXuSO/JOJUk0dMX1xB8jX649N6xHPf9tax+ju17rM02XcW6dajta3e0beDPPKhc1war69mUeem97LFJ/eC73uWFulj6WxBYhyHlino9PXfDxkEdY75LeTDPodqi/d/cI6e1+z2g7JpXrN9a/u895lQkOKy78YBFrjqd9Nmfc1GxW929ZD/2wqOi4q9fouM2+Pa7OPBF9110SkLiKJW8dBv7suAaL2y6ea41IZTzBey1rqxw4XHnnC99vdy5xnX7fliZhtZJeQxZ3L5XvqXlWg/3aDLskeDmZFoWvYfKvMr8aj6PYFyJg8ey1r8Rj+Tc+fLxGx7t4RiP99x+9RHprFz1/mWo5gV/TO+xnp+ffRTo0sPmng6ax4LVx8lNj5KX5qV78IF0YbOt+qizOY5u3qPGah3D3xD+jma/rJu5eqyWq+nxsTk/X4dl2eN6uWr+qKvkCYwTkpfjsDKDNtprin307PqMT0ibgvXvnbrMM5bVD4BM035Q9hffXz+s7MFtuuLeCYkD2myvVfWzflt432Ml4fIcqk3X/M4MywvuD7U400hh5WqOo9uafb7sG4f9TvDraG5r+M60N7FLD5t/X4fU4er+U61HlCmZyu9HXNYW4fW8tK+G/l40utes0e4t9lW4N03TatgWt1f9PgW17x4VAG48O1Dw9cSUM2fONFru8Xnt2jW5fPlyYzhpAKvYxJmU1v9FhMQhpEVgMUr1e0q/AAkhaxBy7/D+IoScJPBEhz77R8VkJHIAFxh73ERIHEIIIYQQQtYELldp3qPPfqv468jv5yJXGiazhsQh5IjAeruD1PmDznwuCSHLCbl3eH8RQu427n0fZs5HLnE2ljk3nnPnzi1U6EejkQyHw4Xh5ARQvgQrsQeLiHSQQdchQgghhJCuQ599QgghhBBCOgp99gkhhBBCCOko9NknhBBCCCGko9CyTwghhBBCSEehZZ+Q0wre4LczaHxLKCGEEEK6Qcct+6rGlMtc9kUOcm/fBodwU+PjupsneA21ycDImG672tZCewWTyqBcmgrL4+XevgnFK6bdslXkkOigom+XAdvpDxYsR5hqU5s6XxinrXQ6ievP/lYfyC3v84QQQrpJxy37vdnnbmSXmmx4iRUU+kXK/PlM5IJee5LpjUXiLryuMbC9WmGW18UoEv1f7vdsU0fDTLIkrN0xMFg1KAiJc+zEYymKsRxpz8lHWu5IrheF5qXb9VhyVcKrSmguo8FELmaZiZONpTeqxWkrnU4Ty9jVT7nV23Z5nyeEENJNOm7Z118xKIpQHIG/T04gx9leVtmB0qMfPehBuu/UIdISEx3gxBfLOi6JYh2XptWHUHjDX+TFUXrRREb+4KitdE417POEEHIa6b7Pfqkw2p+zs/oT5/YBXkAFVxG8yXbfuussdB2ZVN9+W3eZce4+o4Feq2Eu7h6ObRzYGP00kE/9iUL5UixPFlwPRaeCHqe1OOu6ujjXH1zrp1Uv1zJ5/DTKcmm8iVfGqiY2O19uGrfpacqy9vIwb6g8nJtNqeyUf6AUal66DyWoiiqL/tvo8HpMB6zNOJfkkifWdaTcPNeIgDgu/YHW16CS1wgtHU7pg6/Xwn1lMMurIjOwMpnwxZbvVPtyfypPv0xn7dqOY+mlN7zrcplMYhl6Jud8ovdWjUjbIs+9822lE0S1HVD2QaWfeS4ztm5df6zW56p0DLnvnqRbf4DjTZ5IeHItyCuszxNCCOkUeKmWv4Hbt283fiZJUn4uCt9a9iPdMnvQAMIT3XIb545+XhU9NoczxhpPz1/14vqMY73W7jtyPVfJW/f9OHe0zhONMwV519K/o/lCnrF+rkOZtlf2xnKtkMelAXnKfVzv9r14QWUPZxwLXgZXRMlm14eQablUXSzisc0jy7Soosfm0IF4q+RYFacsTxQXY81jSpYUUZSgBUqQN8o8t2mcKbgGMru8FshsGBexaJ72yGcce+W2ZNqGkZdQkDxKpv0girT8kEvLGFR/mpfUIraRTojMSYx2sAcWlH1apyDTutO0XH2gvkz7lYclIemUMmsafrRsjDactUtoPdcxbWgPCCGEnFq4Gk8oF67DFGb2p/7kTcQiV7JZXAcs5L7V222wfuc3bCTlQPdTL3wvsQEWhO8Oq+nvap4Xqt65weDa80vKtUoegDQgT2mF9/ctoWVfA1VidFRRSDb06uEIiJLrokqTPYicUfRIiIdjiWFtdURDGfZSuWENtMPM98f2tkz7g08Uy9jVy0Yyp5KWVvNq3apSKvFkNH0iESRPOpBLeSxZlklWZDLOxhKNNpgU2lI6K2XOR9ot6xZ583QkTb2+ijpWWYZinqYMtL4ylWlaZYHp3NBbIB7GFet6FA+1jDN/++B2rxHHvVIGQgghp5uO++yfMHZVUR4W89sV96MNhVi3CzpYmIaPbdjdoEV5VpadNJPL2l4oJ4jStSaqjjZ6vWqZmlxtcF3kXddWOkFEiSrbAcq15gVdOioHaPm8t11oOoQQQsgRQsu+445TEvQXu/S/H9jjloA1flc1g7qlDX7veyOzfwAZVDFxk1Kx/GRqwxy7F62l3NMsMEdgv5ZuG4TIE0JI2dekDZ/9VpkqmblWEfzlB+hJVVbEgY98mntn8pGMJknFL/14iCXupTJKqyWAb3naG8o6D1OggKPcs5RUKdb0K/p3PJRkkmrZ7XGOvHsy9DJqK52V2Kcpl2rzE1D2nf6sr5Z+9jgeZ+Zpg3ZxLPk5cJkHpnNR2za9VJ2bkes9NtC01una6QBzKjQdew3SwFOEeKNVupzv/wZPYAghhJw86LMPxsZXHf7m2MZaTudfXvrru/PWARYrFrpzpc+5bv710833tbfs6zk/DvLyqYTDF17D3f7U513zG3tyXYXvu73u6nI/3inwl59eb6+ZK5eyTB4/rExD66c81vPTfU/uVWVfg6P22YcvNdIvt6lftj2ey9f4b0/D4gSu8jWWx0Ha8JFP4Pvtx7HhQcA/3V4Lf25c2yRzqA/4GD7y0/B53/JQSl9/L53GJrM+8EaOeV930FY6IVTLXmsLv54b+obvJ780HUs5F8GPs6Hc9faqz7kIxpbvqO4tQgghx8sOFHz9Yp9y5syZRss9Pq9duyaXL19uDCeEbA6eVKSqY6nSSMhdBX1xkGLN/vo6/YQQQrYR+uwTQgiZUk6PSIZU9AkhpCPQZ5+QuwzW2R9gSkM5D4F+0uTugtV/jnqVK0IIIcfHnBvPuXPnFir0o9FIhsPhwnByAihfgtWwPGYF/SHH8qALlw8lhBBCCCFdgD77hBBCCCGEdBT67BNCCCGEENJR6LNPCCGEEEJIR6FlnxBCCCGEkI5Cyz4hhBBCCCEdpeOW/VRktIO1DUUOcm/fBgOsXlOexzawJ+8iQfIElKs1/Ffn51vyGv1tlJkQQgghpH06btnvzT53I7vUJPbLk4bdociw0G1sT9xlguQJKFdrzPK6GEWi/8v9nrcMd64DjZ1Soa5ufatdm/XjsQ0wTCnB2vLTuH0d4CizeA0bFqK35OlIBt71/cFIqnr8apkJIYQQQk4DHbfsW0UYCjHw97ea4yyXVZahNOtHD3q07jt1GkTDTIqi0A2v18dr9rE/ezFPPC5kXL6OM5WBVdrx4p4CJ+OxFJkOcBQXD58mPbuZiw3pQJX71Mszk6Gm29cBw0zhXy0zIYQQQshpoPs++6UibNW8s6r6uf21UAV1z7nWWJeZm54tueJ6o9vEudm4YxtvVTrrEFguZy13VvZNKJXl8o9+QIvWfSjR6xKPdTCQjoLdaUb9uutNroOFiSSZKvixkyDSdDMZ9xIZzYz/rclMCCGEELLNdNyyr8SFbtYyfD6b7a9Dqlok0inda7Dh7bOq4DtFvXS9wTlNG+E9fOJY1csrODbRVqazDm2UK5DS0m6t66VF3be0r0Usw0QkuVR3u6niBiiJiwTrP/LMb8gk0jQatPZYy5+ifi3tyUwIIYQQsr1037J/WGC1h6W+YpHXDYqlKp8zVAONJjPFfaLXYRAACzwITqddnEuMc6m520TD65Lov0tLzPtO5oSmeEIIIYSQQ9F9y34b7CaeNd7brhhf8ynn9XhflXqwr4r/hZo1OTSdThPJ8Hpp3pfR1L2pmSHcdXyFP7oovTxtdAOCVR/WfUIIIYQQMoOW/VWU1vnUWOB9JgORPavYT1Fl84JqsKmG+VZ9sFY67dGGz37rREMp9f2kVhcriWQ87kkCX/7UlSfXMvZlMElkuLau7y/RaU8RQgghhHQIWvanbjVY016VT+de4yvgcaYF98Kw5VGzRR7++nDXiRo0z5B0QuQ5YcyW3sTSmk6Bri69iUV4yoGHXTUH7jz1GqrEQxp2Sc4K8ViycezlqYq6DCXLhutPwNWBl2YnUXK9cR4AIYQQQsi2s/PMM88Udr/kzJkzCxX6a9euyeXLlxvDCdk2zOACS4ViyVBCCCGEkO5Byz45tUwmsOoPqegTQgghpLPQZ5+cWvBir5OyShEhhBBCyFFAyz4hhBBCCCEdhZZ9QgghhBBCOgot+4QQQgghhHQUWvYJIYQQQgjpKLTsE0IIIYQQ0lFo2SeEEEIIIaSjdNyy795A2xc5yL19GwwORvY8Nry19i5zquUJaK8WydOB9O3bfnf6A7Ev/K2Rqgj2bb0nIg4hhBBCSDgdt+z3Zp+7kW5uvzxp2B2KDAvdxvbEXeZUyxPQXm2Rj+TSYCJxVkhRmPX2U1W0qwp2ruObiVzMsjJOkY2lpwMeHZJ4HGccQgghhJD16Lhl3yqMUByBv09OIMfXXukold44E/dOrSgeyjDOJZ+Y45J0JGl0EVJN6UUTGfkjguOMQwghhBCyJt332S8VRmsxPquqlNtfi1Rkz7myWNeSm54SVnF10W2i8SvHNt6qdNoiVB7E21MZ3Pm9gYatKc9Ne70rh5+3rziHlj2wvdLBTunu0t9QGY5V0R/H9qAklXQSSeRll08qBSiJej3JvRHBccYhhBBCCFmXjlv2lbjQzWp157PZ/jqkqqgindKdBZums6tKrVNWS1cXnNO0Ed7DJ45VWb2CYxNtZTptESrP7kWVR887eWINT1WedUCdXtDrHM7tp66jh5a9jfZam1zHHiqLyuQs/YQQQgghXaD7lv3DAks1LOMVq7RuUF7zGzYSUC0xmsyU14leB8UXlmoQnE5brJAHHGi+qSfLXmIDWuYIyh6PZ772hyJPZdC/JHK9buknhBBCCNl+um/Zb4NdVYKnFmlvu6LKs895Pd5XxRbsq6J9oaY9hqbTFkvlgfKt2wXPsn+Uk3CPu+wBlKvxXEolVkW/aczQ5EYDd5vI8/U5zjiEEEIIIetCy/4qSmu4KsWwQvtMBqosW0V6iirTF1RhUyVyzoq+VjptsUSeAyiWqki6CbBY6nJdFx4H/OqnFnpN5yZ8/+0hOIKyH9ZnPx305VIay/VsXHovmXM7MvBFjIeSTFJJXRZ5KqO0J0N/ZHCccUpSGWBpzp36ykGEEEIIIfPsPPPMM4XdLzl37txChX40GqnyMVwYvpXAtaRpHXdYon2rMxTYfU8T7Gm4KmhzlJNeEabV2mSUXZVOqDyhLJOnIosqlfCPTzUu9q/Ap153g+RRrRMTfV28Hp4QWIUfTw7OW4U1tA4DcIp5lGQbuPJAYW5e1hLuQRV3Hrj5XNK4UKyjWMbXZ4ODKccZRwduO1rwzcpNCCGEkNPGnLJ/5syZRkUen9euXZPLly83hhNCjh4zyNGBQKEDAXuOEEIIIWQR9NknZIvACp1RMqSiTwghhJAg6LNPyBYxzFpYgYgQQgghpwZa9rcJ+N/7S1c2bp7vPCGEEEIIOdXQZ58QQgghhJCOQss+IYQQQgghHYU++4QQQgghhHQUWvYJIYQQQgjpKLTskzDwttuRbieFkyYPIYQQQsgJpOOW/dRboSb39m3wtlJZlYcK70rKgYHWVeq/M/c4+wbe2LsjOzt9GeW5t2+DLXk6kH4Zplt/MBfeFngxV5lHbcMbidcnl1T7YL+hPMeJK1NQGVbWs2svf2t443Lb7YW3I2tam7WD0la5lrBxPWv/aLwmJE6raH8d9G1+uh02Q9tmC9NZ2KahbZHq15KVt6FNQ+7lsPv98H1jLYL76vLvTEJIGB237Pdmn7uRbm6/PLm97A5FhoVuY3viENxUBfdmwDdoT/NqI7+2WEcexI3rr6E6zr4xy+tiFIn+L/d7/nL5+UguDSYSZ4UUhVlLP9Uf+aP5cYsksfm4bRyrXE7MQMrBSX8kk95Q9PK7SjxGGezBMrSe+6NIrruyX48lV2VjXqnBW4r9Oqq9sTg4nUCQnra/6Rsb0Fa5VhBcz1DW0J/Hmc0nk6GMJK3055A4bQIFUu8pzSVz/T+sMIuJx4vTWNmmq9oil5FefzGz9ZONpacD62qbhtzLoff74fpGMEF9NeA7kxASTMct+/rNAOUNyhzw98kp5zj7hv2xwo+WfvTwO6b7/m9tOkp1TKLKjhUhiocyjHPJJ+a4TaBcVd7LpT++o0msP6r2OJBIFZ1MFZDh3db012GimmR8sWyHkijWcWBafegTQlvplKhSdykRSa7LcE4BC6RVeVpAM07LPjzrG1Au0xueJh8Sp0XSwUAmSSaZKudGeTxKWmjTVAc+kdemSi+ayMizAITcy23d760R1FdXf2cSQsLpvs9+qcTZr4iz+rXh9n2cm4fb0gZ/8Jt6vOfi9MsfqgqwkJdhGu9Aw1zcPRyvEQf2jWk+2AIt73Xg6rPn8rN54EvW4VyB9vXcvhev7soS6jK0rH5c/UKG1MurXochBMmjZfLzqdSvR0jfUNxj8P4hzOzlj1X5Bz/Ympfu40fMgR/kqoFQf/wm+kNXE6ni6gOZVIHp1x63h8TxyW9oiP/jW5LKoD9Lo3Sx2KT8qlgMnBsCNjyyr5tuQ+IEA2voLK3+YITeMCOOpZfe8M7lMlHFZzhnwnRuBNgayh6czmry0SVJejpwqmhkHiH101a5glldz7Eqq1M581SVVCh0N8wxCImjrNufm0G6Wh+L6tiyOq9qudEWacOAfGWblixvi3wyn3Ck3xv5EgtA871cZXGcVX0j4Duhxb666juTELIGeKmWv4Hbt283fiZJUn4uCt9K9qOiGI/tgSXXciaxPVDGGifP7IEl1/D6dYUeJ1IUVxviT1kRZ6zp3rH7DuS135Qe0vLkrKDx/XTu1MrkQPkb066zJK+Q+inz9/K6o59XtR5yc7g+i+RBujV57mhc5DXXXmGoEo4XzxVRUivjkZFpVUVFXBM30/qL9KQvRTZOikhi1IY5DohTB3nVi5bEGr92LtO+GS+og6Y0DFmRVYRJClXxarKsjpNEpg3mtsh8JwHTTiqHJ3hZdo1TTT7Wc1pPGjeOtEyLKsZjHDe1x/J0QmTG/a7az7SsKMO8PCF12E652qxnlE2VM3u9ymvjVFgRJ6Q/B9Wz1lmZrpdfFNf7xaq8zH3pl1sjaF1ren4lBrXpPPW2KOWp31RIe0lii+/DGSFxwFzfCPpOOLq+SgjZnDllf5Eij08o+4vCtxYohnXluoJ+C12t/UA55q7VuI0KqM+SOKVCrEpp09Yow4q0oOBW0mmIe2hlP7B+Snlq8cYqU9vKPvJpUuobB2cnkFJ5aP4xbvOHfIpVgiqX4JyvNPlbXVmzLMwXP/Zzyljtxz8kTgCLlKrKeSh7tUhBdVZXsjZNpwYUumq5zVZJOqR+2ipXAEH13ATyWtB/ptTibFKnjZTpQrHUvu7Sw73mCbwyL9wXzQWv1GFQmzbRkM5ayj7kq9/LdULiOPy8cF1DmcrNb9Oj7KuEkI3puM/+FrKb2Mm3te3K0EYIIRXZ0+1C5qVxgibXkkZKF4JLqcTXaz62R8jCR/pRIvrbq6Ox2pat1w8H/VSioZuAia0+6S8kzmGZuUOVrhE136heb/25EW2lUy23mfyqepDn0hVWP23Jczhm9dxEmmo5tK8tIyTORsBlKFcJrw9n/vr4bHCVOSyr2zSMJpcdtHO0oJIP58ITwMrvhG3qq4ScLrrvs78KfOulI7PvmFh/99LPW7+qdvUL0vd3B/BDx6o48PtuizI9zavuy4689moyLuMA35r6ZeomnGJpyXoZfe64b1mNV84rWOQL38Qx1k8Iu6oowK+/Mj9B5duv1ekatOGzvwosB3gpjeV6pj+OttmQr7883kWt6vRS1Tc613aFj6wTLSSOj/ntr/30R0MZ9lK5pJlX0xnITn+Nfqi/3hOsoOGW0Mix7OEIQ9EZIXHWAPXo+wjn2pf9yYhQoJCnF0Pzjyu6B9IofdBtJNRfX+siVoXREZJOKwTWT1vlCmVVPQOXD0D8wSSR67VR7Ko46/bnxcQyTDSt0azmcv2enaDeLCvzii5KrL8NFR/0XBVcL81QgtoiHkoySWerE2FOQ9pbOO+g8V6usSjOSnlCvhNa7KvhaP3b+QNH+PVMyPZTd+MBi1x1OumzD/ZjLZzMtqt6XHftqcSJiqpLSNbgMoPNdzMJiWOpyzOuPfpuTEc3302mLm85D8Hu112P/PSQlx8ekhdYVj9woalfBxcedy7IjcgSJI+mh3kE0zDN38lXlzsAuCforXKEPvvjQn9SyzzqW/2Jfenr6oVH8HOuiRUSp2TFI/1xPZ2aj3P5mN8Ln8bz6qkqC3yA4cNr9l20kDircH7bsRY0iWduFHMyK/Az9vNryqNadsg0HykknWBqbhJ+u4fWT1vlWkZwPTtfdoTDfSapdWQQEkcJ7s8BwA/dpQP3k3oyq/OqlrucZ6DXuPQqLGlTENQWlTpaUu4V93LJWvd7szzVOPPt3mZfDcJ+Bx3ffCpCtpMdKPh6s0w5c+ZMo+Uen9euXZPLly83hhNCCCGEHBfm6SfeD9C26x8h3YI++4QQQgjZOkr3/2RIRZ+QFdBnnxBCCCFbxzAzbxsnhCyHln1y96m8KGvR5iZME0IIIYSQUOizTwghhBBCSEehZZ8QQgghhJCOQp99QgghhBBCOgot+4QQQgghhHQUWvYJIYQQQgjpKB237KfeSi75dqzqktrVZ24ue/f3FpYrH0m/fK05tsHcK9RLQuIQQgghhJBgOm7Z780+dyPd3H55cj1uqjK9VAFvCbz9+8KqdYNbLNdxEQ0lKwoplr3pMCQOIYQQQggJpuOWfasIQyEG/v5W09VyEUIIIYSQNum+z36pCFtL+Fkoyc4q7shF0r51hbHuMDh2Vnz3wqd9Pd6vxfPdZhBvzwvfG4hMGp4ETPT8NA3dUhzrNsdE0/Di1Z8qrCyXIR0Yt5j+qEGWVahspUtNf6Ai9q17jaY1mDnY5FoPlfQ9VxwvGiGEEEIIuQt03LKvwC0mtk4h57PZvmOiSvqBnrui8YbYrtsAy+7QnIdrzQW9voyDTfehcDt2L2raXnis8VNN2weuQLnmNU1Dt2iJRR7Wepfn+Vq8VeVqg3gsRZZIlE8kj65LARebLJNYByxOkY+0HrLEk8264oyPQBxCCCGEELIe3bfsr6Knyvyuaq5TK/olPamaal25XsXBDVXuPUv8XmIDPGD8vlDTgpH/cGwPPPbxZKC3vhw14jF84AvJhodIJ4pl7K7XwUmv+SECIYQQQgg5YXTfsr8SVWJ9i/wVWPZV+U/X8UHBYEG3iuW/QYFfB6R1Aa48tacDhBBCCCGEBELLPqzxNz3FHq45KM7ZBvP1HVW+S3LjkuN87Q9wXuO7SbJYDrPuwgMQXD8PNyL4+jctmwn3nGjdgUeVQ/nsBxL1epKnN8oHF6ibVOtltLnIAaQyKOcF9OUIi0UIIYQQsvXQsg/uqGbq3G8w8fbOcN595ryeO3CTaxEnFrlirffw67+gn84VaO+SasBw10G6niJfKu+qnU7z0g0Tf/Fkwfn/Y/CBc45c992k3uNY+tMHE3T7iYqQ6OeoVOYxeIC/Pj6nA4h4KIn+MxNzoYDH5RQCP86obwYdZv18p6zrpuk6QuKU6OAHY4kouS6H8U4ihBBCCOk6O88880xh90vOnDmzUKG/du2aXL58uTGckOPCDDhiGXM9fkIIIYSQpdCyT7aOyQRW/SEVfUIIIYSQFdBnn2wdw+yQqwsRQgghhJwSaNknhBBCCCGko9CyTwghhBBCSEehZZ8QQgghhJCOQss+IYQQQgghHYWWfUIIIYQQQjoKLft3g/IlWfbtu4QQQgghhBwRHbfsuzfj4i22ubdvgzvNFpY9H9m38Lq36DYQEocQQgghhJR03LLfm33uRrq5/fLk3aM3FhnqdqSc0LIvIxpKVhRSLHszbkgcQgghhBBS0nHLvlVyoewCf7/znOayE0IIIYQQ0H2f/VLJtVbus1CAncXbcrNvXVwGIgepyB72ddvDsY0DZxF33rnD3MxtmEOPU5eWbgh310xslIPRLHyZz/5NDZvmp2mmnrNK6e+v5yGfn58fx7Gq7JZ0YNxi+qN6mQJIB8alpj/QIvWte42mNZjJk2sZKul7rjheNEIIIYQQ0jIdt+wrcaGbdfg4n832HThXutSo1pmqMn4Bx3rNFT0HZRlAkUY6OF9uGmdX4/oK/94lkej6LA7CD1TBvqL7TsfeHdrwJS48UOARD9e5vCLIZrViuABdSTRtHUGctfld0TgHqvy7QYVjVdnbIB5LkSUS5RPJtfwFXGyyTGIdlDhFPtIyZIn3VMG64ozph0MIIYQQcqR037IfjGqeUJp7NVcXWOMnqrVWLPvWkp7fmMXB9f61UMrdYCEYTfOglg5AWsjDn1y7q/HO23hTn/zNiMfwgS8kG9byXYcolrG7Poqk1/wQgRBCCCGEHCPdt+y3wW5irey17crQRiCEEEIIIeTkQcv+KuBSs5vO3Ggc8J3fg0VfQRxY5SeeWw/mAqy9zGVs8vLTAcirlMMet8yhfPYDiXo9ydMbmNmg5JKOBjKqVWm7pDIo5wX05QiLRQghhBByojnlln3VAkv3HFWmoaxP3XRw7BFnWnA/XLc8qlr2r1zXc5dm4aLHdeV86gpUy88NGgDyqkzk1UFDroMA529fDjLgs6+buy7VePDXx+fcxOEjBhN0+4nkeaKfo1KZx+AB/vr4nA4g4qEk+s9MzIUCHpdF8uOM+mbQYdbPd8q6bpquIyROiQ7OMJaIkutyGO8kQgghhJBtZueZZ54p7H7JmTNnFir0165dk8uXLzeGkwb2VFGH8n5EFnmyGDPgiGXM9fgJIYQQcoqhz/5RMRmJHPSo6N8lJhNY9YdU9AkhhBByqqFlv03gpuP89LFaTrzJijyEEEIIIYS0Ay37bTJdGx8r9VDRJ4QQQgghdxeuxkMIIYQQQkhHoWWfEEIIIYSQjkLLPiGEEEIIIR2Fln1CCCGEEEI6Ci37hBBCCCGEdJSOW/bdW2r7Ige5t2+DTyRbKHM+sm/GdW+2bSAkDiGEEEIIaZWOW/Z7s8/dyC6FedJfdLWFMkdDyYpCimVvqw2JQwghhBBCWqXjln2rLENpBv7+iWUbZSaEEHKkFIXIr/yKSJbZE0fAlSsir/M6Im/1VvbECeNv/kZkZ0fkF37BHEP3+P7vN/tHye/8jt05gXz0R4u89muLvMM72BOkNV7mZUQefNAetMSv/ZrIG72RyK/+qj1xPHTfZ79Ulq21/CwUaWc5txyMrKtMbbuZ2wiWmwPzhtwyvC+Seo4oEw3D+T39TDXMpeHHKdHjaRrYNG49H7BKZks6MG4x/VFDGqtIB8alpj+Q0aBv3Ws0rcFM5lzlq6TvueJ40QghhBwVf/ZnIgP9bTlzRuRd31Xk2c8WebmXE/nMz7QRAvj2bxf5vu+zBwv4ru8S+aZvEvnv/13kK77CnjzhPPqoyAd/sMg//IM90QLf+712xwN1fvWqPTgmkN8Xf7E9WMA3fIPIjRsiX/M1IkliT5IgXvQi0+eX8d7vLfKSl9iDFvn937c7x0fHLftKXOhmHUfOZ7N9n9549ubbC1Cu9aY571nTocDvDr035Go6kWq7TpnH9Vf0moOJVtB1+wZdjXOgX9B6agriQx6XF9LZ1cFGXeEPkfmwxGMpskSifCJ5dF0KuNhkmcQ6cHGKfKTyZYlXD9YVZ0w/HEIIOXp+7/f096Un8uIXG6s+lFpY+H/4h0UeecRGCuCpp0Q+93PtwQL+8i9F3vItRT7sw0T+03+yJ084X/RFIr/92yIv//L2xCFBff/X/yryu79rT9xF0Gb/83/agwX8xV+YpzDQEd7nfexJEsRP/ITIh3+4PVjC//k/dme76b5lfxVQ4p0yDaU+1/0rem6Kar4Heq7nKb0ACj6eCvgTZ3c1nhskTP3tLYg70bQqln3dMADIdWS+AfEYPvCFZMOabOsQxTJ210dR+btCCCHkBPCpnypy771GMYEi7njP9zRKvw+eAOztiXzGZ4h8y7fYk8pzniPyoz9qLJRf93Ui7/u+NsDjAz/QDCDwOw+L8hNPmPNf+qUi//f/mvT8wQIGBt/6rSIPPSTytV9rrnNgYPIlX2L2v+3bjDw/+7Pm+Ld+S+RzPkfkK79S5O/+zpxbxE/9lFHm8aTBXV/nR37EWLZ9FtUD+OqvFvn5nxe5dUvkC75A5Ku+ama5/eVfNmUBuO7rv17kn//ZHNdx5RurHvDJn2zqwuexx0w5kSbygeX9j/7IBipwC0Ld+nzap5l4AHKgzaFoQo73ez9z3gdPNf7X/5q12Q/+oDmPdP/t30SuXRMZeroMBg/f/M0in/RJJk3fYo06c2VC2R9+WOQXf9EcY5CJp0iou3/5F3OuCVz/B38gcv26KQv6iOM7v9P0FdRLnRe+0DxJ+sIvFPmTPxH5xm809Qr+8R9FvuzLzL7j1399vu6eftrUAeSutwXAExC446A/om6+4ztEHn/chKFcqI9FoJ5u3jTtiPsHMtb5gR8Q+bzPM/31+c+3Jz2+53tMOMrms78/XxaAMrv6b4nuW/aDyPXLQRV9gfXeV/RbBk8MplZ9bzvKPAkhhGwff/3XRnGAcrYKKIZv9mYif/zHRkH92I8V+W//zYRBsfzzPzdKDpTDV3kVc94HCheuhQIOpTG3T5vhGnLpklGgoMz97/9t3IHgc4zBwf/3/5nzUWQUPQCrOAYG7/RORgn60z8VOX/eKMVv/uZG0cZTiWVPD6Dsvsd7GAUZ+gWuh9JZB2XzFdpl9QB+6IeM4vrO72wUOAwK3CAK1zgFFeVE+N/+rTn2QV2ifO/1XkZR/H//T+RjPkbk0z/dRlAgBwYrb//2RmHFgOSt31rkN37DhGPehVOuHf/u380UdgxCbt82SviP/ZjIq72aOe/z5V9uFHjUEco1mYj80z+ZQcb7v79RmKFAQ14o22gztP8rvqLIaGTaDE8GAJ6OoEx4SoCBIdryHd/RKO1v93ZG8cQ1cGtZBPoI5nygz2DQgjpAfSJNzLF4rdcyCj/SdfzkT4q8zdsYuSD/67++UX6dPzvcXT77s0WeecYcA/RVXzmHvHCzQj9zbfFRH2UDFbQ18u+rjoc+CwUbT3DQ3gB5YwC4CMS7cMHULQYIkBcyANxT6JsYCCAc9YiBme8G91mfJfKhH2rqAm2CgbUDdYL2Qhs7cM+jzG/6pvZESzzzzDOFv92+fbsATZ9JkiwM316yorgqRbGvn448Lorx2B4o40jPeeGgHudOouno5jPWdHO7D5COfw1AOvXrAhnHoiMFKaKkJlsoWVJEUTVvpBn7Io7jQjSOySErxklc6FdENc6UcRFLrH+XsSoOwlGuqNi0WIQQsvX80i/Bdl8Uv/qr9oTy4INF8UmfVBSf/MlF8fmfb08qb/7mRfHII/ZA+R//w1z7x39sjnHd676u2V8E0n3N17QHlpd92aI4f94eWN7xHYviEz/RHlje+I2L4hM+wey/4AUm7y/5EnMMIB/SzuyX+k/9lInzO79jjn3+8i+L4mVeRn8Xr9oTygtfWBT/9m9F8ZKXmOtu3TLnv/Iri+KlXsrsg1X1cOFCoT96RfGHf2iOf+EXTPj+vjlGPjj+oz8yxw7I89hjZv/P/szEuXzZHIPP+IyieK3XsgfKB36gqZM//VN7Qnm915u1WZoWxSu9ktl3fPZnG/kcH/7hRfHsZ9uDBXzER5h8HP/4j0a2931fe8LyZm9WFJ/5mfZA+Zd/KYrXfu2ieN7zzPFP/IS57mu+xhyD1399I7OrqyefNHFUT2wEcd/kTYriRS+yJ5QP+7Ci+JAPsQcK2h9pXL9uju+/vyguXjT74Pu+z4SjPoFrj6efNsfg27+9KF7jNeyB0u8XxVd/tT1QvvEbZ9dgw/5kYgM9vuEbTNgynvOconjTN52V+Z//uSjOnSuK0cgco6/t7pq+6fi8zyuKV391s4/++nIvV71fPvVTTb6/8ivm+N3erVoHH/3RRfHBH2wP2oOW/ZuXjCvOvo76fNcanxj+9zqqnbrfWHcf5/6DCbp78NnXbU/jgVTjwV8fn84nH+mc1bSn6eiWq+p8Nyz7mKDbTyTPE/0c4dlGOeEX/vr4nE7KjYeS6D8zMbcvIy03iu3HGfXNpF2zfn4qAzuJF+k6QuKUaN2j9qPkuhzGO4kQQrYa5zIB1cABFxlYfGHJhVUaYKLhb/6msYLC2gsXAFguAayl4KX0pz7Erx0Tf+vAlciBOQMveMG8VR5Wbqwy4nP5st1RYCG/7z5jTQZv+7bm86DhBTJwk0DZ4arkgFVWfy+WElIPAL7tr/d6Zh9WZpS5SY5VfMIn2B0F1u+/+it7YHmXdzEuWA5YhJetwOK3M8BKMK/wCvZgCU1t9rzn2R0FZYP7lN9mL/3Spn7hEuPjrzyDtobV2tXVsjZzfOInirzqq9oDBU9xYNHGkxy0B/otcO3xS79knuA4PuiDjLU7FNwLeEqCp0muzf/wD00Ynk5hlSJY/dGHYdXfBNTBuXNmH22CpzWuHXEvwOrv901Y9iEX+iH6H57s4KmIA3NCfO6/v+qKhickFy/ag/agzz4mwDa51tQnxZ4fe+F6jR8O/30X5hR3fyKuP9m3ko5uqkxvyqF89jFBV68tt2yIBT+n6VXTjLS43vlxLMNavn54ZdN0HSFxQFoOtDQPavqEkNPMm7yJ+YQC6/ju7zb+9FiBxgHFAkCBgvIBVxG4bnzcx81cVKDor1IcMSBoUhx9Rca5fcB9xwfHGIgsAq4USN/h0oQbRB2nTL7yK5vPUELqAfhygJd92WY51gH19q//ag8s+vtW4T/8h+Uru9RlCGkzKJ9H1WZYyjO0zRz1uoXeiDaAmwwGFmgbuNlg4AfgplTHl70Jv15dm0OxR5vD/QqDC7/NMd8D+x/wAca1zLlqLaq7OsvaEXVb76fuGG54KPsq4CYH4L4ENy60+XEo+02KvK/QLwonpA3wXRAlQ754ixByuoGFFJNrm5bBhKLilBBneYUvOlZvwQRJTEDEZMDXfE0TBn9wWHOXAaV3lfLj8nIWcweUmjd4A3uwgFX5O1weTRMhlxFSD6BJDleXqNdNWTVggKX3dV/X7EOhw8RnfwJw/Xq02SrFd502q68wBEUVPvLLqCvv64K8obhCiYW/OuYOYJKwe2qD+SP1AYdfZjfY8eP4T5Bc2eD3jjbHQNi1udVZ5d//e6NIo66xYR4DwGBqk1Wc/Hb8j/9x5vvvwNwB8IZvOJtr4QZcAPMsfJ71LKPwYx4C5k2gvg7TDxcw15JNiryv0C8KJ6QN8ATgUKsLEUJIV8A6626C68/8jFl1BBYRTB51QCnEOvxwK3EuDH//99WVaKB0wPUAiomLUweKI7ZVYGlOKG0//dNGQYWChWNMwF3GKsXVgSXh4CoBpQ1WWLiTYDLrskmUIKQeVgGrLYCyuMwK30TdAgx3DExUhRsHJjVjMirqDjhlEYov6hCr1GCFIh/XZhhILWszvH9hGa/0SuZJEFaigfUbLlKoW7eS0DJC22wRcFHB0yh/cjXqAi5XAHJh1SDIBSs/LPL+ZNx77jHKMM4DTP71V/RxZfv4j58NDjHJHPUK8Il+CqBA7+7OBhCoX6x2hIHIMgs8+gJW4cFAAZ4HmOCLCbcAijnuS6y2g3BMysbkcriwYbCOJwkoA86h3uFyBFejOqgn9HWE+0/tWmQHk3Ltfsm5c+cWKvSj0UiGw+HC8GPFzVonhBBCThL+ihuHBUoMfI6xooj+1pbAhxir9GCpQQBFCUtNQhmBnzhWaIEMTz5pwmFNxAu5MHCADzN8uOtg2UCsKuIrrVD2kIZfHrhOwLcbShviwm0B/tLORx8rt8AXHtZYWFUBVsSBsgOlCMCqjeswaIFcdWC9/ciPnK16gsEOLLewNEP5gy84FCmsWoM6cC40q+rh3d7NuKf4yx2ijBiwOHeKD/mQ2bKMWF0F7lSIAyUTPulQDFH/cK/Cyj8AvujIx9Xdc59r4kGxhBsJFHLUr/8iNNQ1BnMIg5sTyvNzP2eUR4CVhuAPjvpGfbq3BvsgPQwSXPmxIgws/VA63/3dzTmA9kebOZ95uPBgIOJWrcFABNZ2KKzOqgylEwoxlF0AZRRPSNA2TW9YRh1h+UusyOMDGXEeVnwo8ignllNFW0DZxhwK+O4DvA0YgyS0oXuPBJbNxKpAKBueHqGffcqnzOr6aR0AIz76IxRrDGghJ+ofij7KiEEf3MOQF+I5hR/16pa4rA/WAPzv8fQD8mEZVQyu0Gb+ykvo+ziHeSnon+g//su6sDwsBiPom5ALAwcMSjEAwjwOBwYiYJP5IwHMKftntOM1KfL4vKYjsMta0U3hxw6VfUIIISeRNpV9HyjQsBS/xmvYEw04JdMp2g4oclD2l7nbwCqKpRlDgYXWWcOPAvg9Q1HDRMtFYBDR5PawqB5CgGKGenDXwsqPQUYoUPZxPd7GCzmWTTqFwrtIRjzVgCzL2gzLTeKpRghQaJFf0/KrRw1cWZB/U11g8Id2hi6JQYOv7Dsw2FjW7wHqGvVebyucx7mmvo3BAdxxVoF2cBN1m8Cg7NVf3R40gHvvdV7H7OMerrtfYWlUTHRvehdBC9BnnxBCCNkGoKStUnigTDUpj7Agr/KrX0fRB0ep6AO4QixT9MEi/+ZF9RAClDr/2nUUfYdTqFetLrNMRviUr2qzUEUfQJG+G4o+gFV7UV3AHcfqmAv96Ff1e4D0m9oK5xf17RBFHyxT9MEyRR84RR/UFX084cJcADwVOCLos08IIYSQowfWWfihY6nBuo86IQBzNlbNQ+gacDuDexlcnI4I+uwTQgghbXJUbjwnGbjTwCcbcwywYR+uC24fn3A58YGbyjqWaULIRtBnv22eekTkln4+YCdObQPbKDMhhJxUuqjsw696mSKPz1VgFRq3wT0HL3/a1NWGEBJMxy37qsE+jkke94g8RxXZ5z9k9x8TWccF7yWP67VP2IP7livFXVf2y7ga+V6N616M0VY9B3FLHnnuI/r3Hrn/0Yfl6YcesvuPyQPeywoR7/EHH5cnnn5aRblP7n/44Vp4jVuPyHMf0XLc97A8+bAr13JuPfJcMZc8KYGXTPNpvmZNmReheTyoeWgqi9NZN47W8X0PP7a4nAvL5drL5z55+MmHcSfNs7R+gKb3oKZnhFKxtO1VrqnsS2Req73WKfsheUrzesTldZh2d6yswxBW1HMwT6k4Wj6XkHd/ufaos4ncT93S++bxJ6y8m7Z76HdLANuo7MPFxlfeocy7fWyY2LkMWOh9ZR4+zr5ij09CyF2h4z77qnCW6Df1s7C5/fJkOM96QBXhJ8OUYSjBx6HoZw/qVns5w6asI3NFyXe0VM9BzPK67957y5W2sO+/lRwKxuOPPCX3PfaYPPnkk/LkYw/LvU/UFc4aayj5jrWVkqceVwXyKStznQ1kbgJ5PH6PKtOaBjYV8OmHaumExNGjRyDPw4+aOE8+JvfL43KrqcstLReAcm/zKrcFiv7KdKC4PSJPoa1cWlpfM0Vsuczh7bVG2Q+LlrnM61FTnkcfuEduPfSgPL5pXgF1GMLyeg4FyvNDWnMPyKO2fNV7DIq0PW+3h++7Z33ZdXDz0ONPl+2LNB7VPJ56ZFaH4e3uMl723XJI/uqvzFraxw1cbP7gD8wa4d/+7Wa9cixtieUW8fIfTIrEBEosRYi3w2M1FKwKguUu8VZSKPpYhvEt3kLkP/9ns/Qhlm6ErzGWEMRygXDJwVKVP/qjZu30z/s8sx45lpWkok/IXaXjq/FYhfNZ9kvc3yctcpz1bH+E9Q9+g8sfYt2v5HbrCbl1z31luOOee1SZ3liDagMo80+I3L/AatuWzE8/rdqNl8699+nhrfJhzJSQOHpw674H5IH7ZhLdq5V8a07jXVGuYMLTuVflbSRY5hW0lU4At564pePnmSJ9b5nv02UTrU9bbWFYWM+BlAOG+x+Vx1TTblKYYX2vyKkDlcef0r64ruwYlOjg2F23eR0GfLccBkxKfdM3NZ9tA2Ucg4gf/mGjpH/2Z4s88IBR3lEoTHiEUo+1zaHkj0ZG6cf66hgEwJce1nco5njBz2d9llHYobhjrXusIQ6F/jd+Q+QHfsAo+lD48VIhrBWOgQAh5MTS/dV4SsXT/gpAAXX7PnBNefy5s+0WjuGWsgZw9Zmmseha1aae7+XzeM067+R4vn7e0jAXz9fCXD4v1F+yFz40i4O01nzhX5jMKp8vC2T7GxvkE1LPCh6pP/e5z5UHD6F4lz/CVnu4Bz9kuu/n9lT9ddTKvRrn6af9X38oRg+WspQbXBbql8Hq+mA1zuONCl81rQcfeRy1VuEprd8n7n1YHlughYXJfEvlsbKU24PySL0eocRrf5mdfUrTvk/u9/W2wDj33VLly5X3qVvyuCqmt/y+qKwqlwEW3iUyKyvTgWuKXg93DNeHsFX6UaDMKO/S9gpKJ6AtAuLMuwdpPk/VrdsheYW0RUA6IfUcdF+gvu5TfXNZv6jyFOoXfdMeG8LKXkHb69atpicEq+/TVd8tGwFrPqzl2LAP95h1gTsNXv6Dlz9hFZuH9Lv/Az5A5C3f0iyliA0vy8I5hOEtnYiLa3AtlqfEEo7v8R4iH/ERIsOheaMqXuCEdcaxBj++a/BSJ7xQCi+dwpto8RKift8sjUgI2Vq4Gg/cYV7yQPkjM0V/zErnzznXFv0xely3pS4vS+JgENHX81CMHVDw/+Z+PW9/Usr5AXr9szUezr1Ef45u6Zd3/0n94TFRSiC32DiHZpHMmjeUe8hsfwDlJRoP5XiWnvPrLBDnP3sPLH5rKALr8JQOfB7RuqmkDyVGlQ/jRqA/+qqgoLxT660qCI88ogq/KkszVwMowd5jfCg5Dz0t93luKKY88GeepQX/YdUj5OHHHjBNhrw1O+enjmtu3Vd1LVgtszaRynfv/TMLJoC/9xNP3S8Pe9dB6XsEypd24Xvv0fNazqpCGRYH+ft+/Q8/cE+pBzym5SoJKFcTt1ThunWfp+Sukc7KPFbIHNReYEU6IW0R2l4zTL98+oHqACAoHT1eVYfryLO8nlffFziHW+yxB56e1uM992k+D3t1XONxvOGzZu1fqw7LOtAvF7gHIR1P9uB2bwvns//d323efgsl34G3orq3pAK42Di/eN9f3j9GnGVAGXf+8djq/vKr1qonhHQarsbzfP2BUcWjooAvZJFS7LMgTmWSb41nqbL/HKtAIR5+r9wxuPVc/f26C8o+ZMk0/bpSjwHK03puA2X/OFipOEMReeLe0r2ggh8HQIl5xE36c1Qnly5SivzzkOehJyqJlPi+xEEyP/SEUT7r3HO/POkp4A/qNX7Z5pSokDhNQJ7H75nmFVKuRmr1vE46y5XQBmoyh7RXI346IW0R2l6OcrD5uNxTb4PAdFbW4ZryLK0PTWvVfWHq6yk9xoRjVaZRJpRRvwIfbkoU8mGwonJMi79uHToa6nLjdt+Ut3or81p/uNXUweozsJg7BR8TY1eBFwq5Sa7Y8IIe/5gr2hBClsA36B4nUOrLib61zVfsyaGZd3/R3/+nMGlx7rn+ElRheOiW3POAm6SJzVNmVjJzI7j3ATvp1m5QLOqKbJDMquA86qUz3Tylp3QHqpXz3nur/sshcZqAG8s93gAvpFwhtJVOE3WZF9Pk9jFjLp2AtgiKo8BSDev3nA+7IyCdoDoMlGc5gfeF1tV92p/ucYo+KBV+7XsNNLvwKJvIfC+exNwrTzwBq8kqlrf7RvzUTxmXmiZFH8C/3rnYOEUfCjss/pjQiomt3/zNIj/xE2bCKya+/sVfmImwmBD7FV8hgsE5JspiwiwVfULICvgGXfy63Hrc7DueghVev0zX9YFfBlb0eZb++OBHzQdW8ufX8g/lJU470x9QWPof17Ta5Fn6Ew7rvv8DDTeeLORHtBlY0kp/2VV+t4fhvvvlfvjtuix0/4lb9878hzEhVdu44mcMayCebji0zE9p5yhdXOzxrUceLx+61IFbip8WXGTWnmi4UuYHVBGExdL3tUe0R+S5D876DwYN0No9afTffRWFJiQO8JsdZXxkofvJYnBd6Rtt04LrRKnYBing6xMic0h7LU0npC0C26tM+5Yqp94EU9wjepkhMJ2VtJWOVkzYfXFfOc8TE5AdUOifmmr+VYyuXwsLrkP433tx7L1cH9yHtHsYmr6dPzD3NYbJq5ggu2qZSkxwhX88/OWLwnzCtee7vkvki75I5GM+xvjXv8mb8KVThJBDQ599kKmS/ELv5wpK7n0P66c9fv5zmxV/3/0mJA6o53Wvht9nw6H4u8GAuw4uPO4H5dmPem47Gg/+9C5PpNPHgMIehxAks2auP67ylB1YoG4gAspQL1sATpE5Sp/9EvzgP/KIcTWAz/XDM2XKgMl6j6hCbcuFOFq0R6Cc3GNcBEq/dj02MbB2dxlBax5LBuoPupYFnhNYovEerSOX1kLf5JpbwpzldaXMWn9QUKYyNecFZQgKkpWmcZ3wlXEqsmjZtY8+7DtB+6woV1Vm1CPmB8zVztJ0glx9Vsj8+IOB7RVY9pC2WB5H8ynXdZ9neR0251WyVlvMpxNSz6vuC78fmcGMTQ9Wer2vGmXWr5hFvvPr17PKdL/2MStIcLuHomlgbsDC77AXv9hs3/EdZtnKJl7wAvN6fEIIOQbos08IIYQEYgwWOhhf5tbnJuhiOczv+R4zUReTbR2Y7Y1HH4QQcgzQZ58QQggJBC5e96iivlDR98GylVjG8umnjQ8+lr3Eyjm+4k8IIUcMffYJIYSQQB547MnNXBDhg4+17fFyKkyuJYSQY4I++11j2RKfU+4ReU7ocqOEEELWwrnxEELICYA++4QQQkibUNknhJwg6LNPCCGEEEJIR9leyz4hhBBCCCFkKbTsE0IIIYQQ0lG4Gs9JZTIQGelGCCGEEELIhnTcsp+qwryjW1/kIPf2bTDZQrawTfOR9Hd2ZKfcBijBPCFxCCGEEELWpOOW/d7sczfSze2XJ082vbHIUDdSYwvbNBpKVhRSFGOJ7ak5QuIQQgghhKxJxy37VhmEUgj8fbKlsE0JIYQQQkLpvs9+qQxaa/BZKIrOMuzIRdK+dQexLiE4vqnnp6Qiey7cxqmEKzddGgORAy/+Ho41/GBkw+02ce4o7tgkU423xGe/9On3rk9x7McPkHkVLg+Uwa+jtOZkApn3vHDEn9i8/DRKeTQeyu5kq6QVKPPKNjWkA+MW0x+tWW6g9Vm61PQHWq19616jaQ1m8uYqXyV9zxXHi0YIIYQQcvfA0pv+Bm7fvt34mSRJ+bkofCvJ46K4quW6Y4+LrCjGUVHs66djrHGm4RZc58cpGWsliaan1+f1MKDnrup1U3CscetplyAtP67Hvl4z1nCfXMvgxw+WeQV3kK5XH3cgs5YxN4cGPefnVV7jyeLSQJ2U+7je7R+BzJZxLFhWtoiSza4vsqSIJCpid32WaTGkiL2qz7Rc9fSRrx9nxriIJUbLLiEkDiGEEEJIGFyNpzcU2fUtypf0ZCxy3rqGwGrtW6LdBot0fsPEqaDXXsk03SbXEj0XTWbW6ommvYv8zWEwuPxCzbMb5XA+/mvLvIJdrz6mfvIeB5pm6uWzl9gAD6SBOimt8P6+pW2ZFVW4dVRRSDa0sm9CFMvYXR9F0mt+iEAIIYQQciLpuM9+CKrIxaqcDwuzXbmu51TB9N1LdlV5deH+dkUV7HU5r9fsq2IL9lXxryvtbdGmzEuBgq7bBa8ON51YfGwyE0IIIYScDmjZh0X6pq/Y64binLUm3NLyXlP+AXzR96zSvhaq3F9QJR8+9ptY9QEMzWktbzwlgN885ge0LvMSDjDZQOvKTZLFcph12UI4ApkP5bMfSNTrSZ7eKB+24JFLOhrIqFaEdkllUM4L6MsRFosQQgghHWEHfvp2v+TcuXMLFfrRaCTD4XBh+FYCZR8KOFxIHFj2Mq5Z3G+q0rnvx0k0jrM4q9blFO0KmkaTlbuc0IrrterrbiFwY2laMx5Wb9/CXZcHbjKx5uUPHpbKHAAUbad8u/xRX24yMaz5cO+p5IMnJSpLqvGxf0EL6MLKNPS4nEiMutGt3Nd4cH2C7IeV2QPKPibKRkm2visPJui6WbZRIlk21OqYTbydpZnLqN+XxCrekbZBLANJvHxH/Z1peAVNt9B0QUicEivXRmUihBBCyKljTtk/c+ZMoyKPz2vXrsnly5cbwwkhR48ZwMQy5nr8hBBCCAmAPvuEbBGTCYz9Qyr6hBBCCAmCPvuEbBHD7JCrCxFCCCHkVEHL/mkEcwb85S0bt6Y5CIQQQgghZJugzz4hhBBCCCEdhZZ9QgghhBBCOgp99gkhhBBCCOkotOwTQgghhBDSUWjZvxvgZVXly6QIIYQQQgg5Ojpu2U+9lWVyrjJDZlRWJDrMwGsL+1g+kv7OjuyU2wAlmCckDiGEEEJOPB237Pdmn7uRbm6/PHn36I1FhrqdNm6qEnxTFeKTwO5Q26BooR1OaB9bRjSUrCikWPYW3pA4hBBCCDnxdNyyb5UvKGHA3yekFdjHCCGEEHJy6b7Pfql8WevrWShmzhLrSEX2nDuHdcHwrc+lf72e39PPVMNcvNRzbKi/pGriXDvccVO8Ba4jsH678ANPNuTvu4bc1OOp3HqNL88qmf3wMg2NA5lden5abdbPvl6378XZxN2ljfoJZkXZHSv7mCEdGLeY/miDpxvpwLjU9Ada9L51r9G0BrNy5SpfJX3PFceLRgghhJDTBF6q5W/g9u3bjZ9JkpSfi8K3knFcFHfsviPXc/uZPVDuaLmTaHbujn5eFY1nDg04p9dNwbFeU0+7ZKzp+XHrIFzTx/W5J4dj3HAeMo/1OscqmV040in3Eeb2Pdlaqx9l34tzKFqonylL2iKk7GswjgUvsCuiZMM6yJIikqiI3fVZptUuRewVK9N2qKePfP04M8ZFLDFqYAkhcQghhBByUjndq/HA4uxbtN0GK3B+w0ay7MYi552rBqy3ZneGnosmM8vvRNOGX/hcvFA0vyuZSM/mOUVlO9Cw+nnMA0B5fOv2KpkRjnRKS7S/b2m1ftpG8zts/SxjnbIHogq3jlAKyYZ1mdcgimXsro8i6TU/RCCEEEIIKem4z34Au4mdqFnbrqiivi7n9Zp9VRLBvir+F1Tp3HbarJ9t4zSXnRBCCCGd4HRb9kvLe2qstT7wQ9+zSvtaqHJ/QZX8VK8/lFV/GZoHZJ7U/L4hc9t5tl4/yh03gUHlL/3vNa1Waal+jqDsh/LZDyTq9SRPb6B2lVxSrd9RrQjtksqgnBfQlyMsFiGEEEI2ZAd++na/5Ny5cwsV+tFoJMPhcGH41oLJnPueRtRLVGdUZQ9AuXMKHyy9sOqmO3renJIL2cx9BcD9Yw/Xa7XWXSzgEtLkRuLShYq21zRpVRXY+hKRFZk1/55eH9snCatkhpsN1oQv9xGugpZKN/LRrdzXOHCTgXLcWv1oPH8iLdK5oPGDBygt1Q9Y2RaWZWVfEyj7mCgbJdn6rjyYoOtm2UaJZNlQq3428XaWZi6jfl8S27xRjKUzB5J4+Y76O9PwCppuoemCkDglVq6NykQIIYSQI2dO2T9z5kyjIo/Pa9euyeXLlxvDCSGnDzOAiWXM9fgJIYSQEwl99gkhGzOZwNg/pKJPCCGEnFBOt88+IeRQDLNDri5ECCGEkCOFln1y98E8B395y8atyVefEEIIIYQsgz77hBBCCCGEdBRa9gkhhBBCCOko9NknhBBCCCGko9CyTwghhBBCSEehZf+kgpdVtf522UNw0uQhhBBCCCEr6bhlP/VWcsm9fRtMjoZyYKB17d6sW7KFbZGPpL+zIzvlNkAJ5gmJQwghhBByl+i4Zb83+9yNdHP75cmTTW8sMtTtpLCOPIgb11+ztIVtEQ0lKwoplr0dNiQOIYQQQshdouOWfatUQrkE/j45ZtgWhBBCCCHHTfd99kul0lqVz0LhdBZmRy6S9q1biXUtwfFNPT8lFdlz4TZOJVy56dIYiBx48fdwrOH1F0dNnFuLOzbJVOMt8ZF3rjJuS3Hsxw+QOYQgeWp16MpcZ2VbGNKBcYvpjzaQV+uhdKnpD1TcvnWv0bQGMwebXOuikr7niuNFI4QQQgjZfvBSLX8Dt2/fbvxMkqT8XBS+leRxUVzVct2xx0VWFOOoKPb10zHWONNwC67z45SMtZJE09Pr83oY0HNX9bopONa49bRLkJYf12NfrxlruE+uZfDjB8scyiJ5bBn88t7RuFfh2VKTMZBxLHjRWxElG8qaJUUkURG767OsSCIpYk+cLInm0ke+fpwZ4yKWGDWwhJA4hBBCCCHHC1fj6Q1Fdn0r+CU9GYucty4msGzDCl+xkuuGyaf5DROngl57JdN0m1xU9Fw0mVnYJ5r2LvI3h8Hg8gs1D3GUw/nUry3zITjQ9FAGv7y7KltdvjVQhVtHCoVkw6Y6DCSKZeyujyLpNT9EIIQQQgjpNB332Q9BFcJYlfNhYbYr1/WcKsX+SjK7ySzc366okrsu5/WafVXGwb4q/odQipfSpsyEEEIIIWQroWU/3RG56Sv2uqE4Z60puLS815R/AJ/5Pau0rwWs3qrkw8d+E6s+gME6reWNpwR7feMr37rMS9i9aJ8keP71mLOwX8t7DQ7lsx9I1OtJnt4oH5LgUUk6Gshoc5EDSGVQzgvoyxEWixBCCCGkwg789O1+yblz5xYq9KPRSIbD4cLwrQTKPhRwuL04mpaOvKmKsq/A9hKN46zkqr05RbuCptG0XCWU4z1cr1Vfdy+B603j5FaN71vl6/LAdSbWvPzBw1KZAwmSR8ufXpop/JAFAxLkXZc7ACj7mCgbJdn6rjyYoOtm2UaJZNlQxzizibezNHMZ9fuSWJEjrbtYBpJ4+Y76O9PwCppuoemCkDglVq6NykQIIYQQsiFzyv6ZM2caFXl8Xrt2TS5fvtwYTghZjBnAxDLmevyEEEIIOUbos0/IMTCZwNg/pKJPCCGEkGOFPvuEHAPD7JCrCxFCCCGEbAAt+6eRyouyFm1NcxAIIYQQQsg2QZ99QgghhBBCOgot+4QQQgghhHQU+uwTQgghhBDSUWjZJ4QQQgghpKPQsk8IIYQQQkhH6bhlP/VWlsmPd5WZycDkl9pXt24td7EONyUfSX9nR3bKbYASzBMShxBCCCFky+m4Zb83+9yNdHP75cmjpTcWibvwCqW7WIebEg0lKwoplr2tNiQOIYQQQsiW03HLvlVOoaQCf58EwjokhBBCCNlWuu+zXyqn1jp9Foqrs1Qre3BJ0W2SzvZL15uRjeBxc+DF6Te45+R6Ts+7NPY0/rquLs71B9f6adXzwkux9mp5TTR/4KdRyqvx/PJV0qqVG3Fv2nR8ltWhRzowbjH9UUMaq0gHxqWmP5DRoG/dazStwUzeXOWrpO+54njRCCGEEEKIpeOWfSUuZu4057Oqa80VDYPeuq+aYqxhQz3GdkHP7XkKPxTv3aGJX8bRuJFeM1WcVfncu6Tnrs/SQD75mhooXH+uJKrMT7SibVpXNK8DKPM2Dti9WJU3VgXcDVD8NC5onCsqhyrSZl/PQ/F3QH7Uj0sH5drVdOoK/7I6bIt4LEWWSJRPJNd6LOBik2US6+DFKfKRypcl3lMF64ozPgJxCCGEEEK6QPct+yFcUAXZd02BYr+rGmZpmcenapM9LxxAqYaFHXEObphr/Di7es2FDbVQXHvepgW5YFn3QX6pZ5HfUyW+DtKAPKUV3t+3QPb6Ew1sGADkmv4GxGP4wBeSDb16WJcolrG7Poqk1/wQgRBCCCGEBNB9y/7G5EaRP3FAQdcNlvqpRV4HHpuwq4OEaRredkUHLoQQQgghZOuhZR/sD1Sx91xXSou9KsKlVTlWpViVa+cT74BvfPkEQPfhVlNayv009Bq4B7UN3HPcyjjlsebZNMdgFe7pRX0+AMrluzCtwaF89gOJej3J0xsYiim5Fn0goyOo5hmpDMp5AX05wmIRQgghhBwJtOyDC6r47l+aubLs6znfug3/eCjzU3eXvuqZOgiY+q6r4n3lup7z0oASHWn4OspzGRf+9rq5a+CuA/0en/Clh5Jezimw+ZRzBSCH5ldOsG1IowzT89N9jYenFijXWRzbtLDlKItX9uMCE3T7ieR5op+jUpnH4AH++vicDiDioST6z0zMhQIel83gxxn1zaDDrJ/vlHXdNF1HSJwSbUcVQaLkuhzGO4kQQggh5G6w88wzzxR2v+TMmTMLFfpr167J5cuXG8O3FijRkVYBfcNJA2bAEcuY6/ETQgghZAuhZZ+QJUwmsOoPqegTQgghZCs53T77cIVxLjLOtYUQj2F2yNWFCCGEEELuInNuPOfOnVuo0I9GIxkOhwvDyQLg79+0PGYF+MpjnXt7SAghhBBCyCGhzz4hhBBCCCEdhT77hBBCCCGEdBSus08IIYQQQkhHoWWfEEIIIYSQjkLL/t0AL8+avuSKEEIIIYSQo6Hjln33dlgsq5l7+zaYkEOzhX0sH9k3ELs3CDcQEocQQgghJ56OW/bda3H1czeyy1pivzx59+iNRYa6nTZuqhJ8UxXiTnFC+9gyoqFkRSHFsrcCh8QhhBBCyImn45Z9q3xBCQP+PiGtwD5GCCGEkJNL9332S+XLWl/PQjFzllhHat6kW7pfWBcM3/pc+tfr+T39TDXMxUs9xwa8NGt6vW4T59rhjpviLfDZh/XbhR94siF/3zXkph5P5dZrfHlWyeyHl2loHMjs0vPTarN+9vW6fS/Ouu4uIXmB8iVmXjjiT6zMbZbdsbKPGdKBcYvpjxrSWEU6MC41/YF2jb51r9G0BjN5c5Wvkr7niuNFI4QQQshpAi/V8jdw+/btxs8kScrPReFbyTguijt235Hruf3MHih3tNxJNDt3Rz+visYzhwac0+um4FivqaddMtb0/Lh1EK7p4/rck8MxbjgPmcd6nWOVzC4c6ZT7CHP7nmyt1Y+y78XZlKC89Jwvc71MLo02yr4G41jwArsiSja7vsiSIpKoiN31WabFkCL2mj3TctXTR75+nBnjIpYYvW0JIXEIIYQQclI53avxwALsW3XdButufsNGsuzGIuedqwast2Z3hp6LJjPL70TT3h02xAtF87uSifRsnlNUtgMNq5/HPACUx7eUr5IZ4UintET7+5ZW66dFVuV1oLKlnrx7iQ3waLPsgajCraOKQrKhlX0ToljG7vookl7zQwRCCCGEkJKO++wHsKuK4LCY366oor4u5/WafVUSwb4q/hdUidx22qyfYwEKum4XdKA0lXfDydBbV3ZCCCGEkCqn27JfWt5VMaz7fMOve88q7Wuhyv0FVfJTvf5QVv1laB6Q2fmgOyBz23m2Xj/KHTeBQeUv5ydoWm1ygPR7Kre1fmM5zHQDWY+g7Ify2Q8k6vUkT2+gdpVciz6QUa0I7ZLKoJwX0JcjLBYhhBBCNmQHfvp2v+TcuXMLFfrRaCTD4XBh+NaCya77nkbUS1SnVmUPQLlzCh8svbDqwkXE6aywIDuXElBODsX1Wq11Fwu4hDRNSHXpQkXDxNK5OKrg163TFZk1/55eH9snCatkhiIMJbjcR7gKWirdyEe3cl/jwI0Ig4fW6kfjYWKsKx/SuaDxQwcooXnV6wb1kmp87F/Qsrqww5Z9TaDsY6JslGTru/Jggq6bZRslkmVDrY7ZxNtZmrmM+n1JbPNGMZbOHEji5Tvq70zDK2i6haYLQuKUWLk2KhMhhBBCjpw5Zf/MmTONijw+r127JpcvX24MJ4ScPswAJpYx1+MnhBBCTiT02SeEbMxkAmP/kIo+IYQQckI53T77hJBDMcwOuboQIYQQQo4UWvbJ3QfzHPzlLRu3prkMhBBCCCFkGfTZJ4QQQgghpKPQsk8IIYQQQkhHoc8+IYQQQgghHYWWfUIIIYQQQjoKLfuEEEIIIYR0lI5b9lNvJZecq7qQI2AL+1g+kv7OjuyU2wAlmCckDiGEEEJOPB237Pdmn7uRbm6/PDnjpipnN1VR2ya2UeZOEtjHThLRULKikGLZW29D4hBCCCHkxNNxy75VvqCEAX+fkFZgHyOEEELIyaX7Pvul8mWtr2ehmDlLrOJe5rSf69a3LhgNbhiIt+eF7w1EJjWrOiztZbiGHaQax4s7TUuvSb10YJl38SY2Chwm3Lly0/i+BT9U5lVMVC5cB/l8mdKaw8aysvtplDJrvIknfyWtFeUq0WNfFsTBsYs3rataWqnK6BPSXsDJP00Hx7pNCZFZWdbHPNKBcYvpjxrSWIXKVrrU9AcqYt+612hag1kd5ypfJX3PFceLRgghhJDTBF6q5W/g9u3bjZ9JkpSfi8K3lv1It8weNKFhd+wuuKP1kMT2wGes56Uormp6eUN69fO5ppHoOT/tsZ7zjwHi1eVbKXMAZTm8dO7o51WVPzeHBj23rOwuDZSr3Mf1bt+LF1IuHF/V66bxNGxcK+cY9Yu0vHPIC9dNQf52F9RlAai/sbaXT76BzGswjgUvsCuiZLPriywpIomK2F2fZVr1UsReMTJti3r6yNePM2NcxBKj1y4hJA4hhBBCTipcjSeEgxsiqWfh3UtsQBOxyJVMpFdz5YC1GWH++d7YWIUdiFO3WmODhTxXGY6CXZXpvJVp6nPuEVJ2pIFylRZtf98SWq7eUK/z413Sk558jguoN+/crr3OPdkIkRnG7wuatg/yH2ra4AjaQhVuHakUkg1r5VmHKJaxuz6KpNf8EIEQQgghpKTjPvttAIVPtwuqwA8Lu1mF8CjYVcV0mo+3XVFF9NhpsexB5VIlNvbyunJdz2n+ddeiRlR7L5X945aZEEIIIeTkQsu+445zmlelsfS/t77bBzjfU8XPWlOxvGLdRzwEWJ+hiPq+48jH97N3Fuq6cgvf8r2GPBfJ3BZtlj2kXLDG3/Ti4CkDutbZmvl6X6+DLA5Y4Q9UMUe0UJkRXD8/0WP4+qNN1m2LAA7lsx9I1OtJnt4oH1ygX6TaJ0a1IrRLKoNyXkBfjrBYhBBCCNmQHfjp2/2Sc+fOLVToR6ORDIfDheHbi2pD/kTaniqOF6Ds2eObGrbvNCZYn2O9RONgHy47u6rlOCWxgsarWJWheF6aKfywPud6DGu27z5TyU+BPDEGCz4rZF4FlFanyMKCDWs1lG03foBscJ9ZVvYLqlS7sDINPS4HHCi3buW+qyPdXVUu5I9r4T7jgKsT8nQgTmTrzdVjPZ2V7WVC5uSBO1Ks+a3dFmFA2cdE2SjJ1nflwQRdN8s2SiTLhtqEs4m3szRzGfX7ktiqibQ8sQwk8fId9Xem4RU03ULTBSFxSqxcG5WJEEIIIUfOnLJ/5syZRkUen9euXZPLly83hpMNwSChruyTxZTKvnbZmrGf3B3MACaWMdfjJ4QQQk4k9Nm/m8Bt5AAuJ/aYkC1jMoGxf0hFnxBCCDmh0LJ/3GB1F+d60+Q2Qhbj113dJYcQQgghhMxBn/2ugcmqS5cGBVSUCSGEEEJOA7TsE0IIIYQQ0lHos08IIYQQQkhH4Tr7hBBCCCGEdBRa9gkhhBBCCOkotOzfDfBCq7bfdnvaYB0SQgghhKyk45b9VBXCHbwOVOQg9/ZtMDkdlAMDbXv3xuCSLewb+Uj6OzuyU24DlGCekDiEEEIIOTV03LLvXrOKF1dFdqnJE/ASq95YZKjbaeOmKtM3VbFug3XqEHHj+mufTmjfWEY0lKwopFj2ttqQOIQQQgg5NXTcsm+VOChzwN8npxz2DUIIIYR0n+777JdKnLXinoWC5yy6jtS8mbV047CuHL712bmA7OlnqmEunu8SghdZTa/XbeJcRNxxU7wF/uawfrvwA0825O+7mNzU46nceo0vzyqZ/fAyDY0DmV16dXeXtupnX6/b9+Js4jYTUoei+fiy1OvOsbJvGNKBcYvpjzZ4KpEOjEtNf6Di9q17jaY1mNVPrvVQSd9zxfGiEUIIIYSsD16q5W/g9u3bjZ9JkpSfi8K3knFcFHfsviPXc/uZPVDuaLmTaHbujn5eFY1nDg04p9dNwbFeU0+7ZKzp+XHrIFzTx/W5J4dj3HAeMo/1OscqmV040in3Eeb2Pdlaqx9l34tzaBbVIfKu1c8djQt5/PpZg3EsePFcESUbyp4lRSRREbvrs0yrS4rYEyfT+qunj3z9ODPGRSwxamAJIXEIIYQQ0nVO92o8sBL7Fm23wSqd37CRLLuxyHnn8gErsNmdoeeiyczqPdG0d4cN8ULR/K5kIj2b5xSV7UDD6ufhl47y+BbsVTIjHOmUFm1/39Jq/RwTByoX6t2vH8h2QbcNUYVbRwqFZEMvzXWJYhm766NIes0PEQghhBBCWqXjPvsB7CYiw2J+u6IK47qc12v2VUEG+6r4H0LBPDG0WT+EEEIIIeRYOd2W/dLynhpLtQ/80Pes0r4WsCCrkp/q9Yey6i9D84DMk5r/OGRuO8/W60e54yYwqPzl/ARNq012L9onEl79YO7Dfq0Ma3Aon/1Aol5P8vQGakXJJdV6GW0ucgCpDMp5AX05wmIRQggh5C6zAz99u19y7ty5hQr9aDSS4XC4MHxrwWRXXxnsJapTW8s1FFun7MLKDYt2uqPnzSm5kM3cVwAUzT1cr9Vad9WAO0zjRFGbLlS9vaZJq6rg15eZrMis+ff0ere85CqZ4WaDteXLfYSroKXSjXx0K/c1DtyIMHhorX40nj9ZFulc0PjrDFBW1iHQsqWXVAZXRi0TREAZKvHCgLKPibJRkq3vyoMJum6WbZRIlg21ymYTb2dp5jLq9yWxIkcxls4cSOLlO+rvTMMraLqFpgtC4pRYuTYqEyGEEEK2hjll/8yZM42KPD6vXbsmly9fbgwnhGwPZgATy5jr8RNCCCGdhj77hJxCJhMY+4dU9AkhhJCOc7p99gk5pQyzQ64uRAghhJCtgJZ9cvfBPAd/ac/GbYMXcBFCCCGEnHLos08IIYQQQkhHoWWfEEIIIYSQjkKffUIIIYQQQjoKLfuEEEIIIYR0FFr2CSGEEEII6Sgdt+yn3kou+fGu6oI3yyI/93bZTnMX63lT8pH0d3Zkp9wGKME8IXEIIYQQQk4wHbfs92afu5Fubr88ebT0xiLxaXll0V2s502JhpIVhRTL3iAbEocQQggh5ATTccu+VTyhgAJ/n7QI65kQQggh5CTSfZ/9UvG0luezUEqdFVpxrjZ7+pn2rfvJAtebmxpnz4bDRWUuTl5NA2nOubHoNdM0bDo39bp1CJUZL6raq8kzsXn5aZTyaLyJJ1slrUCZl9WzRzowbjH90ZrlBunAuNT0BzIa9K17jaY1mMmbq3yV9D1XHC8aIYQQQsjpAC/V8jdw+/btxs8kScrPReFbyR0tUxIVxX5mj/XzqhRFbg5Lxhqe23BHHuv5sT3ANbU4dzQM6UzjKGO95o7ddyAdl3coITJDJj+v8hrNy+HSgMzlPq53+168tmS2jGPBS9yKKNns+iJLikiiInbXZ5kWQ4rYq+ZMy1VPH/n6cWaMi1hi/buMkDiEEEIIIScPrsYDdmOR884FBVZps2tIRQ40vFdzS4FPPqznsN4f3NBrhtU4SPOC5+mNuL713G2woud6/boslVmBTKmXz15iAzyQBmQurfD+vqVtmRVVuHVUUUg29OpqXaJYxu76KJJe80MEQgghhJBTT8d99k8Yu6pwD4v57YoOFFoFCrpuFzIvHx2cbMKxyUwIIYQQQtqGlv2VxKrwquLs/N0d8HuHNb/0Vb9oreBenAO9Zl83RxlXj+u+9UhnT69tk4OJ/ulpftb6jeUw0w3yOAKZD+WzH0jU60me3sAsCiXXog9kVCtCu6QyKOcF9OUIi0UIIYQQsjan27JfKq2JKsO6OeUVri/QlfHpJqLGmVHmp64sfdUhdRAwXVpTleor1/XcpaqrS6ThvmKMdM7q+Wk6uuW4dg0reYjMUNIv6LFzv9lTuSALLP7lBNuGNMowPT/d13hwUWpD5rbABN1+Inme6OeoVOYxeMDEW3xOBxDxUBL9ZybmQgGPy6by44z6ZtBh1s93yrpumq4jJE6JtrWKIFFyXQ7jnUQIIYQQ0jY7mJRr90vOnDmzUKG/du2aXL58uTGckNOKGXDEMuZ6/IQQQgg5YdBnn5BDMpnAqj+kok8IIYSQEwd99gk5JMPskKsLEUIIIYQcEbTsnxQqcwIWbdaPnhBCCCGEkADos08IIYQQQkhHoWWfEEIIIYSQjkKffUIIIYQQQjoKLfuEEEIIIYR0FFr27wZ4Mdb0BVaEEEIIIYQcDR237Ls3v2IVm5wr2pAjYAv7WD6ybxd2bwduICQOIYQQQk48Hbfs92afu5Fubr88effojUWGup02bqoSfFMV4sPSVjqtcEL72DKioWRFIcWyN/6GxCGEEELIiafjln2rfEEJA/4+Ia3APkYIIYSQk0v3ffZL5ctaX89CMXOWWEcqsgfXC7fVrMalf72e39PPVMNcvNRzbKi/EGviXDvccVO8BT77sFq78ANPNuTvu4bc1OOp3HqNL88qmf3wMg2NA5lden5abdbPvl6378VZ190lNJ1pnWn8EpXFxYVcLtwvcxnm4jtWlN2xso8Z0oFxi+mPGtJYRTowLjX9gXaNvnWv0bQGs3rOVb5K+p4rjheNEEIIIacJvFTL38Dt27cbP5MkKT8XhW8l47go7th9R67n9jN7oNzRcifR7Nwd/bwqGs8cGnBOr5uCY72mnnbJWNPz49ZBuKaP63NPDse44TxkHut1jlUyu3CkU+4jzO17srVWP8q+F+cwrExHw+r1Cxmv6uYYo35RNi+duTgBZV+DcSx4gV0RJRvWQZYUkURF7K7PMq12KWKv2TNth3r6yNePM2NcxBKjty0hJA4hhBBCTiqnezUeWIrr1t3Swqvn8hs2kmU3FjnvXDVgvTW7M/RcNJlZfiea9u6wIV4omt+VTKRn85yish1oWP085gGgPL6Fe5XMCEc6pSXa37e0Wj/HieZ/wWsLsJ/oOW0PnwtaZ77LTdleqF/dX6fsgajCrSOMQrKhl+e6RLGM3fVRJL3mhwiEEEIIISUd99kPYFeVwGExv12pKYYhnNdr9lVJBPuqbF5QBXjbabN+jpPz12dtUQ6CtBxBirEOENyAaVvLTgghhBBiOd2WfWfJ9f3LAfzQp/7e66DKPSzKqV5/KKv+MjQPyDyp+X1D5rbzbL1+lDtuAoPKX85P0LQ2YWU6zrpv5Y8bFPR9vQbLZTr8QcERlP1QPvuBRL2e5OkN1IqSS6r1MqoVoV1SGZTzAvpyhMUihBBCyIbswE/f7pecO3duoUI/Go1kOBwuDN9aMNl139OIeqrwOeUQyp1T+GDphVU33dHz5pRcyGbuKwAK4x6u12qtW5LhEtI0IdWlCxVtrzbZtEQV/PpSnRWZNf+eXh/bJwmrZIbrilNyy3AVtFSWkY9u5b7GgRsRBg+t1Y/G8ycaIx241qw9QAlNR8uISbVwcXJ144CMkcqWX1JZbV345XIsK/uaQNnHRNkoydZ35cEEXTfLNkoky4Za9bOJt7M0cy1yXxJbpCjG0pkDSbx8R/2daXgFTbfQdEFInBIr10ZlIoQQQsiRM6fsnzlzplGRx+e1a9fk8uXLjeGEnDxUW91TZT62gxafUtlvGJCRtTADmFjGXI+fEEIIOZHQZ590l0NPkiarmExg7B9S0SeEEEJOKLTsk46Rzvvv1914Ku5UnrsSIYQQQkjHoM8+ufu4eQ5LoVJOCCGEELIutOwTQgghhBDSUeizTwghhBBCSEc53evsE0IIIYQQ0mFo2SeEEEIIIaSj0LLfNnjJ1NzbXAkhhBBCCDl+Om7ZxzKMO+Ytqnhj7HTfBoeC1WLKa7FRkT86Wmqv4yQfSX9nR3bKbYASzBMShxBCCCHkCOi4Zd+9HlU/dyO7bCP2y5Ph4MVMw0K3sT2xBKzpHhLvsNxUJfimKsSdoqX2Ok6ioWRFIcWyN8iGxCGEEEIIOQI6btm3CiMUR+DvkxMI24sQQgghpE2677NfKozWYnwWyqSzHnuUfvbOTUe3dAO/+yBXn9S8vXUar2add3Ls6WeqYS5e6jl+uHz29bp9L8667i4heYHyhVdeOOJPrMx+GmW5NN7EK2MlrRVld4S0l5IOjFtMf7TB0w1t39Klpj/Qpupb9xpNazCTN1f5Kul7rjheNEIIIYSQE03HLftKXOhmnSfOZ7N9B9xhcj1XuunYLdrAmhzi6gPlF/JM88IbYVWZdkovXICuJKpgT7Sir5s4eGvsARRsE2WazwWV8YKGVdKycUIIyQvsXlSZvXxizTdVmYGfBmS5ovWIgVK5r+eh+DtWld2xqr3aIB5LkSUS5RPJo+tSwMUmyyTWwYtT5COVL0u8fmBdccZHIA4hhBBCyFHRfcv+KqBrXqhpcD0o1C373cNC7lu93QYlOL9hI1l2VZ7zVtGc+q4fEavyOlDZUk/ePVXi6yCNHq6FFd7ft6xT9kDiMXzgC8mGVvZNiGIZu+t1gNdrfohACCGEELK1dN+yf5LYVUV5atn2tis6uDiRQEHXrfIEYcNB0NaVnRBCCCFk+6FlH4Zd55bimOgx/NTbXPIR7je7qjhX/NgV+L3v1fIP5Y7zt8mNO1Lby4LCPcetjFMeaz71ugrhCMp+KJ/9QKJeT/L0RvnwB3Wcav2OakVol1QG5byAvhxhsQghhBByith55plnCrtfcu7cuYUK/Wg0kuFwuDB8a7mpSue+p8XBLSUe66c9hvtJk+IPa7WzTIfEAfW8ehoe23Aov04hdtfBhcbp9LCwO5eb0uqu8V2eSOcClGp7vIrQvCry6jF86FONj/0LOhBwYWUaelwOODTOULdyX+NhLgDkWlb2NYGyD//6KMnWd+XBBN2pc34iWTbU6phNvJ2lmcuo35fEKt6R9olYBpJ4+Y76O9PwCppuoemCkDglVq6NykQIIYQQ0sCcsn/mzJlGRR6f165dk8uXLzeGE0IOhxnAxDLmevyEEEIIaQn67BNyQphMYOwfUtEnhBBCSGvQZ5+QE8IwO+TqQoQQQgghNWjZ7xqVl3st2lqefEwIIYQQQk4k9NknhBBCCCGko9CyTwghhBBCSEehzz4hhBBCCCEdhZZ9QgghhBBCOgot+8S8YKvtt+8SQgghhJC7Tsct+6m3+ky+2Uo0NzU+rrvZ9ArUE0KprKuM7o24dw3NH28SLutZt72jWPWnhTYlhBBCCDkldNyy35t97ka6uf3yZBjnM5ELJ3zt895YJD7Eq5hw/VC3w5LqoCNCWoXZrmjdrVPXQbTQpmuQ60CiPzrBAz1CCCGEkCV03LJvlUEohcDfJ0fD7lG//5VtSgghhBASSvd99ktl0FqDz0JRdJZhRy6SWlcd5xKC4zm3nUnVRaXuMoOXWcFtxYXvDfSSWhrOJQj+8QeeywviTt1Qaq4wkGdOlprMlevXoPICLk2jjnMPQvp+fvWyu3haRZLaONh8uUPKHlKHYGWbGtLBjuzs7Gxmmc9H0se1SS550i/TMVtf/ORg+TfnB5LmqQz6Nl4fx7PwqQw2XZwbVKrRu7bc+jLgEwVCCCGEHBa8VMvfwO3btxs/kyQpPxeFbyV5XBRXtVx37HGRFcU4Kop9/XTs63GiW27P3dHPq6LH5tCg56ZpKHc0zUTTnmOs5/Xaq156PmO9xk8HQMapPMi7du0dTRPyjPVzIyBTk6xKWQ6vPhrLbhkvOD9lRdmD6zCMcSx4YVwRJU15hZFp2VdfPy5izUeiqEjG83Gb0oBssddcSRwX9Usz7QvxIWQnhBBCCOFqPL2hyK5vTb+kJ1V1O19zDblwXeM61xFYk83ulIMbVav2XmIDmtD04c/u0nPAsj2pW/Z1gyU91/TLOPq5qzL718J15sIRus8gfVcfTWVfiwVlB2vV4WpUmdaRRSHZsCGv1ollnGUyjDfIKx9pE9ct+zvSH6R63rY7IYQQQsgGdNxnPwRVzmJVPqeTSlWphyvNWivbQEHX7YKXzqYTXndVwZ2m4W1XVMHvNC3W4TYSJZLpwASDk8qWdb3dCSGEEHKU0LIPS/JNT7GH1RrFOdvsB97IAZzVNb6bKIolIdOR2V8HWOzxlKHJJ37Pprd70T4B8Py54QO/X7tm22irDj0O5bPvk0O2ckdFgg/+ALMmgol6PcnTG/YapDGQkd9c0VCGvVQuDdJKunk6kJ1+vQ5SGViffrr0E0IIIWQVO/DTt/sl586dW6jQj0YjGQ6HC8O3Eij7cC2B+4zDX8oSE0v3rVblzuMap//BEg0Xl5uqkE8VbjwtQDy4oeh+uQSlptG47rzGq1uwK2kpPU0n9i28mlZ6aabww80GOjKuwZOB0KcAcBdqmtjr0sAgww083LnGsnt15BNr1yrHTIFlX1mHJiQUKPuYBBsl2SFceeBeYybbgihO5LreA1GZXC6jfl+SuaLHMi7GKJ2lGi+KETaQpCZbOQjQky65Mq+x5mWPSzAA0EIdrkyEEEIIOS3MKftnzpxpVOTxee3aNbl8+XJjOCHk6DEDmPpgghBCCCGkGfrsE7JFTCZ4GjCkok8IIYSQIOizT8gWMcyOa3UhQgghhHQBWva7RuVFWYu2Jv95QgghhBDSNeizTwghhBBCSEehZZ8QQgghhJCOQp99QgghhBBCOgot+4QQQgghhHQUWvbvBnhZ1Ug3crSctHpmuxNCCCHkmOm4ZT/1Vp/JvX0XbFencW+EJeSkUA4MtG+6NxiXrOjPJ5F8JP2dHdkptwFKME9IHEIIIYRsRMct+73Z526km9svT4rExSzKcdIbiwx1I0fLSavndeRB3Lj+6qwV/fkkEg0lKwoplr3xNyQOIYQQQjai45Z9qxBBMQL+PiFbB/szIYQQQtaj+z77pUJkLaJnoSw1mfJzkbRv3SLgOjGy55Wb9vxNjQP8l1ZV3H9qacC9AsfuOlB54VWD77Zz3djTz4o8dccGPd5z6WCr5VMSIE9QnBBC0gmQ2dU16ubAi4/6gKtK/YVhE41TOTbJrKxnh6tvt6U49uOH1HMAQfLU6tCVuU5Qf0ZRjFtMf7SBvFoPpUtNf6Di9q17jaY10Pqw5FoXlfQ9VxwvGiGEEELuNniplr+B27dvN34mSVJ+LgrfSsaiBYuKIs/sCSXXcl41ZS3Z1/B9Lxzgutzugzw219yxx4XGHzdcVzLWPDV+E3c0Dcjjrrujn1dreY312mk+FuTv5xUiz1oyLyEknRCZS1A3Wt6rer3fJlP03FW9bgqONW497ZIl9Yw2HWu4D9rdjx8scyiL5LFl8Mt7R+Oi3esyBjKOBS/LK6JkQ1mzpIgkKmJ3fZZpt5Qi9sTJtJ/W00e+fpwZ4yKWGDWwhJA4hBBCCFkHrsYD4kyk57lD9IYiu0nNcr+C8hrfEnxJT8Yi5zdws9j1rpv6ZltgJYZFu2Jx1g3W//yGjaSEyNOWzKvSCZV5il57pdYmU/RcpA3jLOwTTXsX+ZvDYHD5Bc3HB+VwPvVry3wIDjQ9lMEvL/pAXb41UIVbRwqFZMM129InimXsro8i6TU/RCCEEELICabjPvuHQZWctRRIjY9Bw7Aw25Xrek4VwzkXnBbAQMTl429XVGGcEiJPWzIHpBMkcyDn9Zp9VcbBvir+h1CKl9KmzIQQQgghdwFa9gF8pSeeb/NN+EurAumUffhFT625Gg/hdas/lvG86Su3uqFazrZsDi2t2A0KOfzP96wCDELkaUvmVemEyhwMrN7aAPCx38SqD3R8UpmbAfCUYE/7AnzlW5d5CbsX7ZMErw9izsJ+Le81OJTPfiBRryd5eqN8SIL7Ih0NZLS5yAGkMijnBfTlCItFCCGEdIod+Onb/ZJz584tVOhHo5EMh8OF4VsHXDSg2MEqnV+aKVu9RM/51ls975RAgGURxSr8F/RauKtA4YUSCtcPR335RJdfHViQYS2GIumUS3cO6bqBhcsLYMDhK4N1mUPkCYkTQmg6S2Wu1fEUTaNpuUoox3u4XrtvfWyyqp4ddXngOhNrXv7gYVU9hxAkj5Y/9fogZEFTI++63AFA2cdE2SjJ1nflwQRdN8s2SiTLhto1ZxNvZ2nmMur3JbEiR1p3sd4XiZfvqL8zDa+g6RaaLgiJU2Ll2qhMhBBCyCllTtk/c+ZMoyKPz2vXrsnly5cbwwkh5CgxA5hYxlyPnxBCCAmGPvuEkK1gMoGxf0hFnxBCCFkD+uwTQraCYXbI1YUIIYSQU8jp9tkni3E+8UtRxQtLZG4yQXbbYf0QQgghZAugzz4hhBBCCCEdhT77hBBCCCGEdBT67BNCCCGEENJRaNknhBBCCCGko9Cyv83gJVwj3QghhBBCCGmg45b9VJXhHbyiU+Qg9/ZtcBOlAq3x3JtsTz0b1OGhyCXVAUx/py+jpreqqjyDnR3ZqWwDSEkIIYQQQmp03LLfm33uRnYJROyXJ5vpjUXiu/zanpuqTN9s1HSrQNahbkfKBnW4IXmqSn5/JJPeUOKly6njLaqFFNONb1QlhBBCCGmi45Z9q5xCSQX+Pgnk+OowiseSZWMZLtf0CSGEEEJIIN332S+VU2udPgvF1VmqHblI2rfuKbrtDaouKrCy47yztONlSi7uxJwqcfHgQ3+Qajo2jp9e+SKmWl4Tz4Lv0t7Xc/tevLrbjC/DMp/9mxrm5EAavmuSc1eCDH75m9yXVtahIR0Yt5p+s/9Ni/iuPH0ZHHl+hBBCCCFbCl6q5W/g9u3bjZ9JkpSfi8K3j6workZFkeun485Yz8EzRD8d+xpn34sDxhont/tT9JpEz9fTnKLn7thdcEfrM4ntgUdTfo0gv4brwbhBhlzj+uUq8/fyuqOfKPtcucIYx4IXtBVREiL7cpIoKkKTGcdREXvFIoQQQgghhtO9Gs/BDZHdoUjPcxvZjUUuHMYDXK+9klXTdCC/1FnaYVVPbEDbpJqXylGXAT7+eCrgPyVAec/beFOf/M1QhVtHCoVkw4ayHyFx3JOUE6oJIYQQQubouM/+SQKuPbpd0IHAsLDbUU+uJYQQQgghp5nTbdnfvWgs3RW/eVXI92tWYvio5zfsgcaFL7zvrx/CAS7QdNzkVixjmWrei7jjMkB+8Klf4ps/R6z5aBn8cgH46eNJxiGs98s4Dp/9dNCX/mAkuc0i1zrsD1KJ51ZQcn79i5bwJIQQQgjpPjvw07f7JefOnVuo0I9GIxkOhwvDtxPVBNNLM8UYbi3Qx6Hw7yYiV1Q5RhxMrHXuL3CHEavww1J/Xj/98Cmalm+9xyBhOpDQTKCgpnDl0X24/kyVcI3jT+ztaZwLnpKOSbdzeSlTeS31/Hoa5pRiKP7O9cVdBxcjN8Yoy2UHJoFA2Ve9W6Ik28yVJx3IDhKoUU8P6/CPkhStokQSj6/LuL6Cj01rY1kIIYQQQjrAnLJ/5syZRkUen9euXZPLly83hhNykjADD6zHzzX4CSGEEHJ6oc8+6SSTCZ4IDKnoE0IIIeRUc7p99klnGWbHvyoQIYQQQshJg5Z9QgghhBBCOgot+4QQQgghhHQUWvYJIYQQQgjpKLTsE0IIIYQQ0lFo2SeEEEIIIaSj0LJPCJFR37wQbRkhccjp5Dj7xtb0Q7zYb2eAVyR2i7tULn7/ELI5Hbfs6zfDaAffEiIHubdvg089x1k/qQx2dvRHoi+jPPf2bfAWkmtd7Wg5+ttcCKA/3on+Gy97KUFTnHwk/bIdsZ0ApWaFPFvdXlr/07L1Bwvum1RvX1PGhXHaSscnpP8sJC/fiN0P/S44VF5tot9nqnyWdVTW03Z/l514Gtu9e78phBwVHbfs92afu5Fubr882X1uquJ+c9k333HWzyyvi1Ek+r/c73lL4eOtt9MfT7c1KBt5Oqr80PYHI1UZquSlAuHi9GWgxzvOLFRRCutbuNIaDTPJkrC1/KForlIyQ+IcBaNRKvFwaI+aaYwTDSUrCilOyluKV8izTnu1RSttiv46iuR6WTbdrseS631R7ae5jAYTuZhlJk42lp72+UqcttKpEdJ/msgx8OiPZNIbShzYLJvm1TbpYCCTeGzqqKynTOZe61GGb88bvIP76l0oV3O7r/5NIYQYOm7Z17seiisUWeDvE+U468d+GeNLWT96+J7Wffd1DeJxUVpu8Dn9EYVCcslTNqAgqNIOxc3E0R9ZDYXSMP2Z0jiX8tgqfrpl+iOR1tQV90OdJSpGYtPanh/m1gixlIbEIUfHRHt2fLG8b0qiWOI4rXZpHQCnkRdH6UUTVZI85a2tdHwO0TcivQczHUwMQzX9E9YPez3eEMfCwnZf/ZtCCDF032e/VGDt7X9WvxLcvgPW79J9ZSByoL96e9jXbQ/HNg5UTXfeubrMWcz1OHVp2esnupX7o1k+7roDPefiTswpwwZ5IQ6O62nv6/F+LV7dRWdV/Vic1f0wVsryy7j8AwVC89J9fEkvBQpJzykkuQwGE0lgRZsqCJHq7ZmMe4mMrNKSTyZmc6JqGuPhUf4wqzJUedJgBQH2KUI/ySVPrGtEuXmPmwPiuPQHWhGrnmqA0Pba2Kq/BqWbxlTmflk/dalKK68tkykXjr1BntbRwLmWYMMTn3R52RazpL0sq2XOtY6rbTXQ42l9h7S7x9L2imPppTe8/HOZTGK9B+yhgv5eJ9L7K8+9822l49HYN2zZXZnLPls5tvHWZFk/XNl/lKVtqteX59GvvHad6xs2Hk77TyIr7VYp/6KnIniC4uWj18/ucSRhwur9yYU7XLwyn9z7bsATGyfSqnsntK8GlaulevZY1u4b/aYQchp55plnCn8Dt2/fbvxMkqT8XBS+vYy1cFIUV6OiyDN7zmMcF8Udu+/I9dy+F3es1/px7miaV2Es1k/HvsbxrwEwMOd2H4TkheOr2hbTeBqG/OtpN+W3IeNYCu0uRZS0k94ikE/sVVmRjQtV99FCup8UUWT64Bxab3gk4MiSWOMamVVdKeJkjFoyIB0Xt5Kml1cgWRKZ9Mc29SwrEs23UgYF8VbV3ao4ZRtEKp/mMcXKX78qqL1QZw3XVgiJs6TexrFXN5ZM05zWv1KWW4/9WNlYy1VJM0PVztByL26rxfKEtFeIzNN6mUbLyuvq9R3S7mBVe5n+rGlBdu0DQf0LMtYitpVOiasDe1glK9OfXYV6jopFVbEsrGRJXiH9J6hNcS+V3xU23oJ7Gcx9TzWyuB+ivL48pSyat18HTW3RnC/ywXeDXl8royHs3gntq8vK1XY9L2t3Qkg4XI1nin5dXslgHrDHFljJJ2nN2q4bTM35jVmcA70eVnLHrh5f8ExmIYTkBXpDTd+Pd0lPal7nj86moV/EpatLNueY2j4V3/1LqcTZ+u410RAuAs6N57rE+WBmPYJvt/5qzhPLeANXnii5LvojZw8iZ2g6EmItVwwLlkPLMuylcsO3wCkh7eUsZstaNCTOYlJJS8tx9Wr94Zd4MppaDW9os8TDuJJHFMP/3msL7f+jS16/6CcLLYurWN5eYTKrwJJovc8smJdkpNJe3/D+WNpeqXVLyzKtk0zGej9Eow0mIraVjmV534i0Dj33H7gH6ffWpl8fy/Ja3X8C2xSUTwFtvKO6l3OtC3zXePKUsjQVLhhNr/LE06PFe2c57dfz4b5/CCGOjvvst8RuIjIs5rcrm7s2LCQoL/3qi3VgMg27ruf069v4umw9TvExirr3IxhdlF6eNionqZY9js1PO1YSqf6wRPqDkUjU4KLQDXJZ4GWxGFX84Ae71LspJM6xAPeE1Jungc0pcncLVWbHM3kyHVCWc0eWuCNsSulaE1W1oV6v2uZNrja4LvKuayudkoC+EamS1kuMm9loNCkV8o04Mf1wGzmJ904gbHdCWoOW/VXsWit6XZGGPz588YGL4/vDw/9/v3YN/OGnFnr9CbwJv357CELyAumOXuvFwRMFNMHZ2g8yuOMyQH7w39e0NqANn/3DE8l43JMEyvzMIVVl68tg4v8o5JJcUiXDEzUvzX8X7dFdYqpEYblB+KsO0CpVVsSBP2xaKdhIRpWyG1a1Vzk4WmExC4mznLicb1H3rYd/tW/lvaiyp2gvc1hiVlyygzatkwlW2XBP3bT86QDW0aMgTGbUb38080UuH7boNqcUg4B2X9ZeUMCRxiwk1/qIq3o7njRMUs9PG2XoydAzpbeVDgjrG7EMk4lcGlTrbl1W5bWy/wS26bERDVUiVcI9eeB7n1TFMwOv6RwL9B342pcH4ax77wT01cW0W8+H//5xuDkjmz/FImTrOd0++5nxq4e/fmWLbbjHvp7z44zrvuOaFvzmXfhVjQ/fet9nv54fwuCzj33ft35VXuXKZ/U4jQ6Ptfw0nfp8gECCfMAPictjukX1OjbAHzee+uOrTHHVX7f0/4VvspcW4lQo/UZn4WZr9kNdBHxcp9fa9P0yVOtqXJPZ9/d2LI9j/HUz7Z6zfMs4NtxnaXuh7Kv8YAPiwM/WyVHZau02rrTFvH81KH3JvTSicm6CDVSq4fALht+x2XdFXCXPOu21SuayLeL5PlYvl8YMaPeZHIvuL+PT7dJZ4N+O+S0ur1r9OVpJJ6T/OOx9Zqu7Cvyxp7LMtkodBOa1qv+ApW3qy2Lza+oblT7kbX75wu6L2n2s6c/PWzC+7NM4mklS6SfV8NlW/R4LuXcMy/tqK/d7YD2HtnsQNs9KvyLklLEDBV9vhClnzpxptNzj89q1a3L58uXGcNIALPK5fq1a9xJCDgOsv6n+bumP46EISaetvEj3OM6+cZr6IdwP5XrDev2nkDbbHWkN0s3mYxHSFeaU/XPnzjUq+vgcjUYyHA4XhpMaVPY7zUvt7Ng9Qgghx8W/FRW1ZSlY0jSNs2NZXIKQkwot+0cBVtXZS+yBgkm3RzGZl5wa8IM18+mNzLsG+NtFyNZSuaejWJLrY97ThJAjgZZ9QgghhBBCOgpX4yGEEEIIIaSjcJ19QgghhBBCOgot+4QQQgghhHQUWvYJIYQQQgjpKLTsE0IIIYQQ0lE6btlPRUY7WONM5CD39m1wp7lLZU8H5Wv/B43vY09VBLyCfUd2+oPGV5eb19zj1ebm9ebN6RBCCCGEkBA6btnvzT53I93cfnlyPW6qonyzQTtdl7bSWUmLZQ8lH0l/MJGoca3oXEYadjHLpCgKKbKx9EYDDElm6EChryOA+LqGa5xsHMtk0G8cFBBCCCGEkNV03LJvlVwou8Df7zzHXXZV5i8lIsl1Gbpxhk86kjS6CKmm9KKJjHxNPh6Xg4DYRorioQzjXPKJOSaEEEIIIevRfZ/9Usm12udZKMB1TVSVzbRv3VysqwuOnfUdb8PF+X093q/F811iyrfmeuF7A5GJp8iGpAOrP87V88ZWUXg1fJnMjpVlN6QD4zYDq/qm5KNLkvTGC19Jnk/mNfao15N8mSafp5Kmkcazx4QQQgghZC06btlX4kK32Oyfz2b7jokq1Ad67orGG2K7bgMsu0Nz/oIqsRf0+jIONt2HMu3Yvahpe+EwT6eatiMkHciHcIe7pq7srpLZsarsbQH3m6Qn43FL6Vu//53+SKJxxlfIE0IIIYRsSPct+6voqUK9m4rsOSv5JT2pSuv5NTXMgxuqpLo0dNtLbMAR0JbMlnhsfeQ31KqN1T6VQTmp1kzOxdOCjSfXwp2n9OsfSj6izz4hhBBCyKZ037K/ElVwfYv8FVjJoa2uo6lC8datYrEf27CjoA2Z2yMa2km3doOBHwMI39Df5LKDQUK0zEcnimU87EkyujvlIoQQQgjZdmjZhzX+pqdMwqUGxTnboITeccpqbv3rB+bwAOc1vpsAi6UufReeOovSAfCrz2/YA4TD998eOtaROYA2fPZXEg8lmaSSuizyVEZpT4be0wTI0R+kKLVB4wxU0Z8fELinCLT6kyW85CUiv/M79sDjqadE/uiP7IHHH/+xyO/+rtn/5E8WeZmXMfsnnTNnRL7pm8z+L/+y6I0h8td/bY7vJvjNgCy//uvmeG/PyHrS+NZvFXn2s0Ve93WNrD/6oyL7+zbwhPPMMyJPPmkPjpn/+39N+/7sz9oTDfzqr4r84i/agxZ4uZcT+cqvtAdHxOu93vJ7/+ZNkTd8w9l3RR1c6+5HQk4ItOyDO6o4O/cbTHa9M5x3iTmv5w5U8Z7GiUWuWOs9fOsv6Kdzq9m7VFqloZTOTeRdlg6Ai44k1XDouqWC72m2ITIfN1h6U7/8m914IhlejyW9ZAYWO5dSia+P4Xw0BU8DhlEqlxCOra8Dpjibdy9KddCgHxFW/rnLRSYnmO/7PpG3eRt74PFRHyXydm9nDzw++7NFPv/z7YHytm9rd044r/VadmcLuPdeu3OCeN7zjFzf+Z0i99wj8pmfKfK5n2sDTzhf93Ui//k/ixSFPXGEfO/3GgW/DgbVi/iUTxH51E+1By3wBm+wPL82eN/3FXm/97MHC/iDP7A7Dbzma4r8n/9jD1rgwQdFvuRL7AEhG/LMM88U/nb79u0CNH0mSbIwnJDjYhyL/rLFxdgeE9KIfp9pRymKJ5+0J5R//VdzDtuP/Zg9aXnFVyyKb/kWs/9Jn1QUvZ7ZP+nce29RfOM3mv1f+iVTthe9yBzfTfDbAFl+7dfM8dWrRfF6r2f2TwpOxlu37Anld3+3KJ56yh5sAZD3qHnxi009/czP2BPK3/6tOfd932dPNPCXf1kUf/VX9qAFcE8+9JA9OCKuXCmKD/xAe9DA/r4p9+/8jj1R47Vfuyg+53PsQQt8yqcUxTu9kz0gZDNo2SdbB+YDR8mw8lSAkDnOnTOWfd/NAY/gX/EVRV7ndUR+8AftSeVXfkXk7/5O5L3f255QYEH8q78S+aqvEvniLzYdr87zny/yeZ9nLG//+3/bk8rf/M3MGvdd32Wsx9/93eZ4GXAp+fRPF7l61bhoOL7jO8xThy/6IpGf+Al7MhCoJt/+7cY1Cen6fPzHi3z0R5vyf9InLZbx3/7NXAsr7bd9mz2p/MM/GJeFz/gMka/4CpEXvtAGBPKN32gslyj3P/+zPdkA6nk0MnX6C79gT1rQjgmehmo4nub4QKZf+zWRn/kZY63/mq8R+X//z4Rlmcgjj5h9WK0R9uijIv/rf5l+4vj7vzdlhJX6Az7AXOOuWwTq+9M+TeSrv1rkz//cnrTcuGHC0K/8387f+A2TLuJD1vd6L2O5h0w+f/iHIl/2ZSK3b5u+jfR84DaDekJ91PvKz/2cyJd+qchwWO3/y0B+X/7lZv/xx0W+/utFfv/3zbHjh3/Y9J9v/mZ7woKnJCirA2VDnXziJ4r8z/9pTzaAew15It6P/7g9aUF7vOAF5kkc6gf9u84TT4g8/LCpp7obEc795V/aAwX3OOpkGbiHP+dz5su3iH/6J5Hr140M3/ItIv/6rzbAA2k+9NB8+/qgT/70T5snBaj3D/xAcx7XfdiHmT6Dfon7B6BsTz9t9gG+w+plw32GexjXwbWOnAp2YM23+yVnzpxZqNBfu3ZNLl++3Bh+5IR+MRHSJdyXO9kMKOJQKA+sLx2UwjwX2d013ylOoYaSNR4bH2MAxRjX/eM/inzcx5WuY6ULAxQfuHoAKMlQGD/kQ4zCBSX01i2Rd3gHkw7cgO67T+RlX9ZcAzcRKJ9Q5pt4n/cxcwk+6INE/uRPjKsA0sF5KKhI92//1vxAQ/n82I8112HgAuUQcsJn/+3fXuRFLxJ51Vc16bz/+4u867sa94Iv+AKz75RZKA3Yh5L+4R8u8hd/Ma9cvfjFphz6XS9Xrhh/dvgsQ8GA+8tbvZXIm72ZmfOAwQIUMciK+K/+6kbZRhzIDQUXdQje7d2MCxLk+amfMu5VKGsdKK4oH+r73/07M+iAMvimb2ri/97vGVcWKG1QoKAEuoEW2gDXoC7f+I1N3Fd5FdMHfuiHRP7H/zBK5/nzJj5AHT73uUaxBcgH5UGZ0YaoW9SpP+jx+YiPMIr4a7yG8TF/kzcxihWAewjOYcCJunrt1xb5zd80bYW00abPepYZdKJ/Qr6LF0X+7M9m7loY8OE86huDUJQVA1WAQSHy/6//1fTxr/1aMwcB9fSFX2iUfFyDfvUDP2CU14/5GHPtIjBQQp1jIPXu727kQ56Q/ZVf2dQN7hN8qo5Q9kPcOwAuMRgoYgCFdkffRDujLBg4Qhn9//4/E9eB/njhgsh7vIeph8/6LJF/+RcThtezv9RLmT75+q9v7j/42GOwCv70T82ADPX5Lu9i+sn3f79py/vvN/fRy7+8KRPyALhn3/mdzb31Sq9kBhj+XAi0HQYVGBj/9m+bexThmA+EPlUH9zp0Itz3yAsDHPRBKOaY44B+6u5pKOwoH/op+l0dyIz6gGzooxhkoQ9jcP0jP2LkQf9CfijTS7+0qWsMFAHqBS6L7vsA1+M35T/9J5FXezUzIESb4v4jnYaWfUJId8GPHn5cnY8tlCQoINigQEG5defriiYm2v3kTxrFBT/wOHbWSCgPGABAMcbAABZTKD+wWvpAoYBlDkoYfthh7WsCVjv8SOMHHNY5WCYxUAGPPWYUbJyH0vWhH2os3SHAsgglDIo2ngxAocCESlhiHVD0f+zHjIx1RR9AsYASgXqEwojroVAByIs6wXko2lA8QhQH/GagTFD4oERhoNWk6ENBhKIP2WAhRV1AUYUCDkUVeUGhQb1DWcZgAvu+zzSePmDAgfwQBwogjlEG116ujrHhiZCzFqNNoGhBsYdlF22AeoAsi8AgAsoUrvmGb5gp+v/9vxuLMpRP1BXygNIIRdIBizCUOoRDEf7gDzYKtW+9h5KOAUAdKMRoK7QFBhKwCmNAAAX7t37LKPoYiKEckOHSpfn+2gQGZU55h5KPa9HODii8mNiMPgblEU9JmkA/g2KPgTXqBOWvK/oASjEUUzyVwMDYKfoOXIOnaFCC8QQF/QFKL0D7Q8lGO2JQhAEK7ruQcjaB7we0DwaQaEvkucqfH2BgjbrGvY/7AwM61BtAG7mBCp58YNCAPtxUb/geQH9Af8e9BkXfgTKjr+ETcoWAvPGdhP4Ow8fP/7yRsem+J52Cq/EQQroLrMZQHPCoHI+vn37aKC/PeY4Jx3k8YsfKGs4a5oCSDKUN/Pt/b6yK7gkBlCekCyUICiA2HEOR9HGKHoBLERTFJmBxgwUO1mMHrNUAkxKhGGFAAeUG1noooCHgGlgW4RIBGZ0i7ssJJdt3X6qDuKhHHycbVrFBmTAowtOGV3iFMNnwmwFrP/Je9tQWZQXv+Z7mE7z1W5tPuGdAEfoP/8EcA1jcYWX2V0qBUu+s4q4crh0dsLg6sGIQrNEA1lfUn7OcIy+UEYMf9BtnWccGRROgf2Hw+D3fY44dUOjgggJl1/UZ1EO9z9SXUMbLEJ2yD8UQynDTCxJh1Ua5YBF3YIUhPMlwyjD6g+sLGAThvHNr2hQ8cXHgnsETsKY0ez3Tnv/tvxklcxF4SoTVpOAW5FZy8kHfg1UawHoPXHsiXViqfXCvo+6XuYktwvUjDJQcDzxgd5aAfujAwAj3NdoN4Akgnvy4foDBG6j3Awf6I/pcHSjtfj4hoP0xwHR9AMdgUd6kM9CyTwjpNlBkYVWDootH7P/xPxplDYoCFCtYEKGo1xVaxPGB+4VTAvGdByUXygUUCVgtobzCWroIXN/kuwuQFiy4TcDK6+SDFfNpzyd3FZAT8eGqAMUJP+pwFXnHd7QRFF/RbQKK1CLZ4BYEdxFY2TEAWmfJT1hfYdWHqwIGOk3lckoc3CvqwEpel8sdw83DAbcPB6y+KK9rxybwBMdZ9uHOA2UL+eM6tAHcPAAUWsiMpVyxOSUdijkUYFhR0d+cYou2gLUex2hHWHYxEPEHmWjnOlDsoZThKQcUQyjNTatJubpqaisolwDp/NIvzQarmC8BF5PD4Pcf9PFFvNEbmfvE3Xtwf2sCyjrqCE/eMLCD0u/jt6fLz7UnLPH18runB5ssR4uBXhugrtH2AP0AfRdlxD0JlzK4UsGVqAm4AjUp+6vu2zoY7KAO0Fcx4PC/D/D0h3QaWvYJId0GyhSsWfBf9hUrWIvh3oN1u5ss275S4XBKBQYMeFQPqzRcBWDFhQ+7v3RnE4uUTKTnFLI6cHWBawYUUDx+rz+BWAb8maFUQU64ysCNBRZ4ZxEFTeX0gWxNSg9cm+AqgacbcE+CbPDnDgVKGSzjsARDwYYLSB3ID5yF3wdy1c+7YzwNcTQpRU6ZbwLKvQuHKwzcNlA+uIKgDmGRBfC7h2uH2/yJoJiQjTqDlR9uMwDywvKNtsCAAK42cAdycy9Ak6x4+oG+hmvgR95k1QeurmDhr+PC0P4Y+MJlBG5GyyaH+qyrWC4CT8fw1APuZBgcuYmldTBHBPcVXMYgI54cOZbJgnK6OSEOKLdQ+DF/BAMb5/PvgLK9CPcEwe//y5bdXATuFTxlAZDxv/yX2T2JwTwGy01ubGDRYKxeDygX4vplc090APo15thgbg76kf994A/+SSeZ+5ZvUuR9hX5ROCGEnEicIg//a38iplOaYfFvUqCblGDf4osffefLDPADijyWsciyj/Rg6YUihAEBLG5QJgF+pJ+2Vm9YZOFjGwpcDqBUwmfYAT9g55YCVilyUC7dExCAiYBwDYGCDpwlFWX381kGZHJ+wqhn/L40WS9hwYarEJRCWK7hiw+XCvhsYyIzPtEGcEmBQgVFHIMbX9lfF9S3A/7isKajzjEYgyK97CVRsNhCgXLAPQuWWQA/e6Tluy3B19pflWbRwAttgAElrPKLlH3UIeaiYA4J+gv8/zEXBOnjPAYMGNi6Pow4vksK5MOTliZgmUY/waBmU7eft3gL03cAnpSgDzW1OQZEbi6Ncwlz98Iq8GQNgwR3H2JuDQZU8I13wE0Igzfci1CyMUF2EfheQNkx0EO94ToYDVZx+fLM9Qer4eDJnXvqhydZri0d6BeuzHUw4MCTIPQ/fyDT1FdQNijx6LeY51JfDAD3BgYX/gAHA79NXJzIVjHXW5oUeV+hXxS+9TylPxKPW4vNtrCNMhNy3EDJcW4PvrKPR9ew9oF1rOUACih+sGHZhhKEDe4d9aUt6/hL/vlAFlgwsToOXBPe8i1n/v5wB8EqPvA7h48uBi/+JFhYLheBJwKI/07vZFbtgZxYMWUd6yQszygbLI9QXKEwwOINKyHCcAyrJeoCFstlQCEHiA/FEi5AkAnKOiawNgEFEyvK4HcGCiJcEOAHDXcPKLNQ1qA0YtIj0vIHYE34Vv26qxZwgxgA1yyAvDEXAEoXrKCYNNwEFDAod5ADShqULvfGVwxOoDRitRyEIQ5WN4IbmMO54tSBgg8XGPRjWMcXAUUUfRptg34EZRdlQDmh1GGABRnRl+AO5CvbGJigjIvAKjuYM4I+EDoh1OcjP9KUA65NyBtPTJr83/E0BNZvPAlBHCzd6SzPq3zL4fIDRRv9EIM21DVcr9zTFQAlHP0J7YwJ7Li3lgHLNwYQqDcoz3BdWwaeIiIOBhJoY/QHDBIwgR/gfsZqSZhbgbpAHMiAgXwTmKOAPovVnfz5EU3gySK+G1B2DPrckqkOzC3BdyBW/8E9iLwh57LvENIJ5pbePHfu3EKFfjQa6X0yXBh+pPjWkGBuWWVYb6jn6E39fP0hLffxuLmMMAOKs0aXBzTetnAsMq9Rh6R9Vi296axsh/W77TpQuvB4G8qlD1xIoGjWz68DrI/Y3CTQwwJlAfL4/s+wQkIRxA/+psAVAT/uGPxsCmRzSosDfRBK4jouPA7IBBeLJp/8OrCOIh+sllMHdbNpG+IpxyLLMe4/KMtYucSBSdvoS02TRx0oFxRpTOxuAkshoixt9BkogmhXH7znAVu9rQAs/qhLP28omm/+5sYivmzg6warh+2HGOxg/sQicL+qXlEOXJoGZCHAUr6sr68Kr4OnOhgwA7TdsvkJDsw7aOqvDsiA9lvVDzCxG/UW+sQqpGxIDwOYw7Ql2Ro6btlXpbTkXv0hwub2y5NV7lVFdpsUfXAsMq9Rhy3w1OMPyoOP08qwErgzQAGB9WuRtZjMgBWvSRmEknkYRR/AjaUtRR9AQasrElB4DvujDBkPo+iDJuURA81NFH0AmUIUfQAFcZHidJg2XOYigraFaxXcLOAyBBcorIgDt5hloFyLFH2AVX3a6jN1RR9gANXUVgBKdj1vPH2A5X7VEy70wTb64TJFH+B+RbxNFX2wqq+vey84RR+EKPpgmaIPIENIP8DAcR3XtJCyIV8q+qeGOWW/SZH3FfpF4ScTq5Q+yyqs/j4JhHV4ooBij8fAUPIxoZGKPiFHB9yyBgPjtgR3Cvh/477DxOIugfX8V7k/EUK2lu6/QffWc/XPw2Z2f/agyEseMPuOlzwu8vwn7IGer1vKS1eZW6rgatizntJjO1EOVnU/HeDiOu7VcBip/TQzjfOUxilX4VKl+V4rj58PXGdeomH3aRjiI66fX2sya9gtyGPDn/2o7j9k8rvvSY1vTq+sQ8utR54rj2i299z/qDz2gLs4kKcelwcfekKsJB73yP2PPiYuOVj+H3oCse6Thx+9T/N8RG7h8B49fvhhueeWCZ/K4KV738NPysNTsW/JIw/aa0vukfvuf1geXlfuo8a58cDHGut4w2e2PkEOL85xKz0QQgghhHh03Gd/HVRLfVy3JreYUrnWsGdrWF+VwZdASValuO8pxE1KsCqapTbp0lRFVO7RfUyeckAxf1qvwXUun/s0zrP0Ewr9faqAl/teOlP0/GFkfr7K0/fkKQcJGm9Df/xDKfsWKPOP6MBi+fWqqD9XFfV7dCCgZX/gvmrcpjQg2y0dwDhl/3EdJNyryr1/6VM68HniqftPlsKPtoGSD/cB+LE2gVVS3KRCuFQ0PZrFI31/4iEhhBBCTgXdt+wHs0Jx1iB5jirzDli776kpzvctU5I1gedDkfbScLhrxc/Hl8ff91l0Xlklc1M4WFmOoyVc2b8l9z2pyro947NS2V/4FEG553558rGGNroboM8vWoe6DeBTXPcrxoCgydcXA4j6JGD4WvtvL3U0PWWAv3XdN5sDE0IIIeTIoWV/yiEUZ0BlvxWOTdl/RORhVeqX5XIiwEQ7vFQJkwMXgdemO+Di0+THj1VUFj0Z2AaOamDir7JCCCGEdBBa9qccQnEGcON5SjVJPw7ceDK90CnPIW4803x8efx9n0XnldABiu/GgzK8UD/vthvP0w/IY0Yrl1uPPyKPPHGvPKqK/SzF5cq+CiLPffweebRU5pHGE/L4E7fkXs9n/9YjD+rQ6gF5WE+4dOHG85Bed2Is+8D57OPFOJiY27Q+ur9u+DpgRR9sPhgQYGBQBwOI+lwBLFuJJfzqNL3BE/EQ3+ckDEw2rTtCCCFkS6Bl//mqAJeTZWs8636jKLvJrv45KM1PmVPlpFb4xANMpn2hjQswQbb0v7fHoBKnYYIuKPPRNMv17TXsAd2ma92rIo78W5FZT8xN0NXjDS37bSj7mkpl4uw9990vD9+vSnuZ3FPy+IMPSTk/t8J98nBF8a/Gu0fb4D55RFTfr8iGgQQGAS65Mq+HT5i1319nHwow3jz62Z9dVZJPg8J6VAMTWvYJIYR0HFr2SZW77MZDajS9VAuKLN4qiiUAoQDTOk22DRgjvuzLRH7zN2drluPtuL/8y2b/qMGbZZve3toEBpR40ylkfbM3sydPCHBlw9tYv+M77ImOg5d+Ye36ft+eIISE0PF19slawO3oJfdS0T/pwB/9Uz7FLLmJV78TsglY4Wk8tgfHzCd9kshv/7bID/2QyPd8j3FPw1uC2wDl+pEfsQcNfP/3i3zIh4j8/M/bE4G8pOlx6l2m17M7C/je7zVve91G0Dd+4RfsgeV93kfkm77JHhBCQun4G3TJSuDG9LjdsqdFntPg/09OJpiwSjcUsilPPSXy8F263/EW2q/7OpE3f3ORt3s7e7IlcE/80i/ZgwY+6INM+Du/sz2xxTS5pjnwmw2r/6//uj2xZTz6qHl7sc/v/q7II3BpJYSsw0t/2qd9WkVbeM3XfM2FCv3Nmzfl/d7v/RrDX3HZK8fbADc5aZ83fEDk2XZ7w/tEaouYkLvMG7+x3SGkReAeBreUp3WAjydFcJ95+7c3YXANg3Ucy75CKYfbxLMWPO576CHjEoM3On/5l4v82Z+JvNVbmTBY1+FegrRx/au/ukkbb6P9sR8T2dkR+Yu/MMo+XNLwiv+P/3hzLfjVXzWW6ec/X+TgYN51AxZ65I30UQa8/h+uQXjvxN//vcjf/q35hGw+f/iHIj/wAyJv+ZbGhejTP92UFXOnvvmbzfVYvQnpgb/5GyPzR36kyI//uCkT0o4iE+7A4AlPShD++78v8iZvMlsVCnniDbXv8i7mGHzmZ4r81m+JvNM7meMv/VKzktSv/ZqxXuPJh2sTR5aJfNd3iezv66/3S5s3/D772SL/5b/YCBa022OPGcs4yoj8sXIVVvdCPpADgy2U5/x5kRe/2MiN+sxzs1SuW70Kc2NQr7gG7QEFHPNi3uItTLgDroV46R/CINNLWVsi5hl93/eJKhAif/d3Im/0Rua84yd/0sT5uZ8zfeJ1XsekhWP0D7gpvvCFZkUy9FeAPun40R8VuX7dpPPnf151tfr6rzfth0ER2vhXfsXkf9T6CiEnDFr2CSHktAFlEIo5XGfgB+3cJbAPZQiKNHzooUBBqV209CuUWSinUPBx7Xd+pzkPxfiLv9go+D/8wyJv/dZGeYdCDIULIH8ogOCVX9l8OqCovu3bmonVf/InIvffbxROx2d9lsgHf7CxXmP1J8R9WhVByIk5LTgH2ZtWr4IPPtzfoEiCl395IxMGBVCmMZ/gbd5GZDIx4Q5MjEdZoJB+6Iea/B0oN+oNdQBFEoMX1JvLAwp0/Skc8kU9O6BEf8IniHzsx5onD5//+bOBAIBsUMyhoGMwgcHJolWrUH64+QEYyjA4gDvPX/+1yOd8jsj7vq/IF32RqQfUF2T/6Z827YDy4xiDDYA6/NzPFXn3dxe5ds0oz2hflNEBueAWhQEZlG+kBeLYKO7/8A8iL3qRyPu/vxk4Ob76q0Xe8z2NrGjLd31X05/S1OSPtscADP0BG9y/fuqn7MXKxYsiH/7hIrdvm3ZFu3zcx9lABe2BenyHdzADjW/7tvlBCiGnAPrsE0LIaeP3fs8oSlA4oZzBkg/wtmYoglgQ4Qu/0FjVYaHG+UU433t8QnmHlRZLxUIpg3IG5RG/H1DsYHV1Ci7C3JwBX9mHgoxlZqFYQ0FGep/8yTMlEW4peIqAPKBI7u0ZRROTaFEODEA+6qNMGaA4hwDlGNZnKNx4IgF5Yf33gcL45JPGIv5pn2bKgcELQP1gHs2NG8Zyjt9EDAqW1VsTUN5h7YdyDlle8AJjlQfOig8FFkrrz/6sOd/Ee7+3sWqDr/gKI+vrvZ45BhiQwNoNqznqC08z0Baob9QDBmmQwQcDOljbYSHHoMT1GVjyIcvznmfOQ1F/r/cyYXC5QdvgE245ly+bdgWunTGAQHkgL8qOgSH6zhu8gXliAeXfbWfOmGsB2geyYvDjXH7wdAKDAwyGHBhkYOAGGfBkAtZ/9HlCThNYjcffbt++XYCmzyRJFoYTQgjZIh5+uChe93XtgeXMmaL49m+3B5bP/dyieOM3tgc1Pv3Ti+LCBXtgwbnXf/2i+PIvL4ov/VKzPfvZRfHmb24jKFAzf/iH7YHyRm9UFG/1Vmb/p3/ahH/hFxbFl32Zuf5DP9Sce+qporhxw+z//d+b+HXOnSuKRx6xBw3s75vrf+d3zPHnfV5RvO3bmn3Hu797UXzyJ5v9p5828X/zN80xODgw537wB4vizh2z/+M/bgMtH/mRRfFu72b2n3yyKF72Zc2+4wu+oCje6Z3sgfIGb1AUX/u19kDBbyvSfcELzPHbvZ2pEx/U2Yd/uD2o8Wd/Zq7/9V+3J5QXvcic+8VftCc89Pe/+LEfK4pr14ridV7H1D347d821/zxH5tj8K3fWhSv9mr2QHmLtyiK93xPU84mfv7nTb96j/eY1fUv/IJJ9w/+wBzXQbwHH7QHlld/9Zlcn/VZpl/5vPjFJk20C3jOc4ri8mWz73iVVymK7/gOe0DI6YCWfUIIOY3Aqv8Kr2APFPjF//M/G79uHxzDp3sRsGD74PcAbhWw6MI9Bv7WcLMZDGyEBnzLPq4FuPYXf9HMLcASk/Dnh/UecuIY8jfh/OTXwfmXO+Dn/m//Zg8acP7scGlxrjrr1ltT+r4cbklSFw8W6baotxmeVMCnHz73cBeCu88yIJu/ehKe6MD1Ce5WmGfg3n8Byzt0B0yGRnu6JyEA7QjqLlwOtCPa2edlX9buKHiiUK9zl5Zf7/W2RRrL2paQDjKn7Dcp8r5CvyicEELIFlFXpnZ3jfLku0AA+NbDpWIRdcURvu9QyuFGA2UPS2vC9QO+4ovwFT7nbgI/cbhqYNIo3DzgsgMQDneXp93r8GosGgQso64QgrpCCHcQBwYwAJNJnbz1RSQwCHj91zf7GFT90z8Zv3FHk8JZr0sfDDCWrb5Tp6lMTWAuBVyk4KKEuoZv/KIJ2T6+/Og3X/IlZuIyygAXMAA3Hbhgwd6OdP33hrh6g19+E03t6LvxoJ/Vr/2jPzKffn9tqgfIQ8gpYu4uaFLkfYV+UfiUdKD3el8Go9yeIIQQcuLAiivwkYaS6iZzYoIj/JrdOvVQADH59FM/1Rw3UVemnvtc478P32kH8sGE2UX4yj5W54FvOuTAkwYAa/+3fIvZhz84lGz46sOC63y/neIHpdi9nCvUGh6iEMIfHRNnYc2H/zd8y2Gxxso9mKyLAQl87DEQge84fOCh6ILXfV3ziUEPwMo8UI7XAf7rmL/wMz9jjjEYWraspnv6gEFS/Y3SPm7A5+oK8w6a3kxdx1n20T9c22KFIOgK7okRlHOXFhRx+Nc7MJkXbe1W8MEkXkzqdpPFMfhEO0J29B/gW/bRzzAQxZwEDDKe1sEfJh2jf/gTm5cNoAg5Jcx9wzUp8r5Cvyh8SjyWIotlkuoXBiGEkJMJrKxv+IZmAq6bUInJpVC0oUhBscI67VjNBJN5Q8GSllgeEiu9QNHC9n7vZ5TzRdRdOTDZEtZzyICnBPfeO5vYCaD4Q/F91Vc1S2RiwOIU6kuXjMKKfJ1yvYoQhRCTfTFJF1ZvuBf5aWPyMcoAJRMKLiYfI9wttQlLM1avgbsMFGEMZOqr8zStHOQD5R6r1WBVHMgLKz9WolkE5PjojzbLeMJKjoFIE/9/e3d0nSAMBWA4PnQKN6gO4RIygS+dwuMU7iDrSNdp+S2xNEKUVsVT/+8FD1jNiRx6c7kkzE7DImM8PEspD++P50MOMyWBfl+tvoJ82sWsPwTd4KFd+oHAnb5bLL5nYwIPHfPQL9Ou0i9x9idwftJm2h7PnXawzxoNDLB4WJs7C5wjDFjYlxPLxKQnMuGh3Ob1wXQ67Q3oN/XFal1fwPuOH1WbMK+vt/u9q3tK0sOiFIOsfiw3aaOmmiDtL8iCExTGOesjMrFpgE+mmMxwG/sIzpgdJj2G+n/P4T0Ei21k/Cm76Ss/ol1pvfclqGWnz7gr0oW7AawlwLSlfWhb7vg5ZMDJxhPM0xbuJLSD4BR3PmLGPYc1Cfg87lT8BoE2fZr+PX1C5j79jdroV76fwUaK3zi2nc/qGpjRpwzCLi1dkp7MSbD/Ul9AugJ5ttvtth78v3Ue/8FgX5IkSRrd9Wv2o6oKZfNSkiRJ0v0Nzux3obQnVRaTUJTLsPvYhWWzT5IkSdL9DKrZP7c9ooxnXoW1gb4kSZI0mkGz8eS2J2YzA31JkiRpRINq9nNbSZIkSY/lNpn9dxfUkiRJksZ2/cw+K+gWZXhdD1iERZIkSdLVDZqNJ7eVJEmS9Fis2ZckSZL+qdvNxiNJkiRpRCF8Ar8CCUSbufzxAAAAAElFTkSuQmCC;" vertex="1" parent="1">
          <mxGeometry x="-322" y="320" width="596.01" height="421.81" as="geometry" />
        </mxCell>
        <mxCell id="HaPRxVeF14VXVeQSBbxY-14" value="" style="shape=image;verticalLabelPosition=bottom;labelBackgroundColor=default;verticalAlign=top;aspect=fixed;imageAspect=0;image=data:image/png,iVBORw0KGgoAAAANSUhEUgAAAx8AAAIhCAYAAAAvowfMAAAAAXNSR0IArs4c6QAAAARnQU1BAACxjwv8YQUAAAAJcEhZcwAADsMAAA7DAcdvqGQAAMNVSURBVHhe7L0HgCNZXt//05E50h302ETDzpFUAhY4cpgBbpZswk6pyRl2GUw8dpf0RxKYsLsc0dOeJYNJrZolx50DurHxEQ58QJVM2F0MR/BMmzvgDNhgqP/vW+896VV1SXpSV6sl9fezW9MVXr1cpd+vfr9fVev27dv5hQsX5M6dO4K/hBBCCCGEEHIaPMNXPPCXEEIIIYQQQk6DZ/iKBy0fhBBCCCGEkNOClg9CCCGEEELISqDlgxBCCCGEELISXum1Xuu1+oeHh/LiF79Y2u22PPOZz7SHDNmgI//q/fakFV+Ty9RNCCGEEEIIIUvSesUrXpFj5QUveIH0er1i54REuq1E4nwosd1DCCGEEEIIIcvwDPu3gDEfhBBCCCGEkNOipHww5oMQQgghhBByWtDyQQghhBBCCFkJz0Csh6Nk+cgS6Xa6Mur3GO9BCCGEEEIIOTHPeP7zn29XK5aPKJZhOpR2fyCJ3UUIIYQQQgghy8KYD0IIIYQQQshKYMwHIYQQQgghZCUEWT5GmV0hhBBCCCGEkCV5pVd7tVfrv+hFLyo2jn/hPJJ2ayDdLr9wTgghhBBCCDkZrdu3b+eweMDlijEfhBBCCCGEkNPiGb7iwZgPQgghhBBCyGnxDF/xoOWDEEIIIYQQclrQ8kEIIYQQQghZCbR8EEIIIYQQQlYCLR+EEEIIIYSQlUDLxzRGXZGBLoQQQgghhJBG2BDLR6KKQEuXjshR5q3bw44jTbeHY/b4yO4nDRI4Fo2QSLfVklarI4Ms89btYUuWdKVTHNOl0z123JBoNTsz04TkE1ZWCPPrM0bLRLqudv1yzCvL9bO/dHXvMmSSqNLeqRmnMX4farrTa1eT42WZNRYNlJV07fmVpVpelgyk23HH5/Thqc8fpbF+DrkuQufz7PsGIYSQs2FDLB/tyd+dSBe3Xuy06C/LXlfkcirSy0XiuPhBPMahCsqHAb9C7aHmo8s6EFrnlRAyFk0xKetqFIn+X6y3i7+WbCC73ZHEaS55nkvaiyRRwaQsaGQy0DRX07RIk6dDaauAXJLFQvIJKiuEgPo4tMyOpjVtX4bQsmIZ4vh4GeoeC+pQCHB1yySvQtDvDGTU7kk8tb4qGKIPh7Y+eSo9GUhyGn3Y2HhZZo0Fjg0i2Xf9tx9LpoJx7ZjOJJK+ra9bhtqZkbsUAPpZGxHvm+PpMJZRd0q7guYPhPVpdQ3r52baHjJXQ9IE3DcIIYScGRti+dBfDQi3EHaBv+4YDfT3RZUF9wujApDsjE7pifx5JmAsGsMKDhAg9E8bMoWul+SwQaLDrgKsrUIU96QXZ5L5Vq9EhdvoapGHox2NZOBJayH5BJUVQkB9DCpo7fZF+vvS8xu9CMFlzSEeWmGvr0PQN+u+gqJEmiZVYbA3XfPQ+iSSFP02SQPBOrm5YH0aGtNw5ozFSMuNvfpEscSxtnVBCRxKmatvgQr2g1GsQrTdBhgL7WfXhdPbtaL501Dbg8oKms/z7xuEEELOjs2J+SiEXPvzcUF/Uty640h/eS/YfUnHuAP5iseRKifYd6A/Ugf2eJ3LkEtXLBXLSREHovthYSncu/Tckf7COlev0q+tt79Y6qwXuu3q6tJg26VbpM573nHUDwIBCK2z2/aPFcc17yrzxsLiXEjwlHZZCsGh+AdChpal6xAoHBDWhr4ErP2ejFTo8KqUjY5Lm5Hmk3nSWkg+IWlCCKkPyAa70leFGk/slyW0LLRl4nrVke4JxmwmsQqmOqcGztSRJSo4QlC9abY9Zs2fpsbUMW+uzh0LbVdb2zA5O5ORKg29UvmLk93U69EX7OvQPkyS4+1a2fxZoO0nHdPQ+ay7Zt43CCGEnB2b87ar2LpSgUvpZL0KhO0jPXZN00NIduz0jDvWZf0Jcq5ZxaLrdenqXK5gWbnW1/z1hw55XNNy4NpVrOt+CO4OCPWoc6kcFeR9BQTWGlfXIs2+PWAJrvNVLcs7jkeiTmkIrTPqgN/qA9Tby+uy7turKCChY9EA8TCX3EqQkbbbrdeTqW6lddV0J5C3lJB86tMMxn74lQVpFwGuNf22DGe0t7GyjrlcpRJnuyeIEZiFljVsa/Osz/5uIm2dPycariBOMDcCxgLtgvVht9MRxLt0taxM7yEnbZfRPabkovVy4x1VLSZz6+wrm3Bbqm4vwum0/SQsdt8ghBCySrbvbVcQsvEk3hfOm2ZHf8jg3lU88ffXLbBEVC0IhRVB92XeE97CNcxPt6s7Nb9LC/5sH2meiVfOnioVVebV2XFZlRXfjQoKEOq4hPtaIQCoMHuSJ6/BZCo8dbT/9qtPuxckJJ8ZaXoVf/3xkmo/LoB5wjsRCKEI4KmxrxA0VVYdcawKgrOKRb0iruA4UFrKrldBwD1rXFecn+l/x2ls/gSM6ayyQsYCwv5uFkuapto2LUfbFQ1OEF8CsoGWWnG58hm7wvU0abms+XX2FU6MQXV7ARZo+0rvCYQQQtaS7fvOxyVYD1T4hxCOtzE596NVs6MKgLMe+Ms1XzDUH2DfynANdYeU4Es189C0e7qULCM1VpsToX24xrEzRaDzroppKlzWyTR1bhkQzqKKn8q8fEBImnmE1Kd4WjsWBhF0bAS3qQrRFELbfpZAyYniq3YrjCbHdB4hY1EI+5Wy2+1l40sMQS5XIFLFodeW/mBy31jl/Gmq7UHXxQbMZ0IIIbPZHssHnuLfwY+S/lT7An2dFaFIB1SoxpukqrEdJ8VZC6pKBFzCfBcmWCsOvTSw1mAIXOyKz7Q6w9IDfylnrYDCVRenEcqB5os8HLDiHKkitcRv+zw/+iaA+85uEsu+F4B77Kl03JP+KJm8USlLZJC0pedJoyH5BJUVQkB9GiOw7Z3uQIU6s43XuHa0UfEpudO5cgDK7o76sl/T9pnzp6ExdcwsKwAIxZC2J2dnMpK4KpMXTMqaPXGmuVzhfIzPuCxYdjSvUxHAA/p5ubbX9HPIddHoteMsQye0UBFCCFmMXLl9+zb+jP9uJmme4yU8mf4FWT/Pr+tyjKHu13RIi2Woae7YQ8A/5i/IK4vL28ir2Nb94/Vokt+Blx4LyvKB18SwmkbzOcacOpfK0fLRdrfuH5tXZ9QH/TfUbXdOtc4LMIxFtT/Jo74dk8YZ5ioeF2VUl7jajammjezxKM6HpSqF5LNAWSHMrI9H2s9VrDr1soY6HyblRFpOJVGlHmbRvOzhAp3L5eNmKY1/qS5aTn96g+bOnxOP6YSguTpnLFJtv9+H07KalDVjMFFW1MddrZZj4zW1j1YzfxZv+7T6zi8rKE0Idr6e3v2JEEJIHS0oHFth+QB4Sp8guBob+lN4LTXWBBIGLDGR/h6fwgNUQghZJ4wVbMm4JUIIIUvTggayNa5X5GRQ+SCEnBPwtrgkThn8TgghK2a7LB9kefDGrXFQOa1GhBBCCCGkeWj5IIQQQgghhKyE7fvOByGEEEIIIWQt2b7vfBBCCCGEEELWElo+CCGEEEIIISuBlg9CCCGEEELISqDlYx3Al8+b/so6IYQQQggha8aGWD4SFc5beDG7yFHmrdvDjiNNh1fGuuMju58ogX3YCIl0Wy1ptToyyDJv3R4ek0miSlen9hgIzYcQQgghhGwCG2L5cF+90787kf3+BNaLnRaVSPe6IpdTkV4uEscqu26INaE91DrrcqqE9GFTTMq6GkWi/xfrbe9bXpmOTaczkFG7J7G3v8z8fAghhBBCyOawIZYPlTYhJENoBv66YzRQuVQFeCeZqlArO6NTerK/iQT0YWNYRQEKg/5pQ4fQdadKgCgeSpoOpTdd81Dm50MIIYQQQjaHzYn5KIRlK3ZeUFHUrTuOVNG4YPclHeNW5CseR6qcFK5Gdhk5NyS3bdPBPWnsuoVF8zqs+Pkc2vwRp+G7esHyMi5Tz3H1cPlg28+rVKcZVppDPea7kyVapqOIF9H9KNsvz0/jmNeHlqQL96aWdE7g31QoCsU/+gcahK5DgViUpvIhhBBCCCFnz/Z84RwKgeyrQK0C/YGKp3HPCONxaoTuArhm6fFrzsUJ27vlNHDVuqzHx+coEPCPNL9LvtgL5UX3w3pwWcut+gLhHFePIi8oI1rWBU1bygcgL13qXK/QhqiSP/LOYuNaBqDE7On5qAfyRkwHzruc63kmySJA+ehqdlE/lbRXrWvzDDpa1/1UVlAUIYQQQgg5Q7bvbVewgOCJvq88jFHpNtLjzvoAV60dpxwoEOJhESlZPqwVIbtpE/mo8H9NFZe6IITC7cvPSxUPpD+meMxCzz/Sc6r5w70MdfUtOzte3lCIatsfRjzMRXXSlSgehBBCCCHk/LB93/m4tK//qGAOgR8WgJFVNByXVCk40OPgQBWRy9Z64Njpm4D16nJNz1sIFdxhURmfj3qpMlHnDkUIIYQQQsg5YHssH7B23EHgRkXoP2ZpUGXjsqaDe5Vv9QDFdo2CADcnuGstQqLKz6GXD8pB97q4lCC0rqhPVYFCfap1b5AmYj5Wi/9KXruLEEIIIYSsHdsT84GYCgRjQ/GAmxJcqg50d53FooiR6GtaVU7qdAEEeB94ikMbaV0+Ws6elnPsLVqqKPgxG1A+sA9uXA64S7k4DQCXrLq3ccH64te7VB9tG1y6XD5QRJyy5M5D2dDDAF49vJCrl1E+Tj3mQ5W/FgqpsFSZNq9VxagQQgghhJDlaN2+fTvfCssHgFKRqABeCPQqhCIe45SsA2R9MMpSLMN8CHWPEEIIIYSsKVtk+SDnlUGnJUlMqwchhBBCyLqzXZYPQgghhBBCyNqyfW+7IoQQQgghhKwl2/edD0IIIYQQQshaQssHIYQQQgghZCXQ8kEIIYQQQghZCbR8EEIIIYQQQlYCLR+EkHMDXstc823LEiFpyPlklXOD85AQCz4k3OoKL4ftYUMsHzrlBi3cjUWO8CVzt24Pn3tW2T+JdFstvRF0ZJBl3ro9TLaOTOdSS8e5s+mDrD9gff1vOOtLlHVpsoF0inmOZQ1+AOfUZ6PHS/t/0rbOFOE70dubaWOr062/9zSVj0/I/JnKKssiZM3Q+VzM/TXXpjP/vhFybwm5ljeRFYzXhlg+2pO/O5H9ajnWi51kpf0zKetqFIn+X6y33ff93KStLJ0teYQHwe6kQh2+yH6sj2puYlkykG5nkqbTHUi15GxQEbJ0e3zDKAmp1SVciI56qaT9sA84hvRPE324DINBInGvZ7fqqU0T9STNc8nX5Qv6c+qzyHg1RTNjmki3O5J4mGrb0L5UejKQpJRtJgNNczW1adKhtHXOl+dyU/mUCZk/9ayyrNVyVtcy2TDioeQn0aRx/mnff/X3chf3jRT3jLz4aHHSqTxYxW/qIJL94r6iy34smf52h/6WbgwnHa8ANsTyYQVqCNbAXyfKKvvHKhxQPPRPG7qIrjuVpJi0aV939c3FWfzYphKPVEjmj1RBPMyLJ5r4O+4j3MR2vZsYnq6oEgFB0qSBAJVIp+MpIJpmN4utIKpLqsJKUrkNFjdtHPPHZE2E6FWifbWU1YOsDp27SdyTXjy5d0V6Y0luevcNVciT6Gpx73G0o5EK636ahvLxOcncWGVZhJClSFThbw/1d9ZeqFFxD8kkG5ntgpFes7F3LUexxLHeb7ZO+zh9NifmoxCorYh7QYferatQW7gZ7enfPetuNNKZUKzrUpoV3n7nmnRY/QHQ7UT3+2mwXUoXkOZooGV5aVA/TNwSlXxwvqvfeMKH1FmZ1j8V3FP3kygChcJR/IMfUS1L18cXYx2aptdT4bp0FSelp/rmqf3x/km6nZKJM9EfZrOuQrj2Rakt3pP+sqElvKxSGpRdybvT15tRv5zuBF05ATextruJZcWT274qbRMBKlI9IpVhuy96jyzIRiOzuPI1j6H28+mhAlPJEuN1ckj/BKRx+Xe1I+ZZfUDofF7a6rEACaxQ4zrr3NH+qdaqZNYv2oVtT+nUPuo69xwssIiVH9kvwIzxssyvc7PXxczxivUaUEF93N4sKcYkSW6abQXzvUqk95/SvaWpfDxq54Ztu2tzMWdL2zZZE2UVzLmPBdZnbj7je6zOPW/sF77eC+bMnwAmlmL/CbPXtnFHh1w7J69P6D3K/T4V9dY5OE6L3zEvYSP3jXljWhDS9pA0YWX5c6doc/10n01pTvvttYTM1UCK39fSz6feM0ZR8eBijN5b2nofmbQ2k9Eo1t9pXfXqYvpH+8WbI+U6nXweFsyb88H908x4hc15sx9PQvPbt2/jz/jvxnGnn+f9KM+z1K5rs8brsU2kDHX9jl13ZLrvQNM6sH1dzxun02NDzXvRNNjnl1WtC7hu6+xAvmiHf15InRdAL65cRz+P+sudH0Taz6NI2+tIh3kcRXk8tNtKP47zYaUKqbY19uo1jKO8VM0iH62/l1Gq/VVtC9q4aFnoZ9E6p+NdaVF+Ne+68pahWseibaL1LNYr/eeDepbaH2taM6Yq0mibhph5BuTj0pby9MoKBO0u8ncdqR3V13JLbVBC+mdemmKORhgzL42tf/WsoPnsxtZu1hKSZka/Ya6M+8aCOTbuf6Vot277qdKhtquUZ+rNQUXbPX2sptcnZLxC6jzul3Gyk10Xc8cL5Rdz2c4B9M943k4pB3WsTsSm8gGuD+xmmVTvSeXx6+u9zs+6qbKC7mMB9QnKB9dbcT+x+5a93l17xknq5888xm1Afjqmph5m/k9yCrh2GqpP+D0KdURarX+105Wm7huN/cYFpJlflp1zfqKa3+7FmH6vC52ri2HaUJeH+c3VPkGZOgdKaVxd0PZiHfUw66X6h4xFEAFzfm7/ND1es+e8mz+y8YoHgGAPZaBAO2ss5HvrTimpW8bnAu0VKBLj47quF3qZgDRFndxxt7h6KaU6e0AhccpGcJ3XDHvRFT/8xVKd2NXj3qIX5DiNW/fBRetdEHU/fiXBPqSsAr0A9eKfHNd84+oPSX15y+CEsEldvBv6tLaDSvtL6E2lyLfu+Kw8A5jbz5aQ/pmXpi5fgJvzMl0f8kMU9mM17QcQN+rjcwX4gp+/PhUdp+Km78+NaT+6U+sTMl5hddacVnpdHMP+SDtqy5l1TThOkM+8uVHKS/MoKW9KI2UF38fm1Cc0n5r7xXLXe9j8mYcruyhP52fRd6hjpW3zr51m61Pl+D1q+jVaHNM+rit7oftG8NwIafucNCFlVcfFMWXOhzGjH1FewFwNxj4sre3zmuu7ND6luvh1rta/mXmI8ubO+Xn90/h4zRkrW8/z9Z2Pnb5IT9tdXa75Jm7tmjj1ju3rvkT/981U89Lo3z1dLntpekN7bEGC6ryGeDEfQ21CMvBNlYoe1wttnGa8IG6haYLKinSIXHxFLmm6b2IsljDfhqLXtVeXoehNxBBdlTZcRWossInOsTg2tmG8PaeUJook7vUlqnHz2A4ymeKpMp3E+M/P9EYLSbMSYI5OvDgfLGcdn7P668IH8z2Kr9otrU2NuxLcmqKSb8Rxls4nYG5EvZ60+8blZjAY6TVYTtxYWYH3zHn1Wem9t6H5g3veaJTJTT0t3u9JrOM5wMa4D0OvndOez0vco5qgsd+4gDQrnT+rpXBv29Xf2P1J7IdP4UJZuW7b7WXGvIl5uI6/FwHY+XN+vvOxoxfGjg7sWEGwIGZkb2A3lKQlcuilQSwFuuWCN+HmpTnCTNR1F/SN198mXhkA9dHJU4oDOeyUX48bWucFaCLmY1FivTj2Y+/CinrSayeyq9t+LXDhI5ajwKYpVRM+hINyXxQ/7GMfzKzwny0lCSlLQb909ESXBqEsen+oF2rGdxqUBx/HbinvkxPJcNiWPpSLsaOk8RHtjnzhJJP+rgoZXuFZ8es8EbLOhJD+mZMG45iUGjaQQanthnnzuVDWVBir+R0ZE5JmNnERr1P1L8ccS9o6/2zGV7XuCcbLbBaYN5pZJVL7ZIQ3x7lXx2n7k+4Ad4lTIKzOTV8X88bLH3I33/d9KSDuSX+UTPyHoaQnbelVJIWm8gmbG7H0+iO9x5T7bkwTZQXexwwz6rNQPoHMGPeF5s8sCl/7Xb0WtG02yLff191XbeMCr53G6qOE3qOm09B9o8HfuLlpQsqKrko88mKuQM1v97qB+8RuEsu+9yAQ/aFNHQN5A3Nt0rJM511c1Ufm0sg8bOr3YpXj5c0faEubHfNRxEloM8auSEO7DRcnt+65Mh146bFU3aWKN7pV01QMSCFpSuVo+ZmW49bHMRyq//nuW4jj8N2uHPPqvAAwt+kUmGMqPwEw1VmzGpaJ1S7VppdNgkP4Tnpp60zAhR+kSwPXpGOmQJevy2OoQ2/XvTbOK6swQ8bVNGU/WwNMspV8FuxKNwbjpWISdcCvt1xWuT6FufdYuyrz0DNzTpYpJtEpwNVhfK7N329DeS6F9M/sNMYkXDZLH58bhpnz2Zqb684bE5DGn1+lpWrKLo0FzOjH50/hL+zlEfnudkr5OHyH4cNr1l0T59VnkfGaV+diLBq8LmaPl5eHzm3EL9VSSlfuv4LG8gmYPw57ndnuPk5DZc2/Z1rm1GdmPv493NZp2vzRI5N24VjdtRw0f+aDeT8uu6ijH++BJpfnct2101R9inxm3qPKv0uT5fi9t4n7Bpg3N0LaHto/8+dhuW+KOa/nmPVw+WXuvXehuToLnccun8qizS9RxOSMj3suV8fq4vLEmLt1k76peTh3zgf3TxPjtdicb0HhOBeWj00Bb8iCSxesKeQ4eMKS6NWjVxDZTvBUKNH73kmHOCSfpsoi28cq5wbn4WbB8SLkZLSghZwb16t1ZzTQu1omsmx8yHmAysfKeUarZdcIIaQ5/iXHw9HNg8oHISeDlo+zBt/wcHEeO3oni1XxoNXjOHjfd6c/8bWM+lsR4EbK4B36/ckgm2+dRHaTEELOGN6jCDk5tHwQQgghhBBCVsL5edsVIYQQQggh5Ew5X9/5IIQQQgghhJwZtHwQQgghhBBCVgItH4QQQgghhJCVQMsHISQcvOq41T2lr26TM4FjSs4bnPOrYd36meO+NmyI5UOnyqCFd9yJHGXeuj0MjgZ2P5au3UnOhoDxaoxEuq2W3lA6Msgyb90eJoQQQgghJ6BZWWtDLB/tyd+dyH4HA+vFTsNOT6SX8wN9a0HAeDXGpKyrUST6f7He5nvXT4d4KHk+FH5ba4vgmJINIBt0pNPUU6V1mPPFU3gIcDVLZ2ATrSfBY3Ha/Yzvf9X1X7HUWDhOuT7ol2P16G6LnaVZWWtDLB9WgIUgC/x1soascrzsRYCLQf+0cX3ourtMCCGEkLUDgnDa15+rvgrE+WTBPpuEBFAoFLbfxn15Nopl1EtN+fj0vavX1nwGv1lZa3NiPgoB1jbzgjbdrS/KYdd8Vdy5AiVVrVS1+UT3OxeuQ9126Uc2SVAazXdcDhZNj3Q+hy4PrdORl34P2zbNPEaa1p3j16naLril7XnHkX5k6+PnUdRB0428+pTyCmgXCByvpGueDpzkiVZxERT/6B9cHbqOi8MnS7qlJySdLrbLT0YSHYdOx6XpaJrEfFHdPaHqdKVbHO9IV/vErCOvSl/PZXKuK6tbar8zb+pi83b95J7m4Cu72PbrgaXTHUy+Al8wryz/aY3mnXnptb2JS1p6wlTzRAlomm7He/Kj5w/GGShePw66k3SL9x/INDv/KZO2S7dL82hefUBImpCyggjJp4HxqjwNLOZIadvkU043ZUyV+dfO/DrPozq/DV69baVD5+qsMQ25dlZ+fQVyovuYJaw+89s1k4XumXPKsvO0088k63vjqunKycLmRjNzvql7wgTU//j52g5Xhu2zqddKwHjNapfrv3EdvL6q3jPmjUVoP8+cq94cOvHvxaz6NDlXF2DedaqVLrdby5ncl2ySoDTz6xx6jwqRtYJRzSy/ffs2/oz/bjbDPO/Hdr3CMMrzLLUblkzTDvUcx/VKGhzv6747dhuEpBnqPn8bIN1BpfyivjoM1TwX4U7flO/yvqN/r2uemdk06D6/PsU5Wh+HywN1KNZxvlv30gW3K4xhLDmmYdRf7vwQUm1XFA/RA2PSYT+PJEbvFwzjKI+H5Tqk2lacZzaQ3qYp1mW8Hnv5hNCPNX2luSgr9vsgHeZxpP1iy0f9JCqfV/Rdsc8/T+sW9cdtDSqrQMvTNkkU5f3qCSWQblp709yvSm3fuH505esJfW2n6+ZgtA2Cdo7LS4s+Ks+jgPqEpAkqK4CAfJobr1Tnj98O9LOmrUta5FXtF0PItRNe59mM64d+Kq4v7DV1K+c0v+3zxjTk2jmb62s6jdzHxsyuTyNjir4KuGeGllW0f275of1s5lW1V0BIPxdztIl7gu0XzPepv4MBvwUhfRjSrro+xnVQnT5hYwGm93PQXHVzyJWlHV76vcBxt4F1HRPDtHKn7HfloD52TE4yV4v5Ue00j5C2437opymOax39ooLSrPAetQiyXYoH0MGrVT50/3U3MStA8IdADUG7Lo07DkLTQHivW46dO62+C1BXJ1j8fOWjSFOpS1X5GOfh18lbX6hd68N0ocuBm/tEoPAZnzv1xjbtJjcFe2NzPzalZZy/Az9ok2PHbhU1PwoAN7ZxnatluOVYWaHtmJEON2r9YSiXVUlb6kfDtHbMRn+E8CM8Lgc/rJU+CqzP3DQhZQUxJ5+Gx6skIFR+2MpMz2vutbNQnWfj5kFRby23+PFG/sfqPaftAWM699op1s/i+ppOI/exMTPq09SYIp9xer88b32BssIE3tB+np5ufj+Dhu4JXh/Nbt+M34LAPgxpV10d6q6DsLEA0/pZ91fbYSnVszSHDNOuy7q0x5lSn9K5fhpvPbCfC/R+W1U+JvUOaPuUtszrG3AsTV19sRw7d0rfnBL8zsdpsdO3AfCV5VrPJlglicieLpdTry5LBuavVbs2lKgvem9Qja2ypJU+zEaFx5sKYtgYe8nNJ8OphtCyTgxMtcnE57VYTtPvNtIpPCkrTfelp3WYmMhD6hNa53llhRKQT4PjFfV60u4bN6HBYCRx75RGo6E6x3EsI53kN7U74v2exDr5B9iI6l026znpPPSunamcxfW1YlbZro3sw6buCRMwZ9Me7vU1zPst2NZ5uG5sYj+vaZ3P0Xc+9OdnR6/e6lWLeAe8KauIUcBgVNIgLsOPvwhNg7Jwt/BBWXtn8BaLI/xS6g+4C/rG62+TJepxCu1qIuZjHld16JPdsq92pu2HX7gpVvX9tgo6FQds+Mcm7Z5M+z2YxaRdlb6KND8ta1d/pMr16Yr/hpPCNxfb+gOXpvhRgh86fFHLdYTfaJJ5+7KBDEZ9KeTMwLIaQX8cR3jzhXv1hdYp6Q5wpSzN1D5UcAz7XbuK32RdIieohtQnsM5zy/I4UZ0bH69Yev2R5rf8PJ577SxY51n9o9qHtJNd7X+td6TXZJxIv6+7ry5Q8QXm4cxrx7Lq62tW/6zsPtbkmM5j0T7U8bUrOjbwU++WzmuC+f1s2jzzWvZYpn9wr3dloS9m/hYE9mFIu6J2W/fdtGnQx4iXKjaOc6KxaP4399Rp7HoPaLuWFetdy/+9R1xG3z8lME3T96j5aJ10viO2xM2rWlQD2o6Yj2MuRXapugMdxN7xKC/FexSojojYEJcGsQy+S1VBSBqlVJYuQ78uOMc7Nl48V6gQingTe65rK1yu3D4Xi1Ftd6Zp3bp/rMhD+6TYRl3cute+me1aDGdKDjPhLk+qbdFruiirKK/iMwuGpTQwo1v/WJhQ3f7CXArzJLZhonTrZZP2pF31RsxyWfDn9cywfnnWdOvyw+KsucaMWzb/15n+Z5ala/ChdccmS9n8Wp9GF890W+5j+KLCX9asF31zrB/L7aoz95v9x/uwaHtcbVfFn3lefQLThJTlOGmdQRPjNcaa3d2c8QkZU7D4tVOt84RZ/QNQp/E8KOaLH+8R1vbgMZ1z7YSkAU2O17z+WXwsvPtYQXh9TjSmC94zw8rS87y6F2nGicLaVZ9GlwXnfDE3TnpP8Pvo2FJzz7QXscsPi39dh/Th/PlT7ke0qT+uv59w1liE9/PMuRr6e1HrWrTAuDc4V+GONs6rZpk+XtXrFFTuPVqB465zIWlm17k65pOl3IfB2P4sz5fjtKBwwOKx/ZaPE4C3RMWpFNaRaYSkIaRB8EQt0etcb8iEkAUIuXZ4fRFC1glYvGQ/nWkZCklzmuC+2U1iUcVNZt06GfMxj9FA5AguS3a7jpA0hBBCCCGELAhc5JJs9kf9QtKcNqORSNSHS9hsaPmoA9+xcDEcO9qF8fC4YhGShpBTAu/ynvh2RtJPz+5JByGbRMi1w+uLEHLWlO5DUSz9/eHse9WUNOtIC75XvuWDCsiaUHwUsG83pqEz7BpdvQghhBBCyGZAywchhBBCCCFkJTDmgxBCCCGEELISztF3PgghhBBCCCFnCS0fhBBCCCGEkJVAywchhBBCCCFkJWyI5SMRGbTwTjGRo8xbt4dDONT0OO9w/P7E9WPUNXVMtL0bTQPjFYz/Kf8s7LP+p0k2kE5RByxd9MQJyCQZdDW/02tPpuOCunbOrMMCSLqmP7uL92am547Ho9Ot6cc1mz+EEELIlrMhlo/25O9OZF8tW/NRPygY05SLS6nI5TV/+XF7KBJvw+d0A8erESZlXY0i0f+L9TP7yE7UkzTPJZ/zdc95FEJzZyCjdk/iE7YFCsY05SLqpZL21/y6iIeSL/OZaVUEd7sjiVOMRy5pL5KkU1Us1mz+EEIIIVvOhlg+VBKA4ApBFvjrZA1Z5XhZgRGCo/5pQ5bUdSdSbiqRCtxpOpTeSTWPc0wySFSfn3wcLop72p+ZZCOzbdjO+UMIIYSsK5sT81EIsFYkuKBiglsH+CAfXHsOMl2se9VUVx+VPPB1cpem6uLk3LMGXT1Xj7m0e9i2aeBM4+eBcqoWl+IjgV5dcP6o+vRZt5NKmkVdk5yrFs7186q2a1Z9/DyKdmm6kdfGUl4BbQezxssj6RqXmJO4/RQCY/GP/oEkqesQJAG+/on8u9qGrl0vyusO0PslChencZqOpkmWSrM2WBewTl8F7r5xr3L1Pt7do3FfYUG7fJx7VuFKlnl92cG2TQQXJi8PlNOtFqR16na8usAVapKBJdPLr5wmKSkMYcSqeJQNJonmo0pGZSrOmj+EEEIIaRh84RwfGvT/biwHkS6p3agBx/u6ZDbNHf17XbsgM5sThppO91/30voMYz3Xrjsy3VcqW9f9NHf6mqemGYOyK/nf0XJRn6H+XYQib6/tte2aUx+XB+pTrON8t+6lC2p7OCoc5piGUX+580MoyojifJh6ZaT9PIr66JWCYRzlKqzaLUOqbY3iyViEpJkwzGPRMu2WTz8ybT62aH3q6EdRXtc9ofmkOq6z+hfHRby2aT8h7+PNQpuQv9an0g+gH6OP7YYF/ROXyk6R/QQdh3I/oexK/qmWi7Z6FVq0D12+tUNFCCGEkJVx/t52dXkfjzfN+jgeoQ4Vs66lk7QOWBB8q4BbYB3IbtpEypGuJ97xvb49YMHxnV45/x0t8/ISvu0A516a0a559QHIA/UprBT+uiW07QugwqBqOcYf/zSJe0OJC/8aS9STXjuRm8VDdzwRj4+5OMH1KR4NrJUgJE0YPRuDcGxJdT4sQFP5gKi/L6pc2Y3IGQJqiEWVuOPuYNlAp0HV8mEsKEnizQ2dJ4NdL02nD1vaBD2etOEe5Y+VltkrXxcLtb2w1OyK7FctIYQQQghZNfzOxzLsqODey48v15zgAwFdl8uqvIyPD+2xs6DB+sxt+yZR9f8nJyLq22D7aQoBlICkCHKfHD9ZYP48isD93URiVTxOWb8lhBBCSADbZ/m446TJzMZvdO12Q8BasaOCfCkOQkHcxN7ArB+hDm1NZ6UdvG42scccO1etJcF7ZI4Yk4NKvk0QUp8QQtq+IE3EfISAWI0k88rIBjIY9cU8UI8lbifHYg8guBZP4YtuC0mzxoy1LLy+F/EU3WZjVawlabcSA4P+aXXs3NA6jPAmKWft0/FIuoOy5SO6aixJfj/DcjFY/LpIuh3ZTWLZT2H1cvsQ/2PWF0PrUFhr+BpeQggh5ETkytbEfMBzHLEOiFfAMuxP4hOKeA+33zp+D720RcyCLv7548WP1bAc6D4/DcryKR1HLIUed+vjmAktb+jV6zpiJ+x516f5rldAvMX4fHvOsXYps+rjHyvy0P4ptnX/eN2r97y2L8CqYj4Qz9CPEdtgy4sn8R6OobZXZVSbJipiORZNs3gswhSGcW0+y/WTjZlweaDtNhsT72GP2YAINyZF2qI8EwMyTjdejse0lPvneD+nlf6Lde6o/lesT5pWHqsiXkfPM+uh/WjjU2qWpeI+7Hic5jwlhBBCzgMtKBxbZfkgpAKedicqO9LfnyyLsZjEMjxlNzFCCCFk22HMByGEzGE0Eon6PSoehBBCyAmh5YNsNfh2RX/sox9JH29qsv7/hBBCCCFktbTge+VbPqiArAnFRwFrXodbQqVovA546uuCCSGEEEIIWR9o+SCEEEIIIYSsBMZ8EEIIIYQQQlbC+fvCOSGEEEIIIeRMoOWDEEIIIYQQshJo+SCEEEIIIYSshA2xfCQigxbemypylHnr9jDA26GK/Vi6ducZElSfgHY1RiLdVktarY4Mssxbt4fXkk2sMyGEEEIImcaGWD7ak787kX21LNaLnYadnkgv12Vod5wxQfUJaFdjTMq6GkWi/xfrbe+bF5kqPq1CwC8vHSvt4yvPZl8XalMBvqMxTttRhUuZpKtZuu5MLS8ZSNc7v9MdSFmvmF9nQgghhBCyOWyI5cMK5hDQgb++0ayyXVZ4hxCvf9qQ63Xdifcg6qWS57kuQ4n1v2Gxnktqv8oXD3MZFp94TqRrlYheqmmwMx5KnqrCpbh0+Gvys4s52ZB0VdlIvDJT6Wm+HVVgJgrI/DoTQgghhJDNYXNiPgrB3IqdF1QUdesLoQLznnOFsi5Oh96z9pKrlC4j5xbltm26efksQmC7nDXBWSGWoRDei3/0D6R6XYdQvyjxUJWTZBDs/jToVF2lMlVeRuZr47GrQaT5pjJs92UwMY40VmdCCCGEELIG5Ao+NOj/3WyGed6P7XqFoe6/Y9cdme47SO0G0PXr/vnYjsrnBeXjmFGfBRjGkmO4on5dGU0zzGOJUfNjoB6xHkj7US5RH71T9AfMHD6uvmaJ8lK1034e6bm11ORFCCGEEEK2g/PztitYNWDJKFksdEl0X3bTJgKR/j+aWDJGeh7iN2ChAMH5NItzYXIuUGdN1NuXvv63O8P84ercp6mCEEIIIYQo5+s7Hzt9GwReWa6ZWIUxl3T7wARPy4EqIpe9WAUQms9WE0lvX/uhvyuDsTtaPT24V/kKSHRV2llS67aVqBIXx5X+JoQQQgghW8H5sXwU1ovEWCh8Rl2RPatojFHh97JK1Ike860eYKF8mqOJmI/GiXpS6B/9Sl/MJZLhsC19xIIkrj2ZtrEj3VFfegvrHv4ree0uQgghhBCydrTge7UVCgjcoOq+jwErhW+ROFQl4cATltt6PK6xWMC9ag/Hck1j9/nMyye0PoFA+cALpqJ+emquV3jVbqd/XHp3Zbo62J2Spj1VI/D9jY4keNuVfZtVKR3QtO5NWD541e5g0Benf0Sax77msXDrVEnEK3xPs28IIYQQQsjJaSHI/FxYPsjWYpQdvBoYrwgmhBBCCCHryvmK+SBbyWgE40qPigchhBBCyJpDywchhBBCCCFkJdDyQQghhBBCCFkJ5+dtV4QQQgghhJAzhZYPQgghhBBCyEqg5YMQQgghhBCyEmj5IIQQQgghhKwEWj4IIYQQQgghK2FDLB+JyKClS0fkKPPW7WGAL5IX+7F07c4z5FzXJ2C8GiRLutJptaSFpdOVwfGPtCuJVqGzRmkIIYQQQs4fG2L5aE/+7kS6uPVip2GnJ9LLdRnaHWfMua5PwHg1RTaQ3e5I4jSXPM8l7UWSqOBfFvgz1bdGcjVNizR5OpS2KmCqInmsMg0hhBBCyPlkQywfVoCFIAv8dbKGrG68kkEi7WEqqnMURHFPenEm2chsFyQDSaKrqNWYdjSSga+hrDINIYQQQsg5ZXNiPgoB1j5Rv6CinVtfiERkz7keWVegQ08oLLkm6TLS9KVtm25ePk0RWh+k29M6uP17XT22YH0O7fmuHX7ZviAf2vbA8Uq6rcI9qbOkcB6r4jGM7UZBIskoksgrLhuVGlAQtduSeRrKKtMQQgghhJxXNudtV3Gui5UyL6WT9UVIVHBGPoX7ERbNZ0eFbCc8F65J2Kd543gbf7GtwvM1bJtkc/NpitD67FzV+uh+V59Yjydan0VAn17W8xzOTauqM4S2vYnxWphMdSGti9bJWUIIIYQQQsj6cH7edoUn+bAclJ7a6wJhOrtpEwGVWqPRRJge6XkQxPEkHwTn0xRz6gOOtNzEq8te3x5omFNoezycxGqciCyRbmdXZL9qCSGEEEIIIevC+frOx44K5eMn9t5yTYV5n0u6faCCNjhQwf9yRZoNzacpZtYHyoAulz3Lx2kGla+67QEUb7vaTSRWxaNOh6lze4J7VOT5Zq0yDSGEEELIeeX8WD4Ka4EK6XhK7zPqqvBuBfsxKtxfVgFShdpjVoaF8mmKGfU5gqCrgq0L6MarbRd1uXIgLmNswdB8DhE7YjfBKbT9pDEfSbcju0ks++mw8DYz+1rS9asY96Q/SiRxRWSJDJK29HxNZZVpChLp4lW8reqbuQghhBBCtpdWrmyFAgJXoLrvSOBJvf9UHgL1gSeZtvW4CozHKIK4cSw/HvcA5uUTWp9QZtWnVBcVchFfkWharF9DTIauBtVHpWAErrt0bVhQrAICy8olK0CH9mEATlGI+ukSrlcQ4OtfYwt3rpL7FdyydjUtBP0oluH+RFkZs8o0qki2tOHLtZsQQgghZDNp3b59Oz8Xlg9C1gijdKlikqtiYvcRQgghhGw75yvmg5A1AW/kjfo9Kh6EEEIIOVfQ8kEIIYQQQghZCdsT87FJuPiNmUSTeA1CCCGEEEK2AFo+CCGEEEIIISuBMR+EEEIIIYSQlXB+vvNBCCGEEEIIOVNo+SCEEEIIIYSsBFo+zhv4GvlAl3Vh3epDCCGEEEJOjQ2xfCQqoLZ0wde3M2/dHt5U8Naroi1YKIDPpVBUtK8S/5vmq5wb+KJ6S1qtjgyyzFu3hy1Z0pVOcUyXTvfY8abAhwqLMioLvhi/OJkkOgc7Ne1ZJa5NQW2Y289uvPyl5ov4TY8Xvl6veS03DkpT7ZrB0v2s86P2nJA0jaLztdux5ely0gLtmE3NZ+qYho5ForclW9+aMQ25lsOu95PPjYUInquz75mEkPPFhlg+2pO/O5F9/SzWi52by05PpJfrMrQ7TsChCtyHAXf0tpbVRHlNsUh9kDaufpZvlXNjUtbVKBL9v1hvF38t2UB2uyOJ01zyPJe0F0miQsfp/NhG0rfluGUYa71cNQMplKXOQEbtnujpZ0o8RBvsxiy0nzuDSPZd2/djyVT4OS5k4Svyfh9VvigfnE8gyE/H38yNJWiqXXMI7mcIj5jPw9SWk0pPBpKU5nNImiaBQKvXlJaSuvkf1pjpxMPpecwd03ljkclAz7+a2v5Jh9JWRb88piHXcuj1frK5EUzQXA24ZxJCzh0bYvnQOxWESQiXwF8n55xVzg3744kfUf3Txu+qrvu//ckgUR1JhS9bhSjuSS/OJBuZ7SaBsOfKKVBhYDCK9UfebgcSqeCVqkDUO2vNYxFGKtnGV4txKIhi1UuTslEshKbyKVAhc7cv0t+X3jGBMJBG69MAWnBSzOHJ3ICwm9z0NIuQNA2SdLsy6qeSqrJghNnTpIExTVQRi7wxVdrRSAbeE4mQa7mp670xgubq/HsmIeT8sTkxH4VQaW9ZF/Q25tZ9nFuOW5KaeIJD3d5zaTrFD2cJWBCKY5ruSI+5tHvYXiANnv+My8ESaJmoUnyQ0JVny8BN3+Fctw5034GXrup6FOriNat/XP+iDolXVrUPQwiqj7bJL6fUvx4hc0NxbgudE5ghih/P4h8IEFqWruNH1QEBofwAVX+MR/rDW6lSyTULdVKBqlNxjwhJ45Pd1CO+MFCQSLczyaNwiVmm/SrodJ3bCBa4WFQfbYekCQZPiyd5dboDzIYJcSzt5Ka3L5ORCmK9Y494ndsHlpq2B+czn2ywK/22KnIlCdEjpH+aalcw8/s5VuF5XM8sUaEZAuZNsw1C0iiLzud6kK/2x7Q+tswvq9xujEVS84Bg7pgWzB6LbHQ840jvG9mMJxL113KZ6WnmzY2Ae0KDc3XePZMQcg7JFXxo0P+7kRxEeT4c2g1L1s/zfmw3lKGmyVK7Ycn0ePW8XLf72jXXa9KPmZNmqPnesesOlHVQlx/y8upZQtP7+dyptMmB9tfmXWVGWSH9U5TvlXVH/17XfsjM5uJMqw/yrdTnjqZFWcfGKwxVCnJM+ahfaeOpkWpXRXlcqW6q/RfpTr8W6bCfRxKjN8x2QJoqKKvatH6s6Sv7Up2b8ZQ+qMvDkOZpqTL9XEXOSl3mp+lHZgyOLZHOK4sZJ62HV/Gi7ZqmnH2s+7SfNG0caZumdYzHMK4bj9n5hNQZ17tKY+O2og3H6xPSh820q8l+RttUWLTna31tmhJz0oTM56B+1j4r8vXKi+LqvJhXlrku/XZrAu1rzc/vxKAxPU51LIr6VC8q5D0js+nX4YSQNODY3Ai6J5zeXCWEENkKxQNAUK0K+yX0rni98oPpOHaupq0ViH1mpCkEdBWS65baOszJCwJ3KZ+atCdWPgL7p6hPJd1Q69S08oFy6pSMWmVxDSmEmXrhoEnBYowVykqnYJ8vxPlLVXi0TC0Xwscx4bAijISkCWCakFfaD+Gzkiioz6pC37L5VICAWW63WUpZh/RPU+0KIKif60BZU+bPmEqaZfq0liJfCLo6111+uNa8Cs8tC9dFfcNLfRg0pnXU5LOQ8oH6Va/lKiFpHH5ZOK+mTcXij+lpzlVCyLmH3/k4LXb6Npi8slzr2QQhJCJ7ulxOvTzWKFic1FK4fOwmEu9XfLRPkakuGFFfVBZQ7bCypIvNw24nkajnAoqxVINYQ9KclIn7WuHKUvFla7cXj61pKp9yu00wt8plngteWP80VZ+TMennOpJE26FzbRYhaZYCLl6Z1nC/N4n3wN8a16aTMn9Mw6hzscI4R1M6+WQuVwHMvSds0lwlhGwi2/OdD9yFk4FZd4xsvEQRJ6C3zh29YfvxEgBxDHjrFOIGmqLIT8uqxkKgrL1KHWdxhLu43txdADVeJVtto88dd9fXdEVcyrRYijpW2D8h7KjggriQUnyL1u+g0qcL0ETMxzzw+s/dJJb9VH+s7bChXP91mFe1q5Pdsm99puMKH2tXtZA0PkYWqYgiUU967UR2tfByPl1pdRaYhypNjPCGGveKmgyvOR1ANZ4QkmYB0I++j3mmc9kProVAhzK9FFp+XJKFkEcRw2ATof862hexCrCOkHwaIbB/mmpXKPP6GbhyANJ3R33Zr2jV89IsOp+nE0uvr3kNJj2X6X12hH6zzC0ruiqx/jaUYhgyFbi9PEMJGou4J/1RMnn7F2JikvbUuJXaa7nCtDRz6xNyT2hwroaj/W/jT07x9kwIWRdyZWtcrw7ivOSedF23q65YpTRRXnbhSWtcnLD4bkEhaSzV+gwrrgq1+ejiuzVV61vEsdj1qquYnx/K8o+HlAVm9Q9cnqrnweXK7Qty+7IE1UfzQxzK+JiW7+pXrXcAcCfBlD+9mI9hrj/xRRnVpephUfhKe8cj+MlXqhWSpmCOC8awmk/FR75wy/COj9N5/VSuC3zI4QNu1l2ykDTzcH7/sTa0H0/cXo7VWYGful9eXRnltqNOxxOF5BNMxa3FH/fQ/mmqXbMI7mcXC4HjcHfqVyYyCEmjBM/nABDH4PKBu1A1m/llldtdxKnoOS6/EjPGFASNRamPZrR7zrVcsND1Xl+fcprj497kXA3C3oNWF49HCDlLWlA4LmyD5YMQQgghG4exDuP7JE27ahJC1hHGfBBCCCHkzCjCR/o9Kh6EnBNo+SCEEEIIIYSshBZ8r3zLBxUQsjTFBxH7dmMakci1dPUB7IQQQggh5Myh5YMQQgghhBCyEhjzQQghhBBCCFkJ2/OdD0IIIYQQQshaQ8sHIYQQQgghZCXQ8kEIIYQQQghZCRti+UhEBi1dOiJHmbduD68jCeqoy6HWdyob2K5sIJ1WS1rF0kULjhOShhBCCCGEnDs2xPLRnvzdiexrWrFe7FyMQxXuZyoEDRHnIpe1rjNpsF2rIupJmueSz/oSbUgaQgghhBBy7tgQy4cVzCGgA399o9nWdhFCCCGEEHKczYn5KARzaym4AKHdWQ0cmUjSsa5L1n0J287KgQ/gYf+Bbh9U0vluTsWH8rzje12RUY2lZKT7x3nokmBbl2OMNA8vXdXqMrddhqRr3Jg6g5q6zEPrVrhAdbpaxY51h9K8uhOHqEz7oZS/5zrlJSOEEEIIIWRpNudtV3Bjiq0Tz6V0su4YqdJwpPuuaboeln17wLLTM/vhCnVZzy/SYKl8bXvnqubtHY81faJ5+8B1K9OyxnnoEs2wWMCa4cq8VEk3r11NEA8lT/sSZSPJon3J4RKVphKrAuUUi0j7Ie17dbOuU8NTqA4hhBBCCDmfbM/brtqqXOyoJD22MuzqTpWcq8L+PI5uqrLhWSr2+vaAB4wDlytSOcrvDe2GxwEsJ+3F61EhHiKGIpe0d4J8oliG7nxVltr1RhZCCCGEEEJOhS36zocK1b7F4hosH6qMJIv4DEF50aVkGalRKBYBeV2G61XFekIIIYQQQsg5Y3ssH7BWHHqKBlyp0JwLNY/376gyUJAZFyoXq3GE/ZreBX3j9bdVlyuAw9X9cPtCrEjda3LhThUtqgiVOVHMRyBRuy1ZcrMw7KBvEu2XwfJVDiCRbhFX0pFTbBYhhBBCCFkTtusL53dUUnbuUggkv9M77u50SfcduWBxpIlFrlnrBuJCLutf57q1t6sSOdyrkK+nWBTKhErL47J0QSA7LC8ufgTKEPY5Ml13QeqreNWvDwLOO32tQl//DgrlAsoM4j3wd6zQxD3p638m0BwKQVyEoPhpBh2jBJnvdzjlQRfN1xGSpkCVMeg2UX9fTuJNRgghhBBCNoPW7du3862wfJCNwyhAsQz5PRBCCCGEkHPBdlk+yEYxGsHq0aPiQQghhBByTqDlgxBCCCGEELISaPkghBBCCCGErITtedsVIYQQQgghZK2h5YMQQgghhBCyEmj5IIQQQgghhKwEWj4IIYQQQgghK4GWj5NQfDTQfh2dEEIIIYQQMpMNsXy4L5fjK+OZt24PbzUb2PZsYL+S7r5yXkNIGkIIIYQQslVsiOWjPfm7E+ni1oudZ0d7KNLT5VRZ07bPIupJmueSz/pyeUgaQgghhBCyVWyI5cMK3RC+gb++9ZznthNCCCGEkG1ic2I+CqHbWgEuQCB3FgHLYce6JHVFjhKRPazrsodtmwbOPW6/c186zOwxh24nLi9dcNydM7JJjgaT47NiPg712Lg8zTPxnIuKeBHdj/r55flpHPPabkm6xo2pM6i2KYCka1ygOl1tUse6Q2le3Ul9Mm1DKX/PdcpLRgghhBBCSC2b87arONfFOuhcSifrDuwrXKBUCk5UObiMbT3nmu6D8A4g2CMf7C8WTbOjaX0FZG9XJNqfpMHxIxX4r+m6k/l3evb4DJcrKBRIh/NcWRHqZqV0uGxd62veqtFcsOVd0zRHqow4Jccxr+1NEA8lT/sSZSPJtP05XKLSVGJVkpxiEWkb0r5ndbGuU0P6TRFCCCGEkAC28G1XKglDiG9XXJNgrRipFF2yfFhLQ3Zzkgbn++dCSXDKSzCa51ElH4C8UIYfLL6j6S7ZdOOYjuWIh4ihyCXtVcpdhCiWoTs/iqRdb2QhhBBCCCFkYc7Xdz52+tYKUVmu9WwCQgghhBBCyGlxfr7zAReonWTi9uRA7MUeLB4K0sBqMfLcsBBLsvBrbWNTlp8PQFlFPex2w5wo5iOQqN2WLLmJyBglk2TQlUGlS5slkW4RV9KRU2wWIYQQQghZAa1c2XwFRKXSvTolQZWAalwGgsAPPGm53ddkvuVD80p2J4oDYkcy3Y71r1Ma4LpVp5DAsuJbUUplRVqWHnPxGlBEnCLkzks0XxfvgXKdO1YgUD4QnxH108VdrxBwPg7u6Eua9rSKk0DySZ6ZDDod6dvuiWK8Krcrfa/cQac1Pl5C8801XxCSpsDWa6k2EUIIIYSQtaJ1+/bt/FxYPk4CFBtf+SArwyhUsQz5PRBCCCGEkI3nfMV8LMMIAeJtKh5nxGgEY0iPigchhBBCyBZAy0cdvlsV3kYVL/PGK0IIIYQQQojPlsR8EEIIIYQQQtad8/O2K0IIIYQQQsiZwpgPQgghhBBCyEqg5YMQQgghhBCyEmj5IIQQQgghhKwEWj4IIYQQQgghK2FDLB+JyKCFz2KLHGXeuj28lmxgnbOBdFotaRVLFy04TkgaQgghhBBCatgQy0d78ncnst/cWPcP/21gnaOepHku+ayviYekIYQQQgghpIYNsXxY4R1CPPDX15ZNrDMhhBBCCCGnx+bEfBTCu7UmXIBg7ywLlqOBdW2qLIeZTWA57JovmBfHOyKJ5zg00mPYv6d/Ez3m8vDTFOj2OA8smrZaDphXZ0vSNW5MnUFNHvNIusYFqtOVQbdj3aE0r+6kzpnWr5S/5zrlJSOEEEIIIeRU2Zy3XcW5LtbR51I6WfdpD0V6mg7LZQj7fU3rWRugUOz0RK7ZND3NJ1Lp2ykXOP+annM0UmVh36S5pmmOVBnRXWOQHvVxZSGfHVV+qgpISJ1PSjyUPO1LlI0ki/Ylh0tUmkqsipRTLCKtX9r3+sG6Tg3pN0UIIYQQQlbI9rztCkqFE+6hZGS6fk33jVFJ/Ej3tT0hHEDhgNXEDwTf0XROaRnHa1iQdqR5lSwfukAhyW7aRIsRDxFDkUvaq9RtEaJYhu78KJJ2vZGFEEIIIYSQM2PLvvORqVKgiofAuuErHg0Di8rY6uEtp1kmIYQQQgghG84WfefDKh7R/sQCghiOcbyG7tvR9VHFNQppYDXxrRuzKNJqPtU4EOSzN7Abi3GimI9AonZbsuQmeknJJBl0ZVBpQrMk0i3iSjpyis0ihBBCCCEbxPZYPg53jevUgSogviuUT4z4DT8w3bpn+crKHmI+dHGKRKLpEO+Bvy6mA/lc0LzH+eiSRWdj+UDAeacvWdbXv4NCuYAyg3gP/B0rNHFP+vqfCTSHQhAXzfbTDDpGCTLf73DKgy6aryMkTYH2PXo/6u/LSbzJCCGEEELI9tC6fft2vh2WD7JOGAUoliG/B0IIIYQQQixbFvNB1oXRCFaPHhUPQgghhBAyhpYPQgghhBBCyEpo5Ypv+Vi5AvI7v2NXCCGEkDXjHd7BrhBCCGmCLXrbFSGEEEIIIWSdYcwHIYQQQgghZCXQ8kEIIYQQQghZCbR8EEIIIUQkz0V+8zdF0tTuOAWuXRP5N/9G5J3eye5YM/72b0VaLZH/+l/NNuSiH/1Rs36a/P7v25U15NM/XeRN3kTk3d/d7iCN8cqvLPLv/p3daIjf+i2Rt3orkRe/2O5YP2j5mMZTD4jc0GWT2MQ6E0IIOVv+/M9Ful2RV3kVkfd9X5G3ezuRV3s1kYcesgkC+N7vFXn8cbsxhf/0n0S+/dtF/v2/F3n0Ubtzzfm2bxO5916Rf/gHu6MBfuiH7IoH+vz6dbuxIlDe13yN3ZjCjRsiN2+KfNM3ifT7dicJ4q/+ysz5WXzgB4r8zd/YjQb5oz+yK+vJhlg+ntAL4G5d9Abwsie9dXs4lJfpRVSci+WcC+mFoqL98IT27ZiG+jmIJ+SBu++Wu+++V248+aS3bg+PeUKrcK8e0+P3PlBzvMITD5i0D/jtms0TD6Dsu2WBU8bl1J+zYJ2noWXcizxm5bNoGu3jme2c2i43Xv7yAGZMPTP7B2h+93p5aX+V6j6jzguN1yJtPyFP+mWdZNwdc/swhDn9HMyTWh07p7F4lXLjUV2WqfeTT9zw6rvsuIfeW07I//t/RuDedP7wD0XabZGXv9xYPSBkwwLy0z8t8sgjNlEAf/qnIl/+5XZjCv/zf4q84zuKfOIninzAB9ida85Xf7XIf//vIq/xGnbHCUF/f/zHi/zBH9gdZ8if/InIj/+43ZjCX/6lsVLFscgHfZDdSYK4dUvkkz7Jbszgr//arpwfNsTycdfk77OfI/Ist17sDOfZ94vc/xJdAm6oFx/VdCt4MvNiFe5f3NCv4iJ1RtorV+yGo6F+DmJS1vOe8xy5eNGs36XFTnhSdcSn5XmPPy4veclL5CWPPyp3PTZD4AX3PCoveaTartnc8+hLZKFTnrwh9z74tK1zlSXqXAfKeOyiPIw8sDx8RZ66WsknJA0EMa3rlUdumjQveVzukxvyRN2Um9kucEUecWUVy6Nyjz1SYm4+ECQflKevPDLJS/vr/vHYz65z+Hgt0PaTom1+CGXdNO25ed9FuXX1BAJvQB+GMLufQ4Ewf1Ue0967adv3kkf9kb8o97v9dnnkykW56C7xUFTZuvrYU3LlYZPHTR3kpx+c9GH4uIfcW07Ij/yIyNu+rcinfqrdscF84ReKvNmbGUEJioEDvw9QQnxgIdnbE3ngAZHv/E67U/mQDxH5uZ8zT3C/5VtEPviD7QGPf/tvjUKDh5x44o4+BF/3dSL/+3+b/HzlBYrKd32XyOd+rsg3f7M5zwFF6Wu/1qx/z/eY+vzKr5jt3/1dkS/7MpFv+AaRv/s7s28av/iLRrmAJcadX+VnfsY8+feZ1g/gG79R5L/8F5Ff/VWRr/xKkRe8YPJk+zd+w7QF4Lxv/VaRf/ons13FtW84FPn8zzd94fMf/oNpJ/JEObBMPP20PajAjQt96/NFX2TSAdTjhS80gi/q8aEfavb7wOrzC78wGbOf/EmzH/n+y7+I/Mf/KNLrmX0ACuh3fIfI532eydN/oo8+c21C2x98UOTXfs1sQ+mFlQ19B6V+Gjj/Sb0h7O+btmCOOL7/+81cQb9U+b3fM5a2r/oqkf/xP0Qee8z0K/i//1fk67/erDt++7eP991LX2r6APWujgWAhQjuU5iP6Jvv+z6RH/5hcwztQn9MA/10eGjGEdcP6ljlx35M5Cu+wszXn/1Zu9PjB3/QHEfbfA4OjrcFoM2u/8+ADbF8WEH4WfaX2F8nDbLKfrZCgf4DmeAuyAu6XpJXnnhMbl18XnHccdfFp+Wxxh9hLoIqFw/pTeb+h+W+OuGqqTo//ZT++Hv5POcelQVuyS1fswhJ84RuX7lP7r9nUqPnaL1vvbBanzntCiY8n7vuqlVdFqjzHJrKJ4AnHrsldz0yEeyfc8/9ct+Vp+QpTxYIp6mxMEzt50AKBeb+m/K4Khwqyx/jnkcrCo0qTo89fUUFf7sdCh4cqLLuhmv5Pgy4tywLnhJDQP/Yj9V2nuV9qCFe9jIjyEBYnAeUk7d/e5E//mMjMH/mZ4p88iebYxB0/+IvjNAFYfVZxZOrMhAAcS4UAgixWWb2w5Vnd9cIdBAuVfEs3Lfgsw5l5XVex+yPokmfw2oAReU939MIZXiCf+mSEdLxXRYI/rDazLKuQPh+3vOMwA7ZB+dDCK6CtvkC9qx+AD/1U0aQfu/3NgIllBSn1OEcJzCjnTj+ileYbR/0Jdp3j167EFz/z/8R+YzPEPniL7YJFNQDytO7vZsRoKEgvfM7i/y3/2aOI27HCfuOV3/1iQIBpej2baMU/PzPi7zBG5j9Pg8/bBQK9BHaNRqJ/OM/GqXnwz7MCPAQ6FFfCP8YM4z/M58pMhiYMYPlBMB6hDbBigJFFWP5Hu9hlIh3fVcjCOMcuCFNA3MEMUOYM1Ci0AfoT+SJGJ03eiOjgCBfBxSs5z7X1Av1x80BwriLh4B70pd+qcif/ZnZBpirvrKA+sItDvPMjcWnfZo9qGCsUX6nY+YsBH5YuDDeAGVDIZ0G0l2+bPoWCgvqizoAXFOYm1BMcBz9CEXRd1v8ki8R+YRPMH2BMYGi70CfYLwwxg5c82gzHqCcEZsT81EIwvbn49k6edy6j3MlcssT2NZlEYJcs1S62/fKgWuSb71w9djXv0/oMZfOd3Fy5bxYBcgXX52kOTV3Mq2fXxfU7eX2kE9IPyvOBeLeEygChVBQ/KN/cEPQ9ZIM4z/FsTxH0zxVkkZgafDcQe59QJ6onqbC0APODcqmuVH/6L+U170P3ECvlXjyxkNy465H5PEpj4/D6vxE2RUG7iXVfrznitx164Ve+U/q/f+K3OfLkYFprtx6bNLeJ5+QGyoo39LzfOa1y3BLHpxVZ2VuPtaV6EH9zbj14KQPSvMosM5o78zxCsonYCwC0kAALxkD9JxbT1ef/oeUFTIWAfmE9HPQdaHtuKVzaua8KPPkC7VQXykuCGt7CR2vW7fqLCjzr9N595aFgTDxfu8n8lEfZYTG0waWADz9rFtQl7oFwifcwKoLnshCWHOLjxPm/eBvCG8Q4r/gC4zA48BTfgg5EHoguH/3dxuBE3XCfQ8Cz2u+phFs6mIaIGCh/171VY0whie4DigkL3qRsbTomBaCMdxVoFggJgHKweu/vtnv8+EfboRpCFxQOpLECN0Q6mFZ+fVfr3dvgtCN9uBJNp5UQ9CEsAehbx6z+sGBJ9lP6W876vEDP2DajnUoWRDWAWJfoGQ9e4ZrAbR9COV4mo1y3ZN0B8qBQAwlAQoX8kKfhYAn+VDOUAbGDE/qq0AghzKAFwRAeEW7fX75l82YQcDF2GDOYB5CuMeYIXC/OmYYV7QbQfy4Nn/iJyZ9hfiIX/oloxBNA/VGW1Eu3PdgiYAQjXkOgRrjjz5zlg0oLJibUEIwJzBH0GeLgDKggEKhxVzBeGDeoH+woD4o+/77Tdve//3NvP2czzHnY767+tTx2q9t8oE1AkoKlEQ3jug/KByw6KF8XFuwcLh+xQsSMA9RFixKUEgxzxxQCHHv8q016Hu998vrvq7dsXo2521X9+gNH08BwHN1cN26A+5LT13RwYdblV0wsRclxDXrCfy4euXcr/V5lk5Gp4DApamr+bxcb8jP1psC0nT1gny5TmC9xgpcOc/VOj5Xj/l5Ne5OpvXaf0jrZeuCBSb1p7QdVeb1c4PAjcK5bzxH21125QhBhZB7tV1XHi7cNIrl4SsqsFTa9ZznyX0PWzeoIs1FeerBx1QcKnPrwXJempU8dK8n2MAt5MZd8sjC9Sxz44FbY9cSszwu9931WEUYu6d46vuQ3iDuhaB272Py1H2PVgSosDSPPnKXtu2qEdYeuiV36diXroygdmk+4/qaOl956qGy/31IPni6refDfebKI5P8yoJ2QJ2VueMVkE/IWISNlw/mpd4P7itbBILyCejDoHxC+jnkunjyaXla76P3aL1cPEudsO9jdI/yLFyoD7WsYryuPiYXPWuSY/64o/l6zPbhcvcWC556w4UIP94Q8OuA6xUWCNZIV13e531E3uIt6hfEEUBAqy4QRurSY6krAwt88l1d/OWzP9s8UXaLj3Nx8d2r4NIE4RxPuvHUHiBw9nd+xzwlhqALIQlPdgGeJoNnPCMsLgKB7FXg+uVAzAkUkarVAr9FeIuPD9rmgAXhvd7LPG0H7/Iu5u/RkfnrA0UBbcfvoANPrdH3swjpB4DYCKv8Fk/h0ea6eswDwqwD1oH/9b/shgVzCy5zDihPs95wVHWjwwsGoDDOo27Mnv98u6KgbRCO/TF7pVcy/QsXJh//zU4YazzVd301a8wcELJ9hQ2CP574QzDHeGDeAjceUEBh4XJ89EcbZSkUXAtQaKDEujGHsgRgvcNbwGAVwRyG1WMZ0Adv/MZmHW+/gjXLjSOuBVhF/LkJywfqhXmI+QfLl39tI6bI52M+puw6CEXk6lW7cTZsz9uuMBeeW/mBuQih3DNNNQGsDE/rr+vQWRrsAoH3qcqT2Wfphfdc+8s5jqE4A16m9XrWfdof3q/4s7WvnuvdeBek+HHXH/7ZT8pPmSdfKLfuKrvVwPXo0fsq7dJ0jz1kBCcj1NyQGrVLhTQVdHwXHbh93HVDHrPSmLFqTJ7+u6fKCwXWPqll61x58KpXH12uamalJ/IqgD2kyvTjjz8uj6ug9ujjj8rFxyoxBCFpgAqijzuhD24terE4HRgs2657rqhg7/l4NdI/jjl1BvPGq2BWPiFjETpejifxhF+FYxXqS/JuYD5z+3DR+swi5Lp4Gv11Sx5AbJGN63j8vrvksWmDivpJxeVq0TpbxeklN++Tp2rmc9C4NwGeBONH23dXqMNZGOCSVbVGYMGTTGe1qC5w4agDTz7f/M3rF7h4QBipLh/5kSKf8inHF7iI4KmtW3ze5m3MXwjUDjypxxNiPBl1QNABEOggDMG1B642n/VZE5ciKB7zBFkoKHWCrC9YOTcduFv5YBuK0TTQL8jf4fKE20oVJ9xCyVuEkH4Afj0ArD119VgE9Ns//7PdsFSVCViH/DiLKtU6hIwZhOHTGjO8ujd0zBzVvsVDc4wBrjMoOhgbzHkooqDOiuLXvQ6/X92YQ9HAmOu9qVB2/DFHvBDWYYmDK6BzrZvWd1VmjSP6tjpP3TbcJtH2eThLCCxSsBRizM9a+dgYy8c68Sxnaagsu95TCnJijrsrGeHs4kKRrCoMXr0lF+9zQcdYHlHxKJSJ20fxBHWcx+Spsi9kBtVZleKbXj7j5fHJ/CmE0Eo777qr7P8ekqaOJ1QQvHhl8iQopF0hNJVPHdU6T2d2oPOxfALGIiiNUrzt6iE84T/+tL4gIJ+gPgysz2wCrwu4rqm2dvHh+yfxHvhbKEnHqXe5Upapc/Eg4S65EaRVLBHgPg/48SN4FoL9LOB+gQXuHHBDqVvgdlO34Gk9BI/qgifCdemx/Of/XF8G3DRcXfwFbZjmdoUnyAgWr3vtLQQn1AW4J9OIZYCShYBfKGdwP3nDNzTHoDDhafcsIITPE8ZcWc6i4ICQVRd05DOvfIcrAwrgIoT0A6irh+tL9OuyzFNg8CQcCiqAgAn3PT+gvXo+xmyeIL7ImFVd3CA4z/NAqSoTi4KyIUg79zu4wGHOO6sW4o+qCpDfZqd8+Wl8C5trG+ImMOZQzN2Yuwf2r/d6RrBHX2NxrnVQ7kKsgVX8cYS1E9e9j3Mbe8u3nMTqOAUQIE7HB+5VUEDgMoa4G/TXSeZhA2yP5QPz+9YNs+54Srf3l4ihmAVcnJ6lP7ClV9QqiPPYr5QfysvcD/mTxn2s6dcAP1uFrZfrhfKU9wjxZVr/Fx97zhlMEzEfc7nnPrn/6VuTtxM9+YQ8duuuif/5c54nV572fPoBnjw/5rULbiNyl94/7DlP4pWhjx1/wqvcwpt1vLye1HFYOHB2bp3xlPaWPPTAEyU3EQiud987mT9QYqBFeLXRdlwpCVghaYAfF4vXpT749P3y8IIWK5xXuNvYvPBK1HsfVEH7SgOaRQ0hdQ4Zr5n5hIxF4Hgh74duXZGHYV2x2eMaGRsIAvOZS1P5BF8X9+jc1b72FIAnn7glT7sf5Ap1LlfhfQiXLi+NvZarDxsauU4LNP/CClNjLXTADQSCPZ5ww7JQB5QTWBjwg+5bIvzFt1z4y2u9ls3kDIFvugvYRltf+lLz9Bg++A4IqfgOCNyAnMvJ3/99+U1PEILgKgJByaWpAkEWyzzgyw8hEv7/EJgh8GEbsSizmCdIO/BqYbi2QIjEU2ooewjOnhUUDFw/wN1rWj/MA0+1AYTXWVaKOpwC44D7DAKv4XaDWAPENaDvAOYXgCCOPsRboPAGMB83ZlDsZo0Z3LNmgXkMSxmUXVgH4NKGvoUy0NSYTQPWSVjr/JcFoC/gIgdQL7yVC/WCFQQWCz+4/E3f1Ajn2A+goPtvzHJtu+++ibKKGCX0K8BfzFMAgX5nZ6LQoH/xNjEoRrMsFJgLeMsVFBc8xIDFFAHkAPcVXJd4mxWOI6YDMR6Yg3h4AEsL2oB96He4iME1rAr6CXMdx32r5hnRypUzVUB8c+9JebEK7b5ADbenK4/qANltBInXWQBhyXBWi5A0oFrWXXrsHnscisgte8yd94Tm63QMxHg4dyx4WO8/OCkT+TxXl0XiPoLqrL+uTzxUuFEUoG+gsKEN1bYFAEEBLiEX8RacBQXZhYAA8tCDcgvVvnhFHnl4ItwZEHz6kNwoEihIo0178EZRueLJKoSTh3TbpLgoV0wCFbTwilC9ST10t9zQg1ceuSkXb03yunhFBdVH7z/+FPdJFbyv3hi77xx7Mj23ztp/EJjGdaovC8LZQ9rJtjZFXatdPTdNqS7a9iv3yaP3T1EY5rSrXGf048N6/FjvzMznyRv3ylV0doVSWXPqfOPewPEKbHvIWMxOo+XcreUU62Vm92F9WQULjcXxfEL6ed514c+jQnGz/VxYMfS6qq1z4XFWc0xZvJ+1TvfrHLMVCR73UKD86LUz9x6GQGbHS15ihAQIOy5eAsK2E/Q2FQhV8FnHG3ucBwR80PEWLATbAghuCHqGcIQ4A1i/EMiLgGGAp634QCEUGfjAIwagCoLMEcTuC9EQPpGH/4YeuLogNgBCJNLCzQT+9i7GAwHFiKXA02o8dQawVGFMIKQBPPXHeVCiUK8qeLqNmBj3ViEoX3iyjSfxEEYRSwDBDoG96APn8jSvHxB/A3ci//WmaCMUKOf+8nEfNwkeRzAx3N+QBkIvYhogqKL/IR/hzVoAsQwox/XdR3yESQdBF24/UBDQv/6HIdHXUC5xDG5paI+znAHENEE5Rn+jP91X3X2QH5QW1368cQmWEAjBCKx2YPwxZi7mAi5XUIzcW6GgGMEaAQHaPXWHEAwBHcI3gHAMCxLGpu4L+OgjvCQAb7zyQR2xH1YOKBZoJ16fjLGA8I8YHMR+AHytHUobxtB9xwbB6njrFtoG6xrmGYLnXV9DIUd6zEcI+rjmUU/0PxQPtBFKKNz5UBbSOQUE/epeaVtVHgHiN2AdQv3w2mQoexgz/81mmPvYB0sp5ifmj//xQrwOGsoR5ibqhXsUlGQoZP5LFKAYgWXijxqmdfv27fxMLR9NKh+EEEJIAOYByhV5ZNr3ahy+8uGASQ0CAZQQCI+brnz4QKDHk/R//a/tjhqc0OsEfwcESygfs9yj8NQYr2INBU+wnbXgNIDfPARHBA5PA0pNnZvKtH4IAYIi+sGdCyvIIm8fgvKB8/H2I9RjVhA1BPBpdYTVB3WZNWaITYLVJwQI2Civ7nXLpw1cj1B+XV9AGcU4Q86FEuMrHw4oP7PmPUBfo9+rY4X92Fc3t6GswH1qHhgHF3heB5TEf/Wv7EYNuPbwZjKAa7jqLoc3X+HFDXXfQlkx22X5IIQQQgKAJeXWlQDLbZ3y4YCwAreMdXCfIucLKB9QmPDEnywGFEZYaarKxzYDCyCsXM6id8ZsT8wHIYQQEsj9jzfwtj48JaXiQchmgZifeXEs2wbcBOEOuAaKB6DlY13BK32H8wJIL4p0H18sPoQQQkg4sywfhBBCFoYxH4QQQsg0qHwQQkij8DsfhBBCCCGEkJXAmA9CCCGEEELISjj7mA9CCCGEEELIuYCWj9Nm1BUZ6EIIIYQQQsg5Z0NiPhIV4Fu6dESOMm/dHiYbyAaOaTaQTqslrWLpogXHCUlDCCGEEHJO2RDLR3vydyfSxa0XO9eb9lCkpwupsIFjGvUkzXPJ86HEdtcxQtIQQgghhJxTNsTyYYVTCKnAXycbCseUEEIIIeS8sTkxH4Vwap+WX4Dg6p6cOzKRpGPdd6wLD7YPdf+YRGTPHbdpSseVQ5dHV+TIS7+HbT1+NLDH7TJy7kNu22RTTjcj5qOICfHOT7Dtpw+o8zxcGWiD30f44qUP6rznHUf6kS3Lz6Ooj6ZD213dSnkF1nnumBqSrnFj6gwWbDfQ/ixcoDpd7daOdYfSvLqT+mZav1L+nuuUl4wQQgghhJwUvO0KHxr0/24kWZzn1/t5fsdu52meD6M8P9C/jqGmGR+34Dw/TcEwz/vaNdf1/Kx6DOi+63reGGxr2mreBcjLT+txoOcM9bhPpm3w0wfXeQ53kK/XH3dQZ21jZjYNus8vqzjHq4vLA31SrON8t34KdbYMY8kxVaP+cufnaT+PJMpjd36aajMkj72uT7Vd1fxRrp9mwjCPJcbIziAkDSGEEELI+WJ73nbV7ons+E/cd3VnLHLJuvLgqb7/pN4teGKf3TRpSui511LNt84VSPdFo8nT/JHmvYPyzWYwOP1yJTIA7XAxIgvXeQ47Xn+M4yw8jjTPxCtnr28PeCAP9ElhpfDXLU3XWVEFAEqypD1b92WIYhm686NI2vVGFkIIIYQQcops0RfOVbCMVVno5Wa5tq/7VOD13YF2VJh2x/3lmgr8i3JJzzlQQRscqCJSVSKaosk6zwQKgy6XvT5cNlB+ZXUmhBBCCCGbxPZYPvDE/tBXNHRBcy7YR9yFZaKijADEMuxZJWIhVNm4rEoHYjSWsXoAPIhPKmXDioK4C8SXNF7nGRwhWEX7ygV94/W31bqFcAp1PlHMRyBRuy1ZcrMwRsEklQy6Mqg0oVkS6RZxJR05xWYRQgghhKwV2/OFcygfUAjg8uPAa27jikXiUIXgAz9NX9O4J/IqBTrBv4TmUWcFKAK0cX5eyO0l4HZU980KWAV8C0C1PnBrirUsX5mZWecAIPg7ZcCVj/5ywfGwdsAdq1QOLElal0TTY/2yNtAdK/LQ7SIwHn2jS7Gu6eCqhrqftM4eUD4Q+B3108VdrxBw7qLGo76kaU+7YxJIPskzk0GnI32rCEQ6BrF0pe+VO+i0xsdLaL655gtC0hTYei3VJkIIIYSQDaWFIPOtsHwQskEYhSqWIb8HQgghhJBzxBbFfBCyOYxGMIb0qHgQQggh5FxBywchhBBCCCFkJWxPzMd5xMWczMSLwyCEEEIIIeQMoeWDEEIIIYQQshIY80EIIYQQQghZCdvznQ9CCCGEEELIWkPLByGEEEIIIWQl0PJxEvDxvuLjeoQQQgghhJB5bIjlI1Ehv4XPR4scZd66PUzOL3jjVzEfsJxEEdzAOZYNpNNqSatYumjBcULSEEIIIYSsiA2xfLQnf3ci+9pYrBc7z472UKSny3njUIXyQxXQ14Gdno5B3sA4rOkcm0XUkzTPJZ/1lfSQNIQQQgghK2JDLB9WGIRQCPx1QhqBc4wQQggh5LTZnJiPQhi0T6cvQFB0T6odiciec7+xLjP+0/kiPkP37+nfRI+5dInniFJy4dFl5Fxx3HZduimuPrAOuONHXt1Qvu/Kc6jb43rrOX595tXZP17koWlQZ5efn1eT/XOg5x14aZZxT2qif4KZ03bH3DlmSLrGjakzWML6k3SNC1Snq03vWHcozas7aVem9Svl77lOeckIIYQQQjYPfOEcHxr0/24kwzjP79h1R6b7DlK7odzp53k/muy7o3+vaxdkZtOAfXreGGzrOdW8C4aan5+2Co5r/jg/8+rhGNbsR52Hep5jXp3dceRTrOOYW/fq1lj/KAdemhPRQP+MmTEWIW1fgGEsOS6dqL9kH6T9PJIoj935aardLnnsNSvVcajmj3L9NBOGeSwxemAGIWkIIYQQQk6X7XjbFZ7I+0/83YKn5NlNm8iyE4tccq41eLptVifovmg0eTI+0rwRV3AsXSha3rVUpG3LHKN1O9Jj1f2II0F7/Kf/8+qM48ineFLvr1sa7Z+m0fJO2j+zWKTtgagCoBpTLmmvWucFiGIZuvOjSNr1RhZCCCGEkK1ie77zsdO3gceV5ZoqDotySc85UKEVHKgiclmF4E2nyf7ZNM5z2wkhhBBC1ojtsHwUlonEPM32QRzDnlUiFkKVjcuqdCR6/omsHrPQMlDnUSVuAHVuuszG+0e54wJgtP5F/Ibm1SgN9c8ptP1EMR+BRO22ZMlN9K6SSaL9O6g0oVkS6RZxJR05xWYRQggh5JzTgu/VViggAMHJB56E1u6rDKvCJ4Cw6QRQPAnHU++kpfvNLrmcTtyNANx19nB+rvnYfQ648NS5/bh8ITLu1QVhq0BdfSVsqc5aflvPj62lZV6d4RaFb1IU6ziuFS2UAJSjS7GuaeDWBGG9sf7RdH5gOPK5rOmDFaaG+gfMHQvLrLYvCJQPBH5H/XRx1ysEnLuo8agvadrTrp8Ekk/yzGTQ6UjfDm8U41W5Xel75Q46rfHxEppvrvmCkDQFtl5LtYkQQgghJJAWgsy3QvEghCyNUahiGfJ7IIQQQgg5RbYn5oMQsjSjEYwhPSoehBBCCDlVaPkghBBCCCGErITtivkgZ4uLk5lJNIlBIYQQQggh5wpaPgghhBBCCCErgTEfhBBCCCGEkJWwHd/5IIQQQgghhKw9tHwQQgghhBBCVgItH6cNPt7X+Ne/T8C61YcQQgghhJwbNsTykajA3MLnms0Xvcfr9jA5HQpFRfvaffm8YAPHIhtIp9WSVrF00YLjhKQhhBBCCCEnYkMsH+3J353IvqYV68XO9aY9FOnpsi4sUh+kjaufndvAsYh6kua55LO+3h2ShhBCCCGEnIgNsXxYIRfCLvDXyYrhWBBCCCGEkOXYnJiPQsi1T90vQAB2T+AdmUjSsW5A1hUI24e6f0wisueO2zSl48qhy6MrcuSl38O2HseH9Mbn6zJybkhu22RTTjcjxsK5NrklwbafPqDOIQTVp9KHrs1V5o6FIekaN6bOYIn6aj8ULlCdrla3Y92hNK/uxCEq074o5e+5TnnJCCGEEELIuoAvnONDg/7fjSSL8/x6P8/v2O08zfNhlOcH+tcx1DTj4xac56cpGOZ5X7vmup6fVY8B3XddzxuDbU1bzbsAeflpPQ70nKEe98m0DX764DqHMq0+tg1+e+9o2uvwRKrUMZBhLDmmWNRfsq5pP48kymN3fprm/Ujy2KtO2o+O5Y9y/TQThnksMXpgBiFpCCGEEELIMmzP267aPZEd30qwqztjkUvWJQhP/mGlKFkRdEEwdXbTpCmh515LNd86lyLdF40mFoiR5r2D8s1mMDj9ciXCAO1wMRkL1/kEHGl+aIPf3h2tW7V+C6AKAJRbSXt1fRhIFMvQnR9F0q43shBCCCGEkA1gi77zoQJqrMpCLzfLtX3dp0K6/6amnf7kuL9cU6F7US7pOQeqHIADVUROIKTPpMk6E0IIIYQQcoZsj+UjaYkc+oqGLmjOBfuovLBMVJQRgJiLPatELASsAqp0IEZjGasHwAP9pFI2rCh7HRNr0XidZ7Bz1VpavPgMxLwcVMpegBPFfAQStduSJTcLIxJMScmgK4PlqxxAIt0irqQjp9gsQgghhJCtpAXfq61QQKB8QCGAm5Kj7lWxhyq4+wJ1u69pnBVBpUkn+JfQPOpeTwthfQ/n55qP3eeAq1RtsLam960W1frA1SnWsnxlZmadAwmqj7Y/2Z0oIKgLFCSUXa13AFA+EPgd9dPFXa8QcO6ixqO+pGlPda5JIPkkz0wGnY70bZUj7btYutL3yh10WuPjJTTfXPMFIWkKbL2WahMhhBBCyDmnhSDzrbB8ELICjEIVy5DfAyGEEEIIWZgtivkg5PQZjWAM6VHxIIQQQghZAlo+CCGEEEIIISthe2I+ziMu5mQmkRSvDF4mIJ4QQgghhJAGoeWDEEIIIYQQshIY80EIIYQQQghZCdvznQ9CCCGEEELIWkPLByGEEEIIIWQl0PJBCCGEEEIIWQkbYvlIRAYtfIZa5Cjz1u3h02TUNeUl9tPaG8sZ9uGyZAPptFrSKpYuWnCckDSEEEIIIWQt2BDLR3vydyeyr43FerHzdGkPReJt+KTcGfbhskQ9SfNc8llfEw9JQwghhBBC1oINsXxYYRlCM/DXSSDsQ0IIIYQQcrZsTsxHISzbp/cXIEi7J/nKHlyIdBklk/XCVWpgE3gcdr00nRp3qkz36X6Xx56mX9Q1yblq4Vw/r2pZxUcCK2WNtHzg51HUV9P57SvlVWk30h7afHxm9aFH0jVuTJ1BTR7zSLrGBarTlUG3Y92hNK/upL6Z1q+Uv+c65SUjhBBCCCFbxua87SrOJ+5Pl9KyK9Q1PQY5+kAl11iP9XQby2Xdt+cpIFAEdnomfZFG00Z6zliQV2F4b1f37U/yQDnZghIxXLWu9VW5GKmQb/PCV8aPoFzYNGDnarm+sSoETmHy87isaa5pPVSwN+u6H4qIA/VH/7h80K4dzaeqgMzqw6aIh5KnfYmykWTajzlcotJUYlWmnGIRaf3Svmd1sa5Tw1OoDiGEEEIIWR+2621Xl1Vg912JoGjsqMRbWC7wV6XbtnccQMiHBQJpjm6ac/w0O3rO5SWlYpx7yeaFesHy4IPyEs9isadKRRXkgfoUVgp/3YK6Vy0+WKCQZJr/EsRDxFDkkva8fliUKJahOz+KpF1vZCGEEEIIIeeIc/Cdj8woFmsHFAZdYMkYWyxUEVqGHVVaxnl4yzVVpAghhBBCCFkTtsvycdBVRcNzNSosGiqYF0/dYxXSVdh3MRUOxFYUFhJdhxtUYUnw89Bz4M7VNHCncm+eKra1zLoYlXk46041ngTt8l3OFuBEMR+BRO22ZMlNqIZKpk3vyuAUunlCIt0irqQjp9gsQgghhBAyg1aubIUCAvelKFU5dneiPLRV8YgrT/8RcD5WJlTwb+vxUuwDlAAvD7g9QT/AObAwhFgTIPg7ZcCdg/q5eA9YO+COVa0L6pFoeqxfVsXEHSvy0G0V0AslqqdLsa7pEEsCxamUl1LX9kCgfCA+I+qni7teIeB8HNzRlzTtaXdMAskneWYy6HSkb7s5ivGq3K70vXIHndb4eAnNN9d8QUiaAluvpdpECCGEEEIaoXX79u18KywfhfKRWysHIWWMQhXLkN8DIYQQQgg5M85BzAchIqMRjCE9Kh6EEEIIIWfIdlg+8KancVC554pECCGEEEIIWRu2J+ZjFRQfBURMxiyo/BBCCCGEEFLH9sR8EEIIIYQQQtYaxnwQQgghhBBCVsJ2feeDEEIIIYQQsrbQ8kEIIYQQQghZCbR8nAR8TLD42B8hhBBCCCFkHhti+UhUyG/hc9YiR5m3bg8TcmI2cI5lA+m0WtIqli5acJyQNIQQQgghK2JDLB/us+X6dyeyr7HFerHz7GgPRXq6nDcOVSg/VAF9q1jTOTaLqCdpnks+66vtIWkIIYQQQlbEhlg+rDAIoRD464Q0AucYIYQQQshpszkxH4UwaJ9OX4Cg6J5UOxLzpfPCXca6zPhP54v4DN2/p38TPebSJZ4jCj4iOD5fl5FzxXHbdemmxHzAOuCOH3l1Q/m+K8+hbo/rref49ZlXZ/94kYemQZ1dfn5eTfbPgZ534KVZ1D0ppCxQfNTRO470I1vnJtvumDvHDEnXuDF1BjV5zCPpGheoTlenRse6Q2le3Ul9M61fKX/PdcpLRgghhBCyeeAL5/jQoP93IxnGeX7Hrjsy3XeQ2g3lTj/P+9Fk3x39e127IDObBuzT88ZgW8+p5l0w1Pz8tFVwXPPH+ZlXD8ewZj/qPNTzHPPq7I4jn2Idx9y6V7fG+kc58NIsS1BZus+vc7VNLo8m2r4Aw1hyXDpRf7nz87SfRxLlsTs/TbUZksfesKfarmr+KNdPM2GYxxJjts0gJA0hhBBCyOmyHW+7whNy/6m3W/D0O7tpE1l2YpFLzrUGT7fN6gTdF40mT8ZHmvdOryZdKFretVSkbcsco3U70mPV/YgjQXt8S8K8OuM48ime1Pvrlkb7p0HmlXWkdUu8+u717QGPJtseiCoAquXkkvZs3ZchimXozo8iadcbWQghhBBCtort+c7Hjgqmvfz4ck0Vh0W5pOccqNAKDlQRuaxC7abTZP+sBCgMulxWxW1c3yWD+zeu7YQQQggh28l2WD4Ky4QKqtWYAcQF7FklYiFU2bisSkei55/I6jELLQN1djEMDtS56TIb7x/ljguA0foX8S2aV5McIf+21ttaB/D622SJup5C208U8xFI1G5LltxE7yqZNr0rg0oTmiWRbhFX0pFTbBYhhBBCzjkt+F5thQICELx94Elo7b7K+Cp8AgibTgDFk3A89YZLj5Oh8YTduQCBItgZ5+eFDFwCLjx1AdYuX4iMCJQ+lkYVjurT+1Kdtfy2nh9bS8u8OkMwh1BerOO4VrRQAlCOLsW6poHbF5SZxvpH0yHQ27UP+VzW9KEKU2hZ1b5BvySaHuuXta3u2EnbviBQPhD4HfXTxV2vEHDuosajvqRpT7tjEkg+yTOTQacjfTu8UYxX5Xal75U76LTGx0tovrnmC0LSFNh6LdUmQgghhJBAWggy3wrFgxCyNEahimXI74EQQggh5BTZnpgPQsjSjEYwhvSoeBBCCCHkVKHlgxBCCCGEELIStivmg5wtLk5mJl4cBiGEEEIIOVfQ8kEIIYQQQghZCYz5IIQQQgghhKyE7fjOByGEEEIIIWTtoeWDEEIIIYQQshJo+SCEEEIIIYSshA2xfCQigxY+12y+6D1et4cJOTEbOMeygXRaLWkVSxctOE5IGkIIIYSQFbEhlo/25O9OZF/TivVi54RDFRYPVXDcJDaxzltJ4BxbJ6KepHku+ayvkoekIYQQQghZERti+bDCIIRC4K8T0gicY4QQQgghp83mxHwUwqB9On0BgqJ7Uq3g43ZwkznIdOlYl5kat5niI3je8b2uyKhidYAlojiux44STeOlHeel5yRePrBcuHQjmwQOLm5fsWh638IRWud5jLReOA/18+uUVBxsZrXdz6Oos6YbefUv5TWnXQW67dcFabDt0o37qpJXonX0CRkv4Oo/zgfbuowJqbMya455JF3jxtQZ1OQxD61b4QLV6WoVO9YdSvPqTvo40/qV8vdcp7xkhBBCCCGbB75wjg8N+n83loNIl9Ru1KHH7thVcKef5/3YbvgMdb92zXXNL6vJr7o/0zz6us/Pe6j7/G2AdNX6za1zAEU7vHzu6N/rWv/MbBp036y2uzzQrmId57t1L11Iu7B9Xc8bp9Njw0o7h+hf5OXtQ1k4bwzKt6ugWheA/hvqePlkS9R5AYax5Lh0ov5y5+dpP48kymN3fppq10see81IdSyq+aNcP82EYR5LjFk7g5A0hBBCCCGny/l629XRTZHEewK+17cH6ohFrqUi7YrrDZ7G45i/vz00T80dSFN9qo8FFoRM63Aa7GidLtk6jWMWPELajjzQruKJv79uCW1Xu6fn+el2dadXP8dl9Ju3b8ee5yw/IXWGceCy5u2D8nuaNziFsVAFAEq7pL1KexYhimXozo8iadcbWQghhBBCtopz9J0PCKC6XFaFopfbxQqop8GOCsrjcrzlmgrGK6fBtge1S4Xq2Cvr2r7u0/KrrmC1qDZRKB+rrjMhhBBCCDltts/ycccFXagQW8RvWN//I+xvqyBqnzbjdarVGIMQ8HQegrEfe4By/DgN9wS/KmwjNmGvpsxpdW6KJtse0i5YKw69NLDCYGpdqDzeP9DzUBcHrBRHqiggWWidcbi6f6TbiBXBmCw6FgGcKOYjkKjdliy5WRh2MC8SnRODShOaJZFuEVfSkVNsFiGEEELOOS34Xm2PAqLSmR8Y3lZB9jKET7t9qMcOnASHp/OxnqJpsA4Xqx2VupzQWkLTlZ66QxDenSggeDqf6Tae9vvuTqXyFNQnhvLiM6fO84AQ7QRrPOHH03wI/06fQd3g7jSr7ZdVyHfHijx0u1CA0G5dinXXR7o6r10oH+fC3ckB1zSU6UCayPab68dqPnPHyxw5Vh+4j8Va3sJjEQaUDwR+R/10cdcrBJy7qPGoL2na0yGcBJJP8sxk0OlI33ZNpO2JpSt9r9xBpzU+XkLzzTVfEJKmwNZrqTYRQgghhATSQpD5Vlk+zgooLVXlg0ynUD5yVQLsNjlTjEIVy5DfAyGEEELIKXKOYj5OEbj5HMFFyG4TsmGMRjCG9Kh4EEIIIeRUoeVjWfD2JOcqVefmQ6bj913VhYoQQgghhGwtWxbzsUUg+Hrmq4ABBXdCCCGEELI50PJBCCGEEEIIWQmM+SCEEEIIIYSshPP1hXNCCCGEEELImUHLByGEEEIIIWQl0PJxEvCBv6a/Rn7eYB8SQgghhJwbNsTykaiA2sLnmkWOMm/dHibng0JR0bF3X3Qv2MC5kQ2k02pJq1i6aMFxQtIQQgghhGwYG2L5cJ/Bxof8Ivtq2TX4qF97KNLT5bxxqML9oQr6TbBIHyJtXP0M3prOjVlEPUnzXPJZXxMPSUMIIYQQsmFsiOXDCpUQLoG/Ts45nBuEEEIIIZvC5sR8FEKlfcp9AQKne+LtSMyXswu3G+t64z+ddy47e/o30WMune/Cgw/7jc/XZeRcetx2Xbop8QqwDrjjR17dUL7vEnSo2+N66zl+febV2T9e5KFpUGeXX9U9qan+OdDzDrw0y7g5hfShaDl+Xap955g7NwxJ17gxdQZLWG2SrnGB6nS1uh3rDqV5dSf9k2k/lPL3XKe8ZIQQQggh5xd84RwfGvT/biTDOM/v2HVHpvsOUruh3OnneT+a7Lujf69rF2Rm04B9et4YbOs51bwLhpqfn7YKjmv+OD/z6uEY1uxHnYd6nmNend1x5FOs45hb9+rWWP8oB16aEzOtD1F2pX/uaFrUx++fBRjGkmPKR/0l657280iiPHbnp6l2l+SxV51U+6+aP8r100wY5rHE6IEZhKQhhBBCCNkMtuNtV3iK7j/xdwue2mc3bSLLTixyybno4Cm5WZ2g+6LRxCow0rx3ejXpQtHyrqUibVvmGK3bkR6r7kdcA9rjP+GfV2ccRz7FE39/3dJo/6yII60X+t3vH9Ttsi5LogqAai65pD0vz0WJYhm686NI2vVGFkIIIYQQUsP2fOdjpy/Sy48v11SAXZRLes6BCuzgQBWREwi8a0OT/UMIIYQQQsgSbIflo7BMJOZJvg/iGPasErEQeMKuSkei55/I6jELLQN1HlXiD1DnpstsvH+UOy4ARutfxLdoXk2yc9VabLz+QezMQaUNC3CimI9AonZbsuQmekXJJNF+GSxf5QAS6RZxJR05xWYRQgghhDRCC75XW6GAAARv+8Jpu68yvn2yD0HbCd+wAuCJf9LS/WaXXE4n7kYAgu8ezs81H7vPAfel2sBnmy9Ez726IGxVOKqvlS3VWctv6/nudbLz6gy3KHzboljHca1ooQSgHF2KdU0Dty8oM431j6bzg7+Rz2VNv4jCNLcPgbYt2dU6uDZqm1AFtKGULgwoHwj8jvrp4q5XCDh3UeNRX9K0p102CSSf5JnJoNORvq1yFONVuV3pe+UOOq3x8RKab675gpA0BbZeS7WJEEIIIWTFtBBkvhWKByHnEKNQxTLk90AIIYQQsgFsT8wHIeeQ0QjGkB4VD0IIIYRsBLR8EEIIIYQQQlbCdsV8kLPFxcnMJJrEoBBCCCGEkHMFLR+EEEIIIYSQlcCYD0IIIYQQQshK2I7vfBBCCCGEEELWHlo+CCGEEEIIISuBlg9CCCGEEELIStgQy0ciMmjhs8/mi97jdXv4NMGXv1Ge+/r3VnOG/bws2UA6rZa0iqWLFhwnJA0hhBBCCDl1NsTy0Z783Ynsa1qxXuw8XdpDkfi8fMLtDPt5WaKepHku+awvfIekIYQQQgghp86GWD6sIAyBGPjrpEHYz4QQQggh5PTYnJiPQhC2T+YvQEh2T+kV5xq1p3+TjnUXmuIqdahp9uxxuBQdS5OV80Cex9yO9JxxHjafQz1vEULrXHy4r1KfkS3Lz6Ooj6YbeXUr5RVY51n97JF0jRtTZ7Bgu0HSNS5Qna4Muh3rDqV5dSf1zbR+pfw91ykvGSGEEEII2STwhXN8aND/u5Hc6ed5P8rzg9Ru69/r2rzMbBYM9XhmjzuyWPcP7QbOqaS5o8eQzziNMtRz7th1B/JxZYcSUmfUyS+rOEfLcrg8UOdiHee7dS9dU3W2DGPJMX2i/nLn52k/jyTKY3d+mmozJI+9bk61XdX8Ua6fZsIwjyXWf2cRkoYQQgghhJwW2/W2q51Y5JJzGcJTe7NqSESO9Hi74kaEmA5YF2DdOLqp5/TKaZDnZS9SAGl964JbYGXI9PxFmVlnBXVKvHL2+vaAB/JAnQsrhb9uabrOiioAUFwl7Xl9tShRLEN3fhRJu97IQgghhBBCtgR+52MZdlQB6OXHl2uquDQKFAZdLqdeOaosLcPK6kwIIYQQQkg95+g7H7EK4CrIu3gJB+ImYO0oYh2uWiuBl+ZIzznQxVGk1e1qbAby2dNzm+RopP+0tTxrHcDrb5MlyjiFOp8o5iOQqN2WLLmJKBwl06Z3ZVBpQrMk0i3iSjpyis0ihBBCCDm3tOB7tfEKCIRoJ1jjCT+e5sNVCbI7gOXAuTYh4HysTOi+tqYtvUoXAv7uRAGBSxNOxTkub1DKR2nrsdgeCyG0ztX6oq6Jpsf6ZVVM3LEiD91WAb1QtHq6FOua7prmBeXqpHX2gPKBwO+ony7ueoWAcxc1HvUlTXvaHZNA8kmemQw6HenboYhivCq3K32v3EGnNT5eQvPNNV8QkqbA1mupNhFCCCGEkLm0EGR+PiwfhMzGKFSxDPk9EEIIIYSQU4ExH4RYRiMYQ3pUPAghhBBCTglaPgghhBBCCCErYTtiPtaJ4qOAiMmYhReHQQghhBBCyDmBlg9CCCGEEELISmDMByGEEEIIIWQlnKPvfBBCCCGEEELOElo+CCGEEEIIISuBlo+TgA8FFh/yI4QQQgghhMxjQywfiQr5LXyqWuQo89btYUJOzAbOsWwgnVZLWsXSRQuOE5KGEEIIIWRFbIjloz35uxPZV9Rivdh5drSHIj1dzhuHKpQfqoB+UprKpxHWdI7NIupJmueSz/oie0gaQgghhJAVsSGWDysMQigE/johjcA5RgghhBBy2mxOzEchDNqn0xcgKLon1Y5EZA+uMm6pPFUv4jN0/57+TfSYS5d4jij4QOD4fF1GzhXHbdelmxLzgaf67viRVzeU77vyHOr2uN56jl+feXX2jxd5aBrU2eXn59Vk/xzoeQdemkXdk0LzGfeZpi/Quri0qJc77re5OObSO+a03TF3jhmSrnFj6gxq8phH0jUuUJ2uTo2OdYfSvLqTfs60fqX8PdcpLxkhhBBCyOaBL5zjQ4P+341kGOf5HbvuyHTfQWo3lDv9PO9Hk3139O917YLMbBqwT88bg209p5p3wVDz89NWwXHNH+dnXj0cw5r9qPNQz3PMq7M7jnyKdRxz617dGusf5cBLcxLm5qPHqv2LOl7XxTFE/6JtXj7H0gS0fQGGseS4dKL+kn2Q9vNIojx256epdrvksTfsqY5DNX+U66eZMMxjiTHbZhCShhBCCCHkdNmOt13hSXr16XfxBFz3ZTdtIstOLHLJudbg6bZZnaD7otHkyfhI897p1aQLRcu7loq0bZljtG5Heqy6H3EkaI9vAZhXZxxHPsWTen/d0mj/rBIt/7I3FuCgr/t0PHwua5/5LlLFeKF/dX2RtgeiCoBqPLmkPa/MRYliGbrzo0ja9UYWQgghhJCtYnu+87GjQmkvP75cqwiqIVzScw5UaAUHKvxeVoF802myf1bJpf3JWBRKmbYjSFBXhcUpcJvadkIIIYSQLWM7LB/uSbcfnwAQxzCOF1gEVTbwxD3R809k9ZiFloE6jypxA6hz02U23j/KHRcAo/Uv4ls0r2WYm4+zftj6xzUKw4Geg9fjOnwl5RTafqKYj0Cidluy5CZ6Rckk0X4ZVJrQLIl0i7iSjpxiswghhBByzmnB92orFBCA4O0DT0JrqwDqhFUIm04AxZNwPPVOWrrf7JLL6cTdCECA3cP5+fEn7XDhqQuwdvlCZNyrBE8XqMJRfTVvqc5aflvPj62lZV6d4WrkhO7iuFa0EN5Rji7FuqaB2xeUmcb6R9P5gfPIB65QCytMofloGxEkDpc01zcO1DHSumW7WlfbF367HLPaviBQPhD4HfXTxV2vEHDuosajvqRpT7t+Ekg+yTPTJnekb5sUxXhVblf6XrmDTmt8vITmm2u+ICRNga3XUm0ihBBCCAmkhSDzrVA8yBaj0vOeKhexVaJ8CuWjRkEkC2EUqliG/B4IIYQQQk6R7Yn5INvLiYP+yTxGIxhDelQ8CCGEEHKq0PJB1pTkePxH1e2q5P7muZcRQgghhJC1ZLtiPsjZ4uJkZkIlgRBCCCHkvELLByGEEEIIIWQlMOaDEEIIIYQQshK24zsfhBBCCCGEkLWHlg9CCCGEEELISqDlYxr46N6xr20TQgghhBBClmVDLB947WrLfOUaX/Qer9vDoeBtTMW5WKhYnB4NjdcqyQbSabWkVSxdtOA4IWkIIYQQQshUNsTy4T5frX93IvuaVqwXO8PBh+p6uS5Du2MG+KZESLqTcqhC+aEK6FtFQ+O1SqKepHku+awvfIekIYQQQgghU9kQy4cVYCHIAn+drCEcL0IIIYQQcpzNifkoBFj7RP0ChFv3dN2jiNNwblW6JEvEbQS5ZiXm69rjdBXrhavHnv5N9JhLl3iOOq6cAz3vwEuzqHtSSFmg+ACgdxzpR7bOfh5FuzTdyGtjKa85bXeEjJeSdI0bU2ewhPVHx7dwgep0dag61h1K8+pO6ptp/Ur5e65TXjJCCCGEELIK8IVzfGjQ/7uRHER5PhzaDUvWz/N+bDd8NF3tfp8ZaYa6/45dd2S67yC1G8odlK11cvvu6N/r2t2Z2RyDevvnLUNQWbrPr3Nxjtc+l0eGdFjH+W7dSxfS9gUYxpJjGkb95c7P034eSZTH7vw01WZIHntTIdV2VfNHuX6aCcM8lhijP4OQNIQQQgghpMr2vO0KD7YvVzzx24jxaDhuAxYE3yrgFlgHsps2kWVH63PJuR7h6b9ZPRXmlXWkdUu8+u717QEP5NF2Vgp/3bJI2wNRBQAKsKQ9W/dliGIZuvOjSNr1RhZCCCGEEHLG8Dsfy7CjgnsRuF5Zrqmys5ZAYdDlcurVd0mlbOPaTgghhBBC1oXtsXzgwXcyMOuOkY1zaPIVr3hj1o4K8tWYCsRN7FXKD+XOyK5k5u1XTb8G+Aj5t7Xe1jqA199W+yqEU2j7iWI+AonabcmSm4VxDH2caP8OKk1olkS6RVxJR06xWYQQQgghG0cLvldbo4AcqhB84EmVcCOKh/rXbsNdqE4RwdN89+Q+JA2oltXW47E9DmHcCejuPLg8OR0DFgjnIlVYJTS9KxP5XIaQb7fnEVpWqb66HWvfJJoe65dVMXHHijx0u1CANE1Pl2Jd013TvFCvWW1fECgfCPyO+unirlcIOHdR41Ff0rSn3TEJJJ/kmcmg05G+VQQinROxdKXvlTvotMbHS2i+ueYLQtIU2Hot1SZCCCGEkC2mhSDzrVA8CFkTjEIVy5DfAyGEEEIIKcGYD0IaZjSCMaRHxYMQQgghpAItH4QQQgghhJCVsF0xH9tE8VFAxGTMwovDIIQQQgghZM2h5YMQQgghhBCyEhjzQQghhBBCCFkJ2/OdD0IIIYQQQshaQ8sHIYQQQgghZCXQ8rFN4IODTX8dnRBCCCGEkIbYEMtHokJ1C5+YFjnKvHV7OIRDTY/zDus+Ub0mFMqD1tF9sfzM0PLxpfein3XZW7Cvg2hgTAkhhBBCyEaxIZaP9uTvTmRfLYv1YmcYl1KRy3ruOtMeisQn+DQdzu/pclISVYIi5JWb5VRe59vAmC5ApopNZ7DGiichhBBCyDlgQywfVjiFkAr8dXI67Jz297k5poQQQggh543NifkohFP7tPwCBFf35NyRiSTWtcq58GD7mJvVqOxSVHVxKj7u5+Wz19VTKnk4Fy7EVxx5LkpIO3YbqrguoT7H6lKpc+n8BUCdx+VoHlWcOxfy98urtt2l0y6SxKbB4tc7pO0hfQjmjqkh6bak1WotZ7nIBtLBuf1Msn6nyMcsHfGzg2XE7O9KkiXS7dh0HWxPjo/rYPPFvm6pG71zi6UjXVpcCCGEEEIM+MI5PjTo/91IsjjPr/fz/I7dztM8H0Z5fqB/HQe63dcls/vu6N/r2gWZ2TTovnEeyh3Ns695H2Oo+/Xc615+PkM9x88HoI7j+qDsyrl3NE/UZ6h/lwJ1qqurUrTD64/atluGU/aPmdP24D4MYxhLjqka9evKCiPVts8/f5jHWo5EUd4fHk9blwfqFnvD1Y/jvHpqqnMhPkHdCSGEEEK2he1521W7J7LjWxt2daeKkpcqrjyX9zWtc/XB03azOuboZvmp/17fHqhD80c8hMvPgSf/o6rlQxdYGjLNv0ijf3e0zv65cHW6fIruTsjf9Udd2xdiStvBQn04HxXuVdPJJe3VlNU4sQzTVHrxEmVlAx3iquWjJZ1uovvtuBNCCCGEnGO26DsfKizGKgyPg6RVyYDr00JvjoLCoMtlL59lA7h3VOAe5+Et11Th2Goa7MNNJOpLqooSlKXSkm77uBNCCCGEzGd7LB940n7oKRp4qo/mXKiPI6jlCMEOmt4FPuMVsMnArC8CLBqwwtTFVOzZ/HauWguJFw+AGIqDyjmbRlN96HGimA+fDHUrVrRKiOHoIuommKjdliy5ac9BHl0Z+MMV9aTXTmS3m5TyzZKutDrVPkika2NCGBJCCCGEkPNCK1e2QgGB8gFXILg7OfxX1yJQ+sBKeW4/znHyKJ7UwyXpUBWEsQIAawrSwW1I14tXzmoetd+90HTVJ/ylvJS25hP7T8A1r2R3ooDALQoyO86B5STUSgL3rrpAdZcHlB6nCLl9tW33+sgnzgt9oqhvSNvn9qE5EgqUDwR1R/30BK5XcIcyweMgivuy3+tJVGSXyaDTkf6xpscyzIdonaWcLopxrCv9St0KpUR3uuyKsoZalt0ugEKijTpZmwghhBBCNosWgsy3wvJByAZhFKqqckMIIYQQst1sUcwHIZvDaARrSY+KByGEEELOFbR8EEIIIYQQQlbC9sR8bBvFh/oQJzGLaKkYCkIIIYQQQs4CWj4IIYQQQgghK4ExH4QQQgghhJCVsD3f+SCEEEIIIYSsNbR8EEIIIYQQQlYCLR8nAR/vG+hCTpd162eOOyGEEELIUmyI5SNRYa+lC76unXnr7jC2vS92E7IuFIqKzk33hfmCOfN5HckG0mm1pFUsXbTgOCFpCCGEEHKu2RDLR3vydyeyr5bFerFTJM4nSVZJeyjS04WcLuvWz4vUB2nj6qcE58zndSTqSZrnks/6IntIGkIIIYScazbE8mEFNAhqwF8nZOPgfCaEEELI+WRzYj4KAc0+Mb4A4a3O1JGJJB3rxgJXl4Hdrxza/YeaBuAjfi5dyV2rkgfcYbDtzgP+uXW+/87VZk//lupTdUTR7T2XD5ZKOQUB9QlKE0JIPgF1dn2Nvjny0qM/4FpU6j9dRpqmtG2ymdvPDtffbkmw7acP6ecAgupT6UPX5ipB8xlNMW5MncES9dV+KFygOl2tbse6Q2leXe0PS6Z9Ucrfc53ykhFCCCGENAO+cI4PDfp/N5KhNqUf5XmW2h1K1s/z67o4DvT4gXcc4LzMroMsNufcsdu5ph/WnFcw1DI1fR13NA/Ux513R/9er5Q11HPH5VhQvl9WSH0WqvMMQvIJqXMB+kbbe13P98dkjO67rueNwbamreZdMKOfMaZDPe6DcffTB9c5lGn1sW3w23tH02Lcq3UMZBhLjss06i9Z17SfRxLlsTs/TXVaSh571Ul1nlbzR7l+mgnDPJYYPTCDkDSEEEIIOY9s19uu4lSk7bmvtHsiO/2KZWMOxTn+k/Jd3RmLXFrCLWbHO2/s22/BU3Q88S89kdcF1pHspk2khNSnqTrPyye0zmP03GuVMRmj+yIdGGeBGGneOyjfbAaD0y9rOT5oh4vJWLjOJ+BI80Mb/PZiDlTrtwCqAKjmkkvaW3AsfaJYhu78KJJ2vZGFEEIIIeTUOQff+VChayGBVtNDienlZrm2r/tUUD3mMtUAUIxcOf5yTQXYMSH1aarOAfkE1TmQS3rOgSoH4EAVkRMI6TNpss6EEEIIIWRptsvyAV/7kecbfwh/exVonfIBv/rx025Nh+NVqwhe23voC9u6oFsuNPy4uHjKX6MgIH5hzwrkIKQ+TdV5Xj6hdQ4GVgEdAMRoLGP1AKovlWJ7AKwoezoXEGvReJ1nsHPVWlq8OYiYl4NK2QtwopiPQKJ2W7LkZmFEwnWRDLoyWL7KASTSLeJKOnKKzSKEEELIGtKC79XGKyBwqYGgiaf22e5E+Gv3dZ//dFv3O6EU4DWoYhWQy3ou3IsggEMohquOo/q6VFdeFTxhx9N0CLZO2HX7kK9TdFxZAAqQL5xW6xxSn5A0IYTmM7POlT4eo3nUvZ4Wwvoezs81H7vPMa+fHdX6wNUp1rJ8ZWZeP4cQVB9tf+LNQdQFQ42yq/UOAMoHAr+jfrq46xUCzl3UeNSXNO3p1JwEkk/yzGTQ6UjfVjnSvov1uuh75Q46rfHxEppvrvmCkDQFtl5LtYkQQgghG00LQeZbY/kghKw9RqGKZcjvgRBCCCHnjnMQ80EIWSdGIxhDelQ8CCGEkHMILR+EEEIIIYSQlbAdMR9kOi6mYiaRFK/EXSbge9Nh/xBCCCGErAxaPgghhBBCCCErgTEfhBBCCCGEkJWwXd/5IIQQQgghhKwttHwQQgghhBBCVgItH+sAPko40IUQQgghhJAtZkMsH4kK5y18QlnkKPPW7eE6CoFe07kvjZ97lujDE5AlXem0WtLC0unKoO7L1yFpCCGEEELI1rAhlo/25O9OZF95ivViZz3toUh8xp8xO1Th/jBAokZde7qcKkv04bJkA9ntjiROc8nzXNJeJEmnU1YuNE1nEMm+HkeafD+WTBUQqoqEEEIIIdvLhlg+rLAMoRn46ySQ1fVhMkhUn0pFdY6CKO5JL84kG5ntgpFqIvFV1MoQxaorJjRUEUIIIYRsMZsT81EIy/bp/QUI0u5JvkOF2aRj3Yl02euWXYpghcB+Z4nAx+VcWl8odukQg3GkkvCeTePnV3yYrlIWhGmHy/tA9x146apuTn4dZsV8HOoxVw/k4Uvozr0MdfDbXyfFz+1DQ9I1rlCdJf2gYlU8hiWjkyoVo0giv7g4lnZyE6NmyWQ0ilVJsZuEEEIIIWTr2JIvnKsIu7crcnlfpG2fpUNxSFQg3/Hcr6BYiKa5NH7ermlUUI/yiVdSgZ4LZQCWAT/PMVreEYR3u1koI7qv6jpVV14tKE+XOtcrKBRRpQ5QODJtk2tXUb6ej7qiLMR04LzL1XaFAeWjq9lF/bRwmToZmepLu5L1qgqJHtE+3k1U89PqtqGZaPuraQghhBBCyPawHW+7OrqpikCvLKDvqBR7+SSSrJ57La1RPBSUB6XFWRn2+vZA06gGcKT1qNYBMSJQOHwrCtrrlBwoTU4xWoJ4OInVOBFZIl1VPGT/uOIBxXBXFag0VQUn1+PpUKJBJS6EEEIIIYRsFfzOx8KoQlBYGVQx6eV2Oe1g8c2jeNvVbiKxKh51Okw2GknZD0t1qnYlLoQQQgghhGwV22H52LlqLAGluAtVEA508UGMQ3bTbmhaxFIsKuwe4QTNxwVrFy5OWvY07rgCUB5iMrTMYGItR9vgtwvA7QqWnhNYN2Zx0piPpNuR3SSW/XQose0m58rliNoYixF6xZLpUMRVfURJpFu8jpdWEUIIIYSQTWdLYj6ASqbJ7kRQhxsSBF8oIDt9kWsqrCMNAsWduxLcl8QqILBkXNK//vExmpdv3YDSMlZstBDEXiRwvdJ1uGqNlQJN4weqtzXNZU9pQBD5sbKUcX0t1fLaeszFe0ARccHl7jy4hDmdp2iX1QACOVnMB5SF+lfmwp3Ld7+CdWRXCzIjFkk/rbGSaJqWpmkm/oQQQgghhJwlrdu3b+ebr3iQbcUoQrEM8yFUQEIIIYQQssEw5oOsNUVoSL9HxYMQQgghZAug5YMQQgghhBCyEmj5IIQQQgghhKyE7XjbFSGEEEIIIWTtoeWDEEIIIYQQshJo+SCEEEIIIYSsBFo+CCGEEEIIISuBlg9CtohBp/wl+TpC0pDzySrnBuchIYScTzbE8qG/UIMWfq1EjjJv3R4+96yyf/AF85a0Wh0ZZJm3bg9vIJn2VUvb0dnkRoCkK339z/+K/DHq0mQD6RTjiKX+6/QrZU59Nnq8tP8nbetMEb4TvXxNG1udbv211VQ+PiHzZyqrLGvT2L57JiGEnIQNsXy0J393Il3cerFz+zlUReJw1i/VKvtnUtbVKBL9v1hvF38N+Cq5EYq8pUYgyZKBdDuTNJ3uQKqtzAYVIUu3W07SKgmp1SVciI56qaR9rwEzgOA7T+gNSXMaDAaJxL2e3aqnNk3UkzTPJV+Xr8jPqc8i49UUzYypCqHdkcTDVNuG9qXSk4EkpWwzGWiaq6lNkw6lrXO+PJebyqdMyPypZ5VlrZZmxn3+PZMQQs4TG2L50Ls0BGkI1sBfJ8oq+8f+eOJHVP+08buq6+7nFcTDvHiiib9GONJlP5Zs1xNI8ORWlQgIkhMBKpFOx1NANM1uFltBVJdUhZWkItLEQ3usr9Xo27zWRIheJSFPks/V0+Y1ROduEvekF0+uzUgvnOSmJ9yqQp5EV4try9GORiqs+2kaysfnJHNjlWVtJPPvmYQQcp7YnJiPQqC2t+sLegt36w5YBwp3o67IkQqoe1jXZQ/bNg1EX7ffuSYdsyjoduLysuePdCnWB5Ny3HlHus+lHZldhiXKQhpsV/M+0O2DSrqqS9W8/rE4q8RJnuYVP57FPxAytCxdx4/qTKJY4rYKTYXukBVPbvupKhxjASoqnuQO230ZWP0iG43M4qqqeQx7pymxqMBUssTYigBrZen0M8n61r2kWDz3iYA0Lv+udsQ8qw8IHa+lrR4LkOi11RnXuVP0T7VWmQqWvjWq08W2p3RqH3Wdew4WWMTKj+wXYMZ4WebXOdM+Lo9VV7fH/R0y7h4zxyvWa0AF9XF7s6QYkyS5abYVzPcqkV5fWebtbyofj9q5UbEsFnO2tG2TNVFWQfmaKMbC78fA+szNR+dosR9zzxv7ha/3gjnzx1LcLot/FrhnEkLItpIrt2/fxp/x381lmOd4+H09yvMstfs8hnGe37Hrjkz3HXhph3qun+aO5nkdD9P1r+NA0/jnADyAz+w6CCkL29f7Xjo9hvKredeVtyTDWHIMe9RvJr9poJzY67I8HeYqMmGEdL2fR5G2uw7tN5hMHGk/1rSmzirS5HF/iF4yIB+XtpSnV1YgaT8y+Q9t7mma97XcUhsUpJvXd/PSFGMQaf20jDG2/tWzgsYLfVZzbomQNDP6bRh7fWNJNc9x/ytFu3XbT5UOtV2lPFN07QRt9/Sxml6fkPEKqfO4X8bJ0uK8an+HjDuYO14ov5jLdg6gf8bzdko5qGN1IjaVD3B9YDfLpHmM/O0WtvtRlPtZN1VWP9ZyKgcwXnEp7/n1CcoH11txP7H7lr3eXXvGSernDyGEkAlb+LarWORaisdLdtsCK8IoqVgjdMGj+Mw+MUSaIz0fVgTHjm5fXvBpe0hZoN3T/P10u7pTy7p0es/E9McVCqekvdN/7laK/dhNJE4Xd4eKekPRH/aiznm6L3Fm3LXsQVGhwqyXiGW4hOtV1N8XFRzsRuQeVJ4KsbYrxhNQh7al107E95wBIePlniTPGtGQNNNJJBnFJTcfoEK8xKPB+EnwTR2WuBeXyohixG94Y6Hzf7DrzYtOf2IVWZDZ4xVWZ62w9LXfJ9aRXRlobfeXvD7mjpeWr2Kpnc/ol+yY9SiIpvJRZs+NSPvQc6GCi5Xet5a9fUwtK9N8K9ZALLjWfYvO3PoE56MUllR74rLXe8PzhxBCzgPn6zsfO32RXn58uba8K8pUgsrSH6hYFaXxsX3dp6IYlJQtwAliYwHJ/R5HV6UNV5EaaQmCQxwbURVvzymlUQEh7vUlqnHz2A5UgFy0adZ/fqY3WkialQChMPHifLB4ismZoMLsOHBblQZVcIvYI98F5xTBfI/iq3ZLa6MScNVdCW5NEYI6ZrB0PgFzI1Jlod03boGDwUivwXLixsqK+hOFyl8Q6+Uxrz6h+TTD2c4fQgjZRM7Pdz52rJWhKtgjngOxHMCl8eMpED9yUDkH8RRjC4b+BB4iLsRugpCyQNLSc700sLhgCC7UCBp3XAEoD/EfmtcSNBHzcXIiGQ7b0odyMfb3N77T3ZEvnGTS31Uhw6tqVjxenwhZZ8JY0NI6D+Dv3cWolJmTBrEISalhAxmU2m6YN16FsjbHohGSZjZxEa9Tjc1AfIf/1Pmq1j3BeJnNAvNGM6tEap+M8JYfZ5XU9ifdAdTtUyCszujfzmASB1IYo3SpFfYDxn3eePlD7uZ76Sk5nqSPksmbq6CkJ23pVZ6kN5VP2NyIpdcfyW633HdjmijLWv52VWj3mlaMV6vj3TMLZtRnoXwCmTHuC82fubgYlvp4IkII2RpyZfNjPlITl4F4j9IS2+MeB7rPTzOsxh5oXoi7cMeva3rEZvgxH9XycAwxH1j3YzPmlYVzhtU0NX7S8HAulaf5VONJAgmKITghrozx4vmi+yAeIB7Hc2id4nK8QOHLjZgPL6+Svz4ofLcnx83i+4TPB37d43Nt/n4byn01rNTZ9/d2zE6DvBGL0I8n5RZp7HGfmeM1JU6kREAa+Lq7epSWyrgNS2MRHRsvUMToeHlERWyLPaiUjyMmAzEfZt01cV59FhmveXUuxiI+Pseq7dKUAeM+qUf9eHl56NxG/FItpXTH4xeayydg/jjsdWa7+zgNlVUeL9vP9liJOfWZmQ/iNNwxW6dp80ePTNqFY3XXctD8CcDWq3buEELIFtGCwnEuLB8nARaLTEUk6w5EyEnA09JE5QwVXE5ESD5NlUW2j1XODc7D+aCPusly8WqEELJJtKCBnBvXq2Wh8rHVPKPVsmuEENIc/5LDmBEGXhudxOlKXgZCCCFnCS0fs8Bbq/b6dkNBEPlpBKeTcwMEjP7Ynzsy3zqhrEEIIYSQcwItH4QQQgghhJCVcH7edkUIIYQQQgg5U87Xdz4IIYQQQgghZwYtH4QQQgghhJCVQMsHIYQQQgghZCXQ8kEIIYQQQghZCRti+UhEBi28p1TkKPPW7eGtZrVtz5KudFotaWHpdGUwfi2sT6JV6MxME5YPIYQQQgg5T2yI5aM9+bsT6eLWi52LcaiC+2EDknBT+cylwbbPIxvIbnckcZpLnufFx64SVTLKikMmA01zNU2LNHk6lPagCxVpQlA+hBBCCCHkvLEhlg8rdEP4Bv761rO6tieDRNrDyUfvorgnvTiTbGS2C5KBJNFV1GpMOxrJwNMsgvIhhBBCCCHnjs2J+SiEbmsFuKBSrVsfo8Jv0rFuSdY1CdvOOoGvlWP/gW4fVNL5LkzFV82943tdkZH3yD4kH1hFsK9aNpaSAK7HZ9XZMbfthqRr3Jw6S5oYYlUYhrHdKEgkGUUSecVlo+MaRNRuS+ZpFiH5EEIIIYSQ88f2fOF8pErCgQrmcc8I64Vgv6vC+r7IJe85PRQDqewroecdQcC3m4Uyovt6Q7vDMi+fuuOJKhhRPvGkCq1zIFA+uokW0U8LV6eTkakutCtZr6xIZKog7Wq7SvknXWklseRljcNSnw8hhBBCCDl/bM/brtoQ4FXy3nNWBBXiRaXdRYX4o5tGSXDWiL2+PXAKNFVnSzycxFiciCyRrioMsn9ChaGpfAiZxt/8jcjv/77d8PjTPxV5+mm74fHHfyzyB39g1j//80Ve+ZXN+rbwhV8o8iZvItLS+wn43u8VuX3brK87v/qrIi95id1YA/b2RF7lVeyG8kqvJPLQQ3ajhj/7s+OLj7////0/u7PCn/yJyH/9ryJ//dd2x5L87d+aOfBf/ovdUcNv/qbIr/2a3WiAV31VkW/8RrtxSrzFW8y+Zn/5l0Xe8i1F/uiP7I4KOPc7v9NuNMSnfZq55t7jPeyOGTzjGSL33Wc3CDm/bNF3PlTgjlORXm6Wa/u6TwX7pBQKPQcoArpc9vKpWjwapYk6N0vxlqrdRGJVGOp0mKqLFYArVlTxqZqXDyGN8PjjIs99rt3wgEDwru9qNzy+9EtF/r//z24o7/IudmUL+MmfFPnmbxb5hm8Q+Y//UeSpp0Q+9VNFvu/7bII1B2PW69mNNeHN3syuKJcv25UafuInRN70TY8vBwfm+GBQ3v8ar1Fu6//+3yKXLom8+ZuLfOInijzrWSLv9m72YAA/9EMif//3dsMDyvk0vuALRJ7/fLvRABcvzi6vCT7og0Q+/MPtxhSefNKu1PCv/tXJFTsfKKg/9mMi3/ItIl/5lXbnDD7qo+wKIeeb7bF8wFpx6AntcGNCcy7UBBrcccJzZtyjBl2zeYT9mt4FdOPVton+aExjWj4AcRnZTbuB44gdsZuOReocwEljPpJuR3aTWPbTocS2C5wr15i4J/1RIokrIktkkLT1d3SiYQTlU5BIF6/ibfFNWGRJPvADRf7u74zg7fiXfxH5xV8U+au/EvmFX7A7LT/90+YcB54Qbwv/83/qvUNvIB/zMSL332+Ewd/6LZEHH7QJ1pwnnhD5wR+0GxvKX/6lSJ5PlqrCgn3/9/+KfMd3iHzVVxnhFUBwxVz8X//LKI2//dsi//zP5tg8XvYykY//eJEXv9ju8Pinf7IrNfzoj4r81E/ZjYY4beWjCZqsI8b7nd5J5N57RT74g+1OQsg8tusL53dUunXuUgjevtM77sJ0SfcdqSIwThOLXLPWjR09ht8K5wa1tysSwV8I+WpaPzB9Vj4ALlXSLx+HTlEoHJ6kHVLnlaAKhWoUpe9z6HJcYYiktx9LsmvTFNYNVTLs0fB8lETT6p+ov0/rCFmON35jY/nAk2fH4aHIM58p8m/+TVkpgZsJFBVf+YAgAoHvBS8Q+ZqvEal5oYL87M+KfMVXiHzt15bdgiAsYh/4T//JPEX+gR8w27P4ru8S+eIvFrl+veya8w//IPL932+eSMN68Yd/aA9YXFn7+8Zl7Lu/22yDq1dFbt40eTz8sMi3fqvIt32bcWXy3c9+93dFHn3UlIG/jzxiXLOm8fKXm7z+3b8rrtcSeIL87d9u2v3YY3anBUL1z/yMyC/9ksjnfI7IC18o8vVfXx4PAMsV9gMcqypK6A9Yq77pm4671+GJ8wMPmHa89KV25xSghH3d1xlrw8//vN2p/M7vmLzRn2gDFIPTBu5Jn/Ipxur2K79i9mGc3vZtRV7/9c32O75jvTJRBe5FGG8A6wfGqupuCIX78z7PKDw+cCGDm57jz//cuE1hvPzrqUqmv18YM6S7dcvutMD6ArcxjBmsAXX8yI+YcUYev/7rdqcF+3w55Eh/dDFus8C1h/Kq7ZvGP/6juYYwd+CChYcVVZDn536uyH/4D3ZHDbi+oDCjvriWnSKHeYx7yZd9mRmTWcDNDvce9GVVEfwf/8OUj3Hyr3VCtoHbt28j5jx3fwlZFcNYcpE4H9ptQpbiy788z9/gDeyG0uvl+dWref7Zn53nb/zGdqfy8MN5/s7vbDeUz/u8PH+1VzPPqD/rs/L8Wc/K81d5lTz/0z+1CZRP+7Q8f9d3zfNv/uY8f+/3zvNnPCPPX/Qic+w3f9Oc+17vlefv9355/kmfZLYffdQcr+MDPzDP3/It8/yhh/J8d3dSn1/91Tx/kzfJ8w/5EJPXh31Ynr/yK+f5r/yKOf7Sl5q8r1zJ83d/9zz/zM802w88YI6/zdvk+XOeY/ZdujRZsP0jP2LS/PIvm+2v+irTN6/6qnn+ju+Y51//9eZ4lb/6qzx/i7fI88/93Dz/1m815/7xH5tjv/7rpr5f8AWmLTj2kR9pjoGP/ug8f4/3MPvRzk/91Dz/lE/J8/d9X5vA8i7vkuef8zlm/Z3eKc8/8RPNOsA6xuTzPz/P3/Zt8/zCBXtAQVkf+qEmDcrAsT/7M3uwwg//sEnzsR+b51/4hWb9x34szw8Pzfr995s59A7vUJ4f16/n+V132Q3l/d8/zx980G5U+PEfN3n95V/aHRX6fXPc533eJ88/4zPMOtqI46jrIrzwhXl+773m3A/4gDz/qI/K8z/4gzz/m78x+97t3Uy/YryxjbY67rknzz/4g836H/5hnj/72aZ93/RNJu0rXmGO+fzSL5ljz3tenj/ySJ6/0ivZAwrmYKdj5gXGGWOHa8fx9NN5HkV5fvlynn/FV5g5grz2983xv/s7s41xcWD+Yx+OAdTfn2e4hnH8vvtMmSgb22hPHW/0RqY/MDdRj7d6qzy/+257UIEchOPI7+u+zuTlt8EHeb3hG+b5q7+6ua5xf/myLzPn4Lr4oi/K89d8TVNHB9qMew34vd/L82c+05zzjd9ozvunfzLHfuIn8vy1XstcW7g+XBsJ2RJ0Rk8UDyogZJX0I8mjfmq3CFkSJ0T+0R+Z7Td90zz/ru/K85/8SbP/L/7C7H/rtzZCpgNCAX78IcCBl788z1/jNYygDX7oh/L8tV87z//6r802eLM3y/M4NutO+fDzhDD83OfajQrf8i0mvS8YQQgGEEp8oQpACfmIjzDrTvm4ds1sg+c/3whbjsHAKFMO1BvnOIEW5zpBH3z6p+f5h3+43agB/fp6r2c3KkDQg9DkcML3b/2W2UZ7Wi3TR46f+RmT5qmnzDb6AdsHB2bbVz7QLzj2oz9qtsHP/qz5C+UOyogP0n7xF9uNCugjf4zQl05JODoyf8FwaPL5/d8328soH5hPUIQxB32F2Fc+IEh/53eabV/ZgFCKfRCGH3vM7gzgzh1z3m/8ht2hOOUDCp8DSvnrvI7dUHzl4/HH8/ziRbM+ixe8wCgpdUD5gCIOpRW4PnH9ibkHZdPnEz5hItwvqnxA2cQxf2xdH85SPqDYO7LMpHfz7JM/Oc8/5mPMOhiNzPFpSiEeOLTbdkOpylBQ5Pxr1Fc+fvAHjTJWB+5V3/ZtdkPBOupBGY1sCS0oHGcW8wGTNyGbyDu8g10hawHcVT7hE4y7Etxa4HqCYGG83QYuGV/91WYdLlnv+77mHLjawIUELkEOuMLAdxv++Djvh39Y5Nq1iWsG3DXgR5+mxi0G6eEa8gZvYI7D7QVuPHirVhW4cfzGbxx3NQE4Hy5BSOOASxQCyP/iL4x7FgKVf+/3RDodc3w4FPnkTzauVgB1hguH82nH39d7PeP68bEfa4LP4WLm3Dve531MnjiOPkDdHDj2Nm8j8lZvJXLPPeYNPe///uYYxCC8tQd54jrANvoEcQtwV8E4wAceZcPFzAcBv3DTgtsN3KVu3DAxDuCd31kkioyrFdqB9te9qQvlwoXusz5rMi5we3n7tzeuXj5wJcKbiOD+9X7vZ3dWwFgiSBlzAe516AeMK1zHUA9Xvw/4AOPi59ycfOCm9JEfacbk2c82b5p6rdeavPQAAed9782Jr/u6pv2f+Zl2hwWxHigTYwJXnFluPw7MP/x2u3oDuASiDLzt6r3ey+yDuxnmNlzLcI3A/RBv8IJbIVza4PaF+fQZnyHy3u9tzqmCWKrnPc+4cSEt4h0cOB/nuiB2xKLguvzP/9nkd/fdJmDcudkBtBPxKnj7F+oFd0n/GsW5WIe75Gu+pshnf7aJbYLLHcYUYwI3KvdWMrztCvMULot461UVuGniOsPccTznOSIf93Hm+sE5uCZQTze3cB/ASypwvAr6AK6M/+2/2R0WjAXm1M/9nLneXJA7rgtc63Dxg/yDPvn0TzeLe1sWXAhx78L4oy64vjDGcImbNY8J2SC2K+aDEHI+gSCFAFoIR/jBxis5IVhBiEasAnzTIRQ6ocaBND6v9moToQP3QwjrEOAg7ELwh7C1i1diTwHnTwsURl6v/dp2wwNCF4LjX+d17A4LthFzMY26siBUTuM939P4/0MwxoJ24c1KAOXj9cRuwduXdnZMrAQESAh5H/ERJi2EPwDhCv79ELywDkHaF0ahoFSJYxObAn78x02sSh0Qtur6CmBcIFyj/lAAoTxg/D/kQ2wCD/ebNq3f0a63ezujPMD//qRgviFPCMB1b1vDq23RvxBGq4oHQP8h6B4CMhSqujdYLQLG2YH5Mg0ompjfSI82QCGoA22DQgABGcoiFHgff8xdee56QnB2dRzcnIeisihQypsA9wWnsGO+oJ6YW1AEEQM2SxnDAw2/XzG+UGbwpjL006w3b0Fxx7WDeYhrE3FAwCncmNcvepGJM8P1CYUJsUCEbAHb87YrQsj5BU/nYR2ApQDrjitXjAAAi4gfaO6oE5CdsAQF5g3f0ASQIjAaQiGe5Puv6q3DnV8F+dU9yYfwgqfzVUEF7YEgMwu/LDz9nSVg4ilztyvyPd9jnupD8HFv6IFCBSuEW9z+u+4yafH0H4oGntajT/AU2gUmwxqE1/ki+LztvanPF3wdUD6gyCFQF/lhuw6UO+37JOhHCOkYFygyCPJH4DDqUwX5AAj8VWClQp/jyTL65N//e3vgFEBfYK5BKIVyPA/3dNspT7Oo6+dlgEUN/QCBF0HhWK8DgjgUfbxGGH2Ip/GOWXXBWDgrkgPjAgsZFF3MKeAr3BDAp+Gsjb4SMu37HrOAlRSvOAao40d/tJlbsGLBCodAdv+e4gNl37/moDSifzCn8LprKC6zgOUD1kL0Ja4hWFrdnMV9Bgo6xgIvhYC1BH1FyBZAywchZPNxigVerYvvJTic0ACLSJ0AUad8QHAAeNIP4dR/kxOE7erre6tMs3wgPwhTeHMNlAY8VYWbCYDbB9yM3BulUIZ7g9Ys/LKqglAVuLagH2DNgDsSnuziKe808CYkCD8A1g8sTkCEaxWEJbyRB8DtqvrWrDpBFGMD5QGuabA41H2jBXzoh5qn/lAa4VYGRQzfAQFwXUH/OAsKgCIDQbEKXI/gDoW2wLKBekIohECHp9aw4jgXOQjSJwXCLz5i6RafV391u1IB4wILHJ62Yx15QOCFZcEJxWgzXI7qwLgAKI3/5/+Y9UXBU3i4OwG4i+E7I26sfWDNcXMGFgPg5vA8oOBizNwbsuB+CKXR/3Aj6gFlFtcH+gBvjJoGrnkI43BHwjULwT1kDOFCCBc4nIM3yMEK5ayZeE01HjL4LohQtKYpwrjm/A9RYt0pQxhLPLSYBtzUoOgB9Dn6EX2OfsW3TKC44DoFr3hF+Nu8CNkAaPkghGw+eBrv3Fx85QNPmhFnAKY9vZwGhGMIIogXgSCNBU/X4Q4zC+eWVAV1wes5EdcBJQEuFHjlLcCrOT/pk4y7Cz5Ah4+Rwc3CuWKEAEGo7qvuDvjqQ1iDoAO3JfiZv9EbGYWkDrQfAi/85HEentI66wLiHvCEFu46KBcLBHoIXPOA9QXxB9OsHgBlou9hjYBABmuBUxRhlUEsBL5l4uIrEM8CpaoOxFBA4YEgj3pCSYLSA+EOAj7agTzqPj43qz99nPse3PrQJ26BQOyYpnxACcKrl/FNEAiviLPBHPItD4hhgHtOHag75gqUWswduPssCuYZnvijnzHuEH7r3AvhTob+woIYGyjH7mOI1VchV8Fch+APJRztRF/BwvMlX2ITKIgbQtwO+hNKCSxt00C7IZDDQoG5gfSwPMwCigHKwAMFnIP4E8xbXAcAeUABgXsZ+gJlQAFGXEcdmE+IM3EgFgZpcR6UQlwz074rgj7HXMYrwTEf8QDCuTZCicI+WEQxd+Ge5r8impANp4Wo8zNTQBhwTjaVaQHnePIINxC4y8z6IjJpHgi+cNmAC4cP4hfw9Ly6fxHw5BGLE1JOCp7koz51lgo8ZXUK06IgMNd/Eu22EZSLshAjAYHbAUUE3zuYJbRBYIOQP014xnEIkyfp31ng6S8UEDyNr4JYAVxzIeOC8YMgCIHOB0pHE+4s6OMqEE4dOO5vV8FxWD3Qj/7vMHz+oajCYgAFchqwSECgXnbuAIwl3Jlm1RPWI8TkoJxqzFQoqCseGExj3vEqsGpBiAdQ0mZZAB2YV1Byp4E6wDoyb25h/lWvjUWuYfQ5xty3oPjgOGJlpsVAEbKBbN/brp7SH1JYde+f8cRk3djEOp93qsoHnvrhaRqeqkKYmScoELJq8PQUT7dhXYHSAZcPPLnmG3TWG7wUAOMFdzFCCNkCNiTm4wmRG3frcq/Iy5701u1hEsBZ9OET8sC9d8vdd9vl3nvlRiWmdiZP3pB73bl3P4AWrBd40g4fZgQ1w38Xwc7OdQPCAiHrhHOLgmsJ3rSEr2vDZYSKx3qDN4JR8SCEbBEbYvmAsIxXMqqQB+vAvgrOL7frJJDV9+ETD9wtj118RB6/f0Ff+2OoEnP3LbnykkflpDk1AkzqCHCFpWOafz+CWF2wKCGEEEIIKdgQy8dzRODu+6yLZtNfJ4GcTR/edddaqAvNgXgOfE8AHw2bpngABOoiCBavS0RQI9yx8I0FvFIRbwjCNx8IIYQQQs4ZmxPz8cTd+s8j5o01L4a70H3lt9e87IbIUJeCmif6RVzFLRW49diznhZ52r5v/C6bp49L67hLz8FLT/w8X6xpntI0xSvJVYi/y9bHLweBHC/XY1f02IsfNGn98hqr85PaPw9Njj/3pp571ZR35SVF9Qrm9aEFFosHtdiL99+Ux++f852BOp54QO5GBhVK+T15Qx546Jbccu99v3hF7r/vPrn/nrryZlk+ntTiHtL6uvfHXyy8oJ6++LBXd7h/Pahl2U2kuf9heXSZtgEoEXjbzizlI5R//a+NixaCYBH0igXrCBLGMQR/4jisKPjr3m1PCCGEELKBbOHbrhDboIJvnTtRIezrsec+rIsKnoh9uKVC+nM9Ab1OKH9Kz4Pk6vJ8QtOocCsXPeEVisJTKvXiPFfOFU3zrBcaBeOKKgTFupfPmBPWeV/rg+OuPoXSospK93ER+yr2RTix8mFBPrdU+Xn0uMagPClPPvmcyTfUoIxcfWqKgjFD+YCi89hFufnw/TYvo4w85ikfNx54QHVDPddrypN63mNP37e8AoI3q8D6ASWk+npRKA34jgHesoS3GuENO4gFwTr2QWmB5QPryzBNYcEbXqr7kA7pCSGEEELWgO1729U8QV4Pye79ZhvAGnCxIshfmSW0a/77Ktj7eTjcueKX49dnWt1OUOe642BuO06fmcpHYfm44VkjwBV5ZFHlQ5WNG6ps3PAsHxevXJGHH1VlBJsIWr96Q0rFOC7eLy95vGYcQ3Bvu8JH4+BihQ+EOfB+///+3+3GHOCChVc1+goJ9uEVqdjGfqfEQIFxAe2LUmdBgVICCwsVFkIIIYSsCH7hnJwBqkxcvSUX77spL3nJS+zyCBzPluA5qrM9Ps7n5s2H5T7Vxq4+oAqdQ5WMm+NyvGVZxcOn0zEf9cLXqJ3AvojgDmUAygq+CYK32uDDU/j6Lj6uhY+M/dzPmfwRwI5vWOC98y99qVFu8KYifBEb6fCdBnyoDOd/0AeJvPd7m7yhUAAoMlBqEHMCtzHEoCAWBTEpiE3BR+3w1qO3fEvzfn18JAvvnscHrrAfHx1Dui/9UvPhN5yPr18jP3wFvAkXNEIIIYRsPfzCeRVYE27dMOsOuF3BklC8lvYekWfd0n0qcPnA1elZ963e0vBsCNCV+sB1rIhFWQ5YLPB623sXei/uAjz5tDwtd8ldd1mXJxVen3jgscKAsyio6703nkDUS0HheqVjePHiXXbH/XLfXbfkIVVG/NbA7erueyvjfBI+4ROMQoCv+J621QDWiU1SWPARO9QP5+PVxMgP30WBNYesP7/6q2Ys3+zNzFhjcV+T32QwX3/yJ+3GGoGP07lr8DyAe9Wv/7rdIIScB7Yn5qN4daxd93mWCudwSXLB2/4+uC8hkBwgSBsxFQDB5C/2RGEEfF9Rwc5XLEppVNqtBpyDohwVgm88qBuax/26FOuaHvEYt5qqs4rVxwLOdXtJt6uTxnw8eeNeuXrjuKPTlUcmLlhP3nhAHrpxy7pDXdRj2jcP3lAF5KLcf/NxQbE37r1barJBxcZWi8K1S/v2ae0nl/TilUfkYS3Ir/kTWt5j4/KQ5v6Ja9YyTPvCOYCbFFyXNp06ly+swyWs6iaGv9hehjqXL7iFwSWs6iaGdaQ7b+AbHfh6dbdrd6wQfBEdcUuP6/0EX49+t3cTead3Evmt37IJTgDahS83f+iH2h2nxA/9kMgHfED5q9P4ovR3fZfIJ32S3bEm3Huv+YI4vsNSB9qC6+I939Pu2CB+/ueN0veBH2h3KHfpb2QUifzUT9kdhJBtZwtjPkjBGsR8bDWzlI/zDBWW0+GRR0T29ky/rRr06XA4URAgPDalfMCCB4Xqq77K7jglUGdY3SDYO6B8fMu3iFy7ZnesCXhdH5S8acoH2vL932++fL5pID7uj/5I5IUvtDsU3B9e4zVEXv/17Q5CyLazhW+7IsfezkWah8pHc4QqLNiHv9i3DE5h8RUSbL/u6x5XYrAOJWYd+Lf/1rjP4eUGcJWDBeTzPs8cQ18h9gaKANzd4IYH96g6PvdzTfov+iKR7/s+kbd7O5FP/3Rz7Gd+xnw4E+2GkvH2b2/S4svaX/ZlIh//8SLv8R4in/M59crHi19s3OlwDvLd3bUHLD/6oyIveYlRZGCBeO5zjQsfXAXx1Bv1xnnTvraO+qG8f/5nkXa7nP83fIPI275t2XqCvD/mY8zcgRviV36lyMd9nLHaQAF54zeeKB+v+Zoiv/u7InfffdwK8opXmLr/9m+bfoWrIZ7Ug3/4B3P+l3yJ2Qao4xNPmNgogLfeveM7mjfR4ak/rDzo82fhQ0sWfLQUyt3LXmbc2dDfSFdVPiC07+8bt0f01/u8j2nzxYsiX/d1Ip/1WcZ6AJdGKHOv9ErGvRLnPfvZk3534BzU/cd+zIwd4teQh893f7fpG7T5Yz/WuFUCzDnMR/QBxg197YP+Qj/g+Lu/u8gHf7DId3yHyPXrIq/8yqYPXv3VbWIFcoc/fr/4i6YvMe/h5vdpn2YPKHA3xT64c6LueNvgR3+0mQOEkI2Alo9twXc7q3MTI81C5eNsqbOgQCmBwlJVYk6isEAYr1pQnMKC+B6snzZv9VZGwEIb3+u9TNlwV/qFXzBPvyHcQXCGAgD/eSzYrgJhDUI8Yn9gccD9/vDQxOX8wR8YARLC7W/8hsiLXiTyqq9qYnUg4EHgg+AJIfl1XscIf075wOumodhAMcLLB37wByeCLcDfhx8Wue8+ozhBofnTPzX1gbCM/sX1hLiSz/xMc47PR3yEaRsEbrh/QXGC8gXBH0ChgOAKBcMBwRt5IxYJdUGcExQb9B3qg3OgfEAYx1N39CEUIbgyoU8A4qOgsCAN5hXSYR+Ov8u7GKEc9f7zPxd5ozcy50DY/4qvMPsArBg4F/35vu8r8pd/aawaf/In5jjag7LRtxDiYd3CPIPCUlU+MEZoI8YAbcE4fP7nT9qFuQF3LfQVzkUsFwRyzAVYfXA+3Hif9zzzhj20B+5PUH5wLhQDCPlwRQOYD6g7xgfjhj6DcoJxg8L3hV9o0kHBev7zzT6AOYRzsaD/cRwue9/+7Sa24x//0cw/B5QlxMw99pjZxhz4zu80fzGOGG8oTs4tCwowlKXRSOT++821ACUHMW4ojxCy9tDyQcgyUPnYPJpWWCDw+E9vT5MHHzRCGARFB2LMIGxhvwNCMQQ7vH2tihMaIcR92IeZffhiPxSHv/gLI4wCWAUuXTKxBQCWDjz9x1N/gONQxqB8QJjGU3EIt+7JNZSyH/5hU1c8AUfMCJ6UQ4kACGCHsAvgagNFAopLHagDrC54eu8+CgQhFULnS19qlME65QN1hqL1IR8y2f7ZnzVP4B1QPiAgu75CvfDSBShv+Is+ggUCbXGg3m/6pkbgDVU+MJ8Q2A6FDYod6gu3IwjUX/u1RtBG+yBo4y/Kfuu3nu12BQUkju0OBcoHLEg4B5YFAOEcViIHyoUSCUXQKR9QXuHCBVCXr/5qM68Bjn/rtx5XCKHc+BYUuARiTNwHY/ENJIwZ8gPoCygvmKuw4uEa89sGKxosPjdumLwxhzEmUEgA6gAlC9aQ939/o3xg3v7ET5j24DpG/0MZhVsXIWT9geUDuL+EEEIsR0d5/sd/nOe//Mt5/lM/leff8z15/nVfl+e9nk2wIh58MM/f/M3thuVVXiXPv/d77Ybly788z9/6re1GhS/+4jy/fNluWLDv4sU8f/hh0y4sb/d2ef4O72ATKHhf2k//tN1Q3uqt8vyd3sms/9IvmeNf9VV5/vVfb87/hE8w+/70T/P85k2z/vd/b9JXeeM3zvNHHrEbNXze5+X5u72b3bD8+Z+bPF/4QrP9ru+a54OBWXfg+M/8jN1QsP3zP283LK/8ynn+4z9uNyyv/dp5/m3fZtaf+cw8//ZvN+sOlPMWb2HWf+d3TL6oj+O7vzvP3+iN7IbyvOfl+ed/vt2wIN8f/mGz3u3m+ad9mll33Htvnr/P+9iNGlDmj/6o3bC8zuvk+Y/8iN3w+Ou/zvNf/EXTjvd//zz/7M82+//hH0w+GD8H0mHfK15htj/0Q/P87rsnda3y67+e5z/wA3n+MR+T5zs7Zt9f/IXJw41NlatX8/wDP9BuWDC+999v1m/cMGNQ5fVeL8+/9VvN+rVrx/NAPatzgBCytvA7H4QQMg24nCD2A09Y8SQcrixw24E70irBU2jEJjjgXvNP/2Rcb3ywDT/5aeCpuQ/u+bBQ4COZv/mbIr/3e+bJ86y3asEa4HCWGJz7a79mrNl48g4XK1gIUE9sO6tKlXmWI1ifqm105c9q57IgNgKuUFhgEVu0fyF6V8FTfx+4s/3Lv5h1ZyFpgurYIu4FboFwc8O4wApVxT8HcSk+eL02YmtgmUJcCcYYYK7A2gVLCqxFzuIBnAzhzxEfzIPqXIAFygFLWrXPAfLz+x1WIh/U3fUpIWTt4Xc+CCFk3YGQ7txpAGIEIKTBTccHwqxzT6qjKqAiSB1KAtyC4JePeA34/CPoeRq+YOmCr7/8y01sCFyU4HoEFxqA44hXgYtUHdOUEgfqV33DF3z7gWsnlDJfMHVuQyG42AsAdyBsQ9mEGxMUz2r/woXKLxf4ZcNtqEpV+QBOSUEZf/VXZj2UEFc/uCIh6N3FuyAuBzEliwJFGwoFXKMQ6A7wF3EjaANiVKCQO9x8QExPHXXjDWXMzUucjzkM5c+BGBkouf68rutTKh+EbAy0fBBCyLoDIRUxBggadsI3fOIRE4HYBgAfePjvu0DgOqpCG+IwEICONxE5UI7/KtQqvvIBX30ItagHLDEAgiLiGADiUhADACEVQjqebCP2xCkUiPlAHARA3EmVj/xIowDAnx+WCCgHiCVAvV1QPYKqofg8/bQJXsYHM6vg7VKIS0Cwsw/iRBAQjf1f8zUmCB+B7QBxC4jtQLwKgCUAsQh4WxiA0oa+cG+IQtwKrAxVqgqfD9qBcUMgO3DB2bNAn8EKAaVuGk5RhSUHII7FWS5CQLwI2u6AdcMpPbBUuLHCmLv+AegPvHkKfYSxwnEooi5+CEoz6uEC4wGUDwdid6DUYSyglEEmgQKEeBkE/ztmKXSEkLWHlg9CCFl3EKgLAQzB5BDoAZ5qQ/CHAAsBDsKyew1rKHirEgRqCM4QkrFAAISyMA1f+QB4HSvctVAHCOR4JS0EdQcUEQQIQxBGYDAUKPcaY7j1IFgd5bq3LPngTVBQGgaDyeuP//Zvy2mhbMG9CK5BeEWwH4jtwNN5KChwz4GwDyC8I5AffYb9rp7O/QhKDlzQkB/2oa54qxNeOQuwD8HbcGeCsA8LA5SHOiXKx7eU4E1jUF4QSA2rAJQE95reaeB1wBh7KAEuGB594oP+gLsU3N/QL+gj98KAEPBKZChmGBeMG9qKt4EBBH/jrVVQEqBMwCoCZcLxgheYMjFWmBOYH+hHANdFWKYgayAwH/jKBxQrKD14YxYUbnwUEoqZU14IIVvB9LddJV1pdUcS9/dl2IvMPkIIIWcD3Epg9YBgVwXCHwTBkwABFm/5cm9ucuBbF1WFA9/bqPrdYx+sHhAYq8cAnmIjTfV1qBDG8ZT7/2/vDnIShoIwAD/iGfQQwiHcu1U8DngdOQV7tuUobDW/0qQh9IHFvMTk+1ZNAy+lZcEwb2Zq28Uir8kP4bFMQtYZzs84lWtLhiMB0lDOZe1am9Zce+3Puf5zT5Vnm8xOf5+z1agPgs7J8z4cfrJKNVkn6/YZkN9KIJVAJNvQTqUeJ13PxuR7k+1T5wZ8XrqfkfcnMKndB+Bfqs/56N7L4i2zhEbaIAIAAFxJzQcAANCEmg8AAKCJy5mPriub4yEAAMBUd7PZbL3b7cp2uy3P6XIy9PBU7vfLslzuy3z9WpSdAwAAU413u4oUnC+6svr8KGeaFwIAAFztcs3HfC7wAAAAbqbbFQAA0EQ987HvjgcAAAC3Gc98fE8435TH1cvxBAAAwHT1CecAAAB/RM0HAADQhAnnAABAEzIfAABAEzIfAABAEzIfAABAEzIfAABAA6V8AUUl3lrIQIwSAAAAAElFTkSuQmCC;" vertex="1" parent="1">
          <mxGeometry x="340.5" y="320" width="633.5" height="432.12" as="geometry" />
        </mxCell>
      </root>
    </mxGraphModel>
  </diagram>
</mxfile>
